<svg height="245.709" viewBox="0 0 340.844 245.709" width="340.844"
    xmlns="http://www.w3.org/2000/svg">
    <g data-name="Group 305" id="Group_305" transform="translate(-18.107 -170.393)">
        <path
            d="M1054.591,4003.038c22.642-31.407,74.586-50.919,116.581-12.035s28,96.431,76.212,62.214,107.318-6.221,108.874,14,17.781,69.625-20.872,104.6-156.832,54.75-173.94,22.087-67.183,1.841-102.257-27.142-53.277-72.533-25.667-99.542S1031.948,4034.445,1054.591,4003.038Z"
            data-name="Path 696" fill="#f4f4f6" id="Path_696" transform="translate(-1002 -3799)" />
        <g data-name="Group 95" id="Group_95" transform="translate(264.718 236.883)">
            <ellipse cx="33.973" cy="6.778" data-name="Ellipse 7" fill="#6c63ff" id="Ellipse_7"
                opacity="0.1" rx="33.973" ry="6.778" transform="translate(0 108.432)" />
            <path
                d="M213.491,767.207l4.119,4.446s3.81.043,3.065-2.059a7.685,7.685,0,0,1-.317-1.4,34.392,34.392,0,0,1-.268-4.5c0-.986.015-1.678.015-1.678s-6-2.628-5.386.11a5.142,5.142,0,0,1,.123,1.042,6.522,6.522,0,0,1-.684,2.924A6.62,6.62,0,0,1,213.491,767.207Z"
                data-name="Path 143" fill="#ecb4b6" id="Path_143"
                transform="translate(-183.105 -659.549)" />
            <path
                d="M213.491,782.4l4.119,4.446s3.81.043,3.065-2.059a7.684,7.684,0,0,1-.317-1.4,8.786,8.786,0,0,0-1.325,1.663s-2.628.766-3.351-1.532a3.9,3.9,0,0,0-1.532-2.232A6.606,6.606,0,0,1,213.491,782.4Z"
                data-name="Path 144" id="Path_144" opacity="0.1"
                transform="translate(-183.105 -674.745)" />
            <path
                d="M211.462,788.916a7.494,7.494,0,0,0,5.016,1.788c3.4-.048,9.743-.148,11.217-.209,1.972-.087,1.318-1.77,1.254-2.929v-.115c-.023-1.162-.255-3.68-.649-4.074s-1.739,1.752-1.739,1.752-2.628.766-3.351-1.532-2.191-2.521-2.191-2.521c-.667-.288-.7,1.446-.7,1.446l-5.562,2.868-3.264.511c-.1.049-.2.1-.289.146C209.728,786.873,210.382,787.981,211.462,788.916Z"
                data-name="Path 145" fill="#c17174" id="Path_145"
                transform="translate(-190.497 -674.561)" />
            <ellipse cx="0.24" cy="0.24" data-name="Ellipse 17" fill="#fff" id="Ellipse_17"
                opacity="0.25" rx="0.24" ry="0.24" transform="translate(30.925 109.454)" />
            <ellipse cx="0.24" cy="0.24" data-name="Ellipse 18" fill="#fff" id="Ellipse_18"
                opacity="0.25" rx="0.24" ry="0.24" transform="translate(28.713 110.572)" />
            <ellipse cx="0.24" cy="0.24" data-name="Ellipse 19" fill="#fff" id="Ellipse_19"
                opacity="0.25" rx="0.24" ry="0.24" transform="translate(27.577 111.091)" />
            <ellipse cx="0.24" cy="0.24" data-name="Ellipse 20" fill="#fff" id="Ellipse_20"
                opacity="0.25" rx="0.24" ry="0.24" transform="translate(25.217 112.015)" />
            <ellipse cx="0.24" cy="0.24" data-name="Ellipse 21" fill="#fff" id="Ellipse_21"
                opacity="0.25" rx="0.24" ry="0.24" transform="translate(26.418 111.622)" />
            <path
                d="M211.462,803.523a7.493,7.493,0,0,0,5.016,1.788c3.4-.048,9.743-.148,11.217-.209,1.971-.087,1.318-1.77,1.254-2.929l-12.379.766s-5.069-.766-5.363-2.278C209.728,801.48,210.381,802.588,211.462,803.523Z"
                data-name="Path 146" fill="#c17174" id="Path_146"
                transform="translate(-190.497 -689.168)" />
            <path
                d="M211.462,803.523a7.493,7.493,0,0,0,5.016,1.788c3.4-.048,9.743-.148,11.217-.209,1.971-.087,1.318-1.77,1.254-2.929l-12.379.766s-5.069-.766-5.363-2.278C209.728,801.48,210.381,802.588,211.462,803.523Z"
                data-name="Path 147" fill="#fff" id="Path_147" opacity="0.25"
                transform="translate(-190.497 -689.168)" />
            <path
                d="M.246,2.911A8.545,8.545,0,0,1,1.488,4.158C2.716,5.583,4.236,7.733,4.989,8.8c.291.419.467.682.467.682L7.1,9.24S8.873,6.525,8.85,6.461s-1.4-2.98-1.4-2.98l-.534-.626L5.229.889,4.463,0S-1.237,1.839.246,2.911Z"
                data-name="Path 148" fill="#ecb4b6" id="Path_148"
                transform="translate(35.983 104.243) rotate(41)" />
            <path
                d="M1.685,9.843s1.1,2.365,1.688,3.723a4.112,4.112,0,0,1,.373,2.342,2.3,2.3,0,0,0,.186.511,2.58,2.58,0,0,0,2.242,1.42h.107c2-.051,2.63-5.848,2.63-5.848S8.606.956,8.037.243A.548.548,0,0,0,7.748.09,6.126,6.126,0,0,0,5.989.042C4.183.172,1.862.616,1.862.616H1.445c1.468,1.532-.107,4.906-.107,4.906A1.8,1.8,0,0,0,.089,6.572C-.457,7.558,1.685,9.843,1.685,9.843Z"
                data-name="Path 150" fill="#c17174" id="Path_150"
                transform="translate(39.599 112.746) rotate(90)" />
            <path
                d="M0,16.42a2.579,2.579,0,0,0,2.242,1.42h.1c2-.051,2.633-5.848,2.633-5.848S4.674.956,4.1.243A.548.548,0,0,0,3.815.09,6.13,6.13,0,0,0,2.056.042c.033,1.984.128,8.254,0,8.877A53.79,53.79,0,0,1,0,16.42Z"
                data-name="Path 152" fill="#fff" id="Path_152" opacity="0.25"
                transform="translate(39.648 116.821) rotate(90)" />
            <path
                d="M216.164,762.114a5.148,5.148,0,0,1,.123,1.042,4.7,4.7,0,0,0,5.248.526c0-.986.015-1.678.015-1.678S215.551,759.366,216.164,762.114Z"
                data-name="Path 163" id="Path_163" opacity="0.1"
                transform="translate(-184.56 -659.535)" />
            <path
                d="M208.733,541.089l.064,1.211.547,10.177a32,32,0,0,1,.255,6.655c-.184,4.377,2.462,11.314,2.462,11.314s1.277,4.686,1.665,6.832a3.908,3.908,0,0,0,1.619,2.809s-.306,2.408.57,3.241a3.6,3.6,0,0,1,.919,2.232s1.359,7.534,1.788,8.28.4,4.686.4,4.686c2.845,3.371,7.005.307,7.005.307l-.043-10.555s-1.182-9.723-2.058-11.081-.876-5.08-.876-5.08l.391-8.683a2.34,2.34,0,0,0,.043-1.445c-.268-.526.748-1.969.748-1.969,2.454-2.98,2.809-9.682,2.092-10.982s-2.84-6.569-2.84-6.569l-2.929-1.708-5.294.156Z"
                data-name="Path 164" fill="#5e5a6b" id="Path_164"
                transform="translate(-187.655 -495.643)" />
            <path d="M231.455,744.15s-.692,2.4-1.249,2.661S231.455,744.15,231.455,744.15Z"
                data-name="Path 165" id="Path_165" opacity="0.1"
                transform="translate(-198.004 -647.09)" />
            <path d="M236.5,712.9s-1.788,1.415-2.554,1.412S236.5,712.9,236.5,712.9Z"
                data-name="Path 166" id="Path_166" opacity="0.1"
                transform="translate(-203.966 -623.821)" />
            <path
                d="M221.089,431.134v2.891L223,433.2l1.9-.82,4.142-4.073a31.362,31.362,0,0,0,5.029-4.066c1-1.106,1.5-2.15.623-2.7a5.491,5.491,0,0,1-1.147-1,18.855,18.855,0,0,1-2.283-3.371c-.028-.049-.056-.1-.082-.146-.853-1.566-1.417-2.9-1.417-2.9a17.265,17.265,0,0,0-3.943,1.859c-.125.087-.243.176-.355.268-.861.7-1.29,1.532-.5,2.339a6.14,6.14,0,0,1,.564.674h0a5.546,5.546,0,0,1,.352.552c.046.087.092.171.133.255a5.89,5.89,0,0,1,.526,3.506Z"
                data-name="Path 167" fill="#ecb4b6" id="Path_167"
                transform="translate(-199.289 -401.345)" />
            <path
                d="M277.28,395.139c-.1.174-.238.322-.329.5a2.392,2.392,0,0,0-.146,1.226,6.971,6.971,0,0,1-.128,1.956,9.11,9.11,0,0,0-.409,1.726,4.529,4.529,0,0,0,.825,2.332,1.678,1.678,0,0,1-1.2-.559,1.164,1.164,0,0,0,.22,1.08,1.857,1.857,0,0,1-1.532-1.208,4.211,4.211,0,0,1-.2-2.043,13.935,13.935,0,0,0,.148-2.056,7.507,7.507,0,0,1-.059-1.121,4.067,4.067,0,0,1,.96-1.992l.889-1.221a.628.628,0,0,1,.255-.232C277.418,393.168,277.515,394.715,277.28,395.139Z"
                data-name="Path 168" fill="#464353" id="Path_168"
                transform="translate(-254.982 -385.971)" />
            <path
                d="M236.772,418.572a6.114,6.114,0,0,1,.564.674h0a5.516,5.516,0,0,1,.352.552c.046.087.092.171.133.255a6.9,6.9,0,0,0,5.161-2.789c.028-.038.056-.077.082-.117-.028-.049-.056-.1-.082-.146-.853-1.565-1.417-2.9-1.417-2.9a17.258,17.258,0,0,0-3.943,1.859c-.125.087-.243.176-.355.268C236.417,416.937,235.988,417.755,236.772,418.572Z"
                data-name="Path 169" id="Path_169" opacity="0.1"
                transform="translate(-211.115 -401.33)" />
            <path
                d="M231.37,389.349a6.9,6.9,0,0,0,5.648,6.783,6.986,6.986,0,0,0,1.25.112h.255a6.9,6.9,0,1,0-7.151-6.9Z"
                data-name="Path 170" fill="#ecb4b6" id="Path_170"
                transform="translate(-211.867 -377.77)" />
            <path
                d="M257.223,457.555s-3.473,1.959-2.585.307l4.533-6.7h0l-5.146,6.612s-3.284,4.513-1.489,7.621a11.542,11.542,0,0,1-.043,3.2c-.3.613.087,7.151.087,7.151s1.228-1.139,1.885-.922,5.289.605,5.289.605Z"
                data-name="Path 171" id="Path_171" opacity="0.1"
                transform="translate(-231.695 -428.926)" />
            <path
                d="M252.48,541.484l.064,1.21c.416-.3,1-.638,1.382-.511.656.22,5.3.615,5.3.615l-.212-1.509Z"
                data-name="Path 172" id="Path_172" opacity="0.1"
                transform="translate(-231.298 -496.038)" />
            <path
                d="M257.7,457.555s-3.476,1.959-2.585.307l4.533-6.7h0l-5.146,6.612s-3.284,4.513-1.489,7.621a11.546,11.546,0,0,1-.043,3.2c-.3.613.087,7.151.087,7.151s1.226-1.139,1.882-.922,5.3.616,5.3.616Z"
                data-name="Path 173" fill="#464353" id="Path_173"
                transform="translate(-232.302 -428.926)" />
            <path
                d="M211.062,452.41a23.925,23.925,0,0,0,1.068,4.612s.613,6.219,1.407,8.068.439,4.38.876,9.066a5.931,5.931,0,0,0,1.435,3.629,5.38,5.38,0,0,0,4.285,1.476l.322-.026c2.191-.217,4.293-10.772,4.293-10.772s1.006-8.979.613-10.216.388-8.226.651-9.758a8.477,8.477,0,0,0-.723-3.591c-.227-.6-.414-1.022-.414-1.022a10.579,10.579,0,0,0-1.972-3.591,1.808,1.808,0,0,0-1.3-.547,3.251,3.251,0,0,0-1.622.511.449.449,0,0,0-.056.038s-7.973,8.147-8.716,10.029A4.817,4.817,0,0,0,211.062,452.41Z"
                data-name="Path 174" id="Path_174" opacity="0.1"
                transform="translate(-187.665 -420.422)" />
            <path
                d="M210.033,451.914a24.051,24.051,0,0,0,1.07,4.61s.613,6.221,1.4,8.06.437,4.38.876,9.066a5.945,5.945,0,0,0,1.435,3.629,5.389,5.389,0,0,0,4.285,1.476l.322-.026c2.191-.22,4.293-10.775,4.293-10.775s1.006-8.977.613-10.2.393-8.234.656-9.769a8.484,8.484,0,0,0-.723-3.591c-.227-.6-.414-1.009-.414-1.009a10.582,10.582,0,0,0-1.972-3.591,1.787,1.787,0,0,0-1.3-.544,3.2,3.2,0,0,0-1.622.511l-.056.036s-7.973,8.147-8.716,10.029A4.715,4.715,0,0,0,210.033,451.914Z"
                data-name="Path 175" fill="#e5b826" id="Path_175"
                transform="translate(-186.382 -420.057)" />
            <path d="M223.852,614.38s1.808,1.609,2.431,1.532S223.852,614.38,223.852,614.38Z"
                data-name="Path 176" id="Path_176" opacity="0.1"
                transform="translate(-191.34 -550.462)" />
            <path
                d="M225.54,620.356a25.885,25.885,0,0,0,2.475,1.021C228.584,621.516,226.275,620.129,225.54,620.356Z"
                data-name="Path 177" id="Path_177" opacity="0.1"
                transform="translate(-193.499 -554.893)" />
            <path d="M267.735,525.639s-2.825.033-3.251.919S266.826,525.277,267.735,525.639Z"
                data-name="Path 178" id="Path_178" opacity="0.1"
                transform="translate(-242.849 -484.353)" />
            <path
                d="M265.8,531.8a10.275,10.275,0,0,0-2.825.986C262.316,533.312,265.8,531.8,265.8,531.8Z"
                data-name="Path 179" id="Path_179" opacity="0.1"
                transform="translate(-240.528 -488.972)" />
            <path d="M242.825,510.84s.255,8.9,1.231,10.052S242.825,510.84,242.825,510.84Z"
                data-name="Path 180" id="Path_180" opacity="0.1"
                transform="translate(-214.036 -473.365)" />
            <path d="M241.83,607.6s1.813,7.851-1.823,8.336S237.494,607,237.494,607Z"
                data-name="Path 181" id="Path_181" opacity="0.1"
                transform="translate(-210.598 -544.967)" />
            <path d="M241.325,607.108s1.8,7.851-1.826,8.341-2.51-8.939-2.51-8.939Z"
                data-name="Path 182" fill="#ecb4b6" id="Path_182"
                transform="translate(-209.963 -544.602)" />
            <path
                d="M212.975,388.6a2.655,2.655,0,0,0,.255-.478c.483-1.006,1.724-.511,2.633-.033l.485.626a3.892,3.892,0,0,1,.554.856,6.46,6.46,0,0,1,.232.766c.125.444.309.868.475,1.3a15.142,15.142,0,0,1,.968,4.5,6.955,6.955,0,0,0,1.251.112h.031v-.031c-.046-.174-.084-.35-.12-.526h0a9.111,9.111,0,0,1-.069-3.013v-.066c.033-.222.077-.447.095-.669.084.153.166.309.255.467a5,5,0,0,0,2.163,2.49,4.434,4.434,0,0,0,1.315.3,7.5,7.5,0,0,1,1.645.273,1.021,1.021,0,0,1,.478.289,1.409,1.409,0,0,1,.24.72,5.8,5.8,0,0,0,.255,1,8.755,8.755,0,0,0,2.145,3.2l.238.23a4.447,4.447,0,0,0,1.42.983,4.341,4.341,0,0,0,1.5.225c-.227-.6-.414-1.009-.414-1.009a10.583,10.583,0,0,0-1.972-3.591,1.788,1.788,0,0,0-1.3-.544,19.288,19.288,0,0,1-2.365-3.517,6.9,6.9,0,1,0-12.4-4.852Z"
                data-name="Path 183" id="Path_183" opacity="0.1"
                transform="translate(-193.476 -377.779)" />
            <path
                d="M201.974,369.537a4.706,4.706,0,0,1,1.532-.983,1.167,1.167,0,0,0,.5-.363,1.517,1.517,0,0,0,.153-.626,4.068,4.068,0,0,1,2.666-2.8,5.813,5.813,0,0,1,5.021-.169,16.286,16.286,0,0,1,1.995,1.548c.848.649,1.824,1.1,2.728,1.67a5.358,5.358,0,0,1,2.2,2.263c.664,1.507.166,3.236.082,4.88a8.025,8.025,0,0,0,3.019,6.839,2.634,2.634,0,0,1,.664.58.728.728,0,0,1,.054.825c-.1.143-.278.225-.393.357a1.135,1.135,0,0,0-.1,1.042,6.518,6.518,0,0,0,1.752,3c-.036.271-.363.375-.631.416a14.344,14.344,0,0,1-2.143.156,3.6,3.6,0,0,1-3-1.208,8.136,8.136,0,0,1-2.646-4.426,1.459,1.459,0,0,0-.24-.72,1.08,1.08,0,0,0-.478-.289c-.953-.327-2.043-.166-2.96-.57-1.2-.511-1.788-1.788-2.413-2.957-.02.222-.061.447-.1.672a9.082,9.082,0,0,0,.179,3.606,7.482,7.482,0,0,1,.4,2.017c-.013.511-.531,3.18-1.213,2.38s-.432-2.567-.432-3.558a15.207,15.207,0,0,0-1-5.427c-.163-.432-.35-.858-.475-1.3a6.986,6.986,0,0,0-.23-.766,4,4,0,0,0-.557-.856l-.488-.626c-.909-.483-2.15-.973-2.633.033-.184.386-.283.812-.766.437a1.716,1.716,0,0,1-.449-.991C201.269,372.231,201.019,370.594,201.974,369.537Z"
                data-name="Path 184" fill="#464353" id="Path_184"
                transform="translate(-182.929 -364.1)" />
            <path
                d="M217.2,467.826a4.286,4.286,0,0,1,8.328-1.231.641.641,0,0,1,.031.092c1.009,3.021.57,10.673.57,10.673a46.3,46.3,0,0,1-.613,6.847c-.483,1.709-1.839,6.612-1.839,7.406s-1.259,3.81-1.788,4.03-.8,1.926-.927,2.232-.511,4.293-.511,4.293-4.949-.306-5.036-1.1a28.194,28.194,0,0,1,1.1-4.643,8.933,8.933,0,0,0,.983-2.845c.112-1.269.8-1.846.661-2.722s.4-1.313.4-1.882a14.008,14.008,0,0,1,.393-2.1s.833-.659.7-1.445,1.182-2.365.833-2.935a5.926,5.926,0,0,1-.437-1.972s-.439-6.305-.746-8.014a16.969,16.969,0,0,0-2.1-4.467S217.192,467.967,217.2,467.826Z"
                data-name="Path 185" id="Path_185" opacity="0.1"
                transform="translate(-188.99 -438.278)" />
            <path
                d="M213.357,495.109a5.388,5.388,0,0,0,4.285,1.476c.158-.6.388-1.333.723-1.471.531-.22,1.788-3.241,1.788-4.027s1.356-5.7,1.839-7.406a46.281,46.281,0,0,0,.613-6.844s.439-7.662-.569-10.675a.266.266,0,0,0-.031-.089,4.286,4.286,0,0,0-8.328,1.231v.217a17.23,17.23,0,0,1,2.1,4.467c.314,1.709.741,8.014.741,8.014a5.951,5.951,0,0,0,.439,1.972c.35.57-.963,2.148-.833,2.934a1.8,1.8,0,0,1-.7,1.446,13.992,13.992,0,0,0-.393,2.1c0,.572-.526,1.006-.4,1.882s-.57,1.445-.682,2.715A7.079,7.079,0,0,1,213.357,495.109Z"
                data-name="Path 186" id="Path_186" opacity="0.1"
                transform="translate(-184.976 -437.887)" />
            <path
                d="M216.167,467.316a4.286,4.286,0,0,1,8.328-1.231l.031.089c1.009,3.024.57,10.675.57,10.675a46.264,46.264,0,0,1-.613,6.844c-.483,1.709-1.839,6.615-1.839,7.406s-1.259,3.81-1.788,4.03-.8,1.928-.927,2.235-.511,4.29-.511,4.29-4.949-.306-5.036-1.093a28.3,28.3,0,0,1,1.093-4.643,8.937,8.937,0,0,0,.986-2.848c.112-1.269.812-1.839.679-2.715s.4-1.315.4-1.885a14.011,14.011,0,0,1,.393-2.1,1.787,1.787,0,0,0,.7-1.445c-.133-.789,1.182-2.365.833-2.934a5.914,5.914,0,0,1-.437-1.969s-.439-6.308-.746-8.017a16.969,16.969,0,0,0-2.1-4.467A1.113,1.113,0,0,1,216.167,467.316Z"
                data-name="Path 187" fill="#e5b826" id="Path_187"
                transform="translate(-187.703 -437.898)" />
            <path
                d="M221.393,520.616c-.13-.133-2.628-2.891-3.414-1.905S221.393,520.616,221.393,520.616Z"
                data-name="Path 188" id="Path_188" opacity="0.1"
                transform="translate(-184.863 -479.067)" />
            <path d="M221.932,529.648c-.1-.1-2.5-.2-3.088-1.532S221.932,529.648,221.932,529.648Z"
                data-name="Path 189" id="Path_189" opacity="0.1"
                transform="translate(-185.631 -485.964)" />
            <g data-name="Group 29" id="Group_29" opacity="0.1" transform="translate(18.315 7.169)">
                <path
                    d="M206.3,437.25a.676.676,0,0,0-.13.237,1.022,1.022,0,0,1,.13-.894c.117-.135.289-.215.4-.357l.02-.036a.677.677,0,0,1-.02.692C206.572,437.035,206.413,437.117,206.3,437.25Z"
                    data-name="Path 190" id="Path_190" transform="translate(-185.427 -424.955)" />
                <path
                    d="M220.14,396.933v-.746c.046-.894.212-1.811.255-2.707a32.7,32.7,0,0,1-.255,3.363C220.14,396.869,220.143,396.9,220.14,396.933Z"
                    data-name="Path 191" id="Path_191" transform="translate(-202.614 -393.145)" />
                <path
                    d="M256.987,443.678c.608.712,1.085-1.338,1.19-2.148a3.351,3.351,0,0,1,.023.424c-.015.511-.531,3.18-1.213,2.38a3.5,3.5,0,0,1-.48-2.314A2.754,2.754,0,0,0,256.987,443.678Z"
                    data-name="Path 192" id="Path_192" transform="translate(-249.697 -428.924)" />
                <path
                    d="M201.691,417.29a8.8,8.8,0,0,0-.095,1.037,8.973,8.973,0,0,1,.095-1.7c.033-.222.077-.447.1-.672.631,1.18,1.216,2.442,2.411,2.96.927.4,2.007.243,2.96.57a1.021,1.021,0,0,1,.478.289,1.425,1.425,0,0,1,.24.72,8.169,8.169,0,0,0,2.648,4.426,3.6,3.6,0,0,0,3,1.208,14.652,14.652,0,0,0,2.14-.156,1.617,1.617,0,0,0,.322-.084c.1.112.2.22.312.324-.036.271-.365.375-.633.416a14.3,14.3,0,0,1-2.14.156,3.6,3.6,0,0,1-3-1.208,8.154,8.154,0,0,1-2.648-4.426,1.434,1.434,0,0,0-.24-.72,1.054,1.054,0,0,0-.478-.289c-.953-.327-2.043-.166-2.96-.569-1.2-.511-1.788-1.788-2.411-2.957C201.768,416.841,201.725,417.066,201.691,417.29Z"
                    data-name="Path 193" id="Path_193" transform="translate(-193.768 -409.884)" />
                <path
                    d="M263.2,393.868a1.726,1.726,0,0,0,.452.991c.48.373.577-.051.766-.437.483-1.006,1.724-.511,2.633-.033l.488.626a3.9,3.9,0,0,1,.554.856,6.019,6.019,0,0,1,.23.766c.128.444.311.868.478,1.3a15.285,15.285,0,0,1,1,5.427v.271a15.244,15.244,0,0,0-1-5.039c-.166-.432-.35-.858-.478-1.3a6.045,6.045,0,0,0-.23-.766,3.9,3.9,0,0,0-.554-.856l-.488-.626c-.909-.483-2.15-.973-2.633.033-.186.386-.283.812-.766.437a1.719,1.719,0,0,1-.452-.991,8.66,8.66,0,0,1-.255-2.355A11.272,11.272,0,0,0,263.2,393.868Z"
                    data-name="Path 194" id="Path_194" transform="translate(-262.94 -392.17)" />
            </g>
            <path
                d="M0,0S3.213,4.293,4.388,4.776,14.32,15.987,14.32,15.987s-1.882,3.46-5.343,4.027a5.113,5.113,0,0,1-2.585-2.408C5.69,15.941.174,11.237.174,11.237Z"
                data-name="Path 290" fill="#5e5a6b" id="Path_290"
                transform="matrix(0.799, 0.602, -0.602, 0.799, 38.153, 89.997)" />
        </g>
        <g id="undraw_on_the_way_ldaq" transform="translate(26.08 255.916) rotate(-1)">
            <ellipse cx="3.451" cy="0.474" data-name="Ellipse 25" fill="#6c63ff" id="Ellipse_25"
                opacity="0.1" rx="3.451" ry="0.474" transform="translate(0 76.97)" />
            <ellipse cx="3.451" cy="0.474" data-name="Ellipse 26" fill="#6c63ff" id="Ellipse_26"
                opacity="0.1" rx="3.451" ry="0.474" transform="translate(13.22 78.311)" />
            <ellipse cx="3.451" cy="0.474" data-name="Ellipse 27" fill="#6c63ff" id="Ellipse_27"
                opacity="0.1" rx="3.451" ry="0.474" transform="translate(28.793 76.496)" />
            <ellipse cx="2.454" cy="0.337" data-name="Ellipse 28" fill="#6c63ff" id="Ellipse_28"
                opacity="0.1" rx="2.454" ry="0.337" transform="translate(8.926 82.266)" />
            <ellipse cx="2.454" cy="0.337" data-name="Ellipse 29" fill="#6c63ff" id="Ellipse_29"
                opacity="0.1" rx="2.454" ry="0.337" transform="translate(22.649 81.929)" />
            <path
                d="M1.944,26.207S-2.9,10.339,2.7,3.983C6.889-.772,11.642-.2,13.771.385A3.935,3.935,0,0,1,16.311,2.5c.744,1.6.609,4.212-4.645,7.254-8.8,5.094-9.344,12.08-9.344,12.08Z"
                data-name="Path 203" fill="#25b6c7" id="Path_203"
                transform="translate(14.802 52.471)" />
            <path d="M11.537,0S-2.732,4.461.468,23.571" data-name="Path 204" fill="none"
                id="Path_204" stroke="#565987" stroke-miterlimit="10" stroke-width="1"
                transform="translate(16.279 55.108)" />
            <path d="M0,0S1.965,1.323,1.337,3.313" data-name="Path 205" fill="none" id="Path_205"
                stroke="#565987" stroke-miterlimit="10" stroke-width="1"
                transform="translate(19.482 56.708)" />
            <path d="M2.662.751A2.479,2.479,0,0,0,0,.2" data-name="Path 206" fill="none"
                id="Path_206" stroke="#565987" stroke-miterlimit="10" stroke-width="1"
                transform="translate(23.722 57.133)" />
            <path d="M2.654.4S.545-.664,0,.672" data-name="Path 207" fill="none" id="Path_207"
                stroke="#565987" stroke-miterlimit="10" stroke-width="1"
                transform="translate(18.089 63.627)" />
            <path d="M0,.008S1.584-.118,1.613.64" data-name="Path 208" fill="none" id="Path_208"
                stroke="#565987" stroke-miterlimit="10" stroke-width="1"
                transform="translate(15.525 66.254)" />
            <path
                d="M0,11.285S5.67-.249,7.227,0c.739.12,1.08.847,1.235,1.579A4.651,4.651,0,0,1,8.153,4.4,12.451,12.451,0,0,1,0,11.285Z"
                data-name="Path 209" fill="#25b6c7" id="Path_209"
                transform="translate(16.554 67.521)" />
            <path d="M7.1,0S1.149,8.629,0,9.007" data-name="Path 210" fill="none" id="Path_210"
                stroke="#565987" stroke-miterlimit="10" stroke-width="1"
                transform="translate(16.634 69.714)" />
            <line data-name="Line 1" fill="none" id="Line_1" stroke="#565987" stroke-miterlimit="10"
                stroke-width="1" transform="translate(22.893 71.06)" x1="1.389" />
            <line data-name="Line 2" fill="none" id="Line_2" stroke="#565987" stroke-miterlimit="10"
                stroke-width="1" transform="translate(20.442 74.217)" x1="2.176" y2="0.094" />
            <line data-name="Line 3" fill="none" id="Line_3" stroke="#565987" stroke-miterlimit="10"
                stroke-width="1" transform="translate(21.293 71.692)" x2="0.237" y2="1.133" />
            <line data-name="Line 4" fill="none" id="Line_4" stroke="#565987" stroke-miterlimit="10"
                stroke-width="1" transform="translate(18.978 75.143)" x2="0.043" y2="1.031" />
            <path
                d="M8.554,11.285S2.884-.249,1.327,0C.588.124.247.851.092,1.583A4.642,4.642,0,0,0,.4,4.389,12.426,12.426,0,0,0,8.554,11.285Z"
                data-name="Path 211" fill="#25b6c7" id="Path_211"
                transform="translate(8.164 67.521)" />
            <path d="M0,0S5.95,8.629,7.1,9.007" data-name="Path 212" fill="none" id="Path_212"
                stroke="#565987" stroke-miterlimit="10" stroke-width="1"
                transform="translate(9.534 69.714)" />
            <line data-name="Line 5" fill="none" id="Line_5" stroke="#565987" stroke-miterlimit="10"
                stroke-width="1" transform="translate(8.987 71.06)" x2="1.389" />
            <line data-name="Line 6" fill="none" id="Line_6" stroke="#565987" stroke-miterlimit="10"
                stroke-width="1" transform="translate(10.65 74.217)" x2="2.177" y2="0.094" />
            <line data-name="Line 7" fill="none" id="Line_7" stroke="#565987" stroke-miterlimit="10"
                stroke-width="1" transform="translate(11.739 71.692)" x1="0.237" y2="1.133" />
            <line data-name="Line 8" fill="none" id="Line_8" stroke="#565987" stroke-miterlimit="10"
                stroke-width="1" transform="translate(14.248 75.143)" x1="0.043" y2="1.031" />
            <path
                d="M3.138,1.559a.984.984,0,0,0,.323-.487.433.433,0,0,0-.226-.5c-.207-.08-.429.064-.6.208a.8.8,0,0,1-.58.281A.884.884,0,0,0,2.327.24.345.345,0,0,0,2.252.071C2.137-.052,1.928,0,1.791.1a1.716,1.716,0,0,0-.563,1.438A2.736,2.736,0,0,1,1.22.944.605.605,0,0,0,1,.42.654.654,0,0,0,.659.34.729.729,0,0,0,.108.5a.547.547,0,0,0,.021.676A2.153,2.153,0,0,0,.7,1.629a1.271,1.271,0,0,1,.4.388.4.4,0,0,1,.029.07H2.363A3.426,3.426,0,0,0,3.138,1.559Z"
                data-name="Path 213" fill="#25b6c7" id="Path_213"
                transform="translate(23.315 79.94)" />
            <path
                d="M3.139,1.56a.982.982,0,0,0,.323-.487.436.436,0,0,0-.226-.5c-.207-.079-.428.066-.6.21a.8.8,0,0,1-.58.279A.879.879,0,0,0,2.327.239.349.349,0,0,0,2.251.072C2.136-.051,1.928,0,1.79.1a1.716,1.716,0,0,0-.563,1.438A2.749,2.749,0,0,1,1.219.943.6.6,0,0,0,1,.421.659.659,0,0,0,.658.341.7.7,0,0,0,.107.5a.538.538,0,0,0,.021.668A2.12,2.12,0,0,0,.7,1.622a1.252,1.252,0,0,1,.4.388.475.475,0,0,1,.031.07H2.365A3.448,3.448,0,0,0,3.139,1.56Z"
                data-name="Path 214" fill="#25b6c7" id="Path_214"
                transform="translate(1.71 75.294)" />
            <path
                d="M3.138,1.559a.984.984,0,0,0,.323-.487.433.433,0,0,0-.226-.5c-.207-.08-.429.064-.6.209a.8.8,0,0,1-.58.281A.883.883,0,0,0,2.327.24.344.344,0,0,0,2.252.071C2.137-.051,1.928,0,1.791.1a1.716,1.716,0,0,0-.563,1.438A2.739,2.739,0,0,1,1.22.944.6.6,0,0,0,1,.42.661.661,0,0,0,.658.34.731.731,0,0,0,.108.5a.547.547,0,0,0,.021.676A2.156,2.156,0,0,0,.7,1.629a1.27,1.27,0,0,1,.4.388.4.4,0,0,1,.029.069H2.363A3.42,3.42,0,0,0,3.138,1.559Z"
                data-name="Path 215" fill="#25b6c7" id="Path_215"
                transform="translate(8.912 79.94)" />
            <path
                d="M1.272,0s.462.605-.214,1.518S-.174,3.2.051,3.772c0,0,1.02-1.7,1.85-1.72S2.185,1.02,1.272,0Z"
                data-name="Path 216" fill="#e5b826" id="Path_216"
                transform="translate(31.196 72.109)" />
            <path
                d="M1.246,0a.766.766,0,0,1,.095.19c.81.952,1.24,1.839.462,1.862C1.077,2.073.209,3.37,0,3.7c.007.025.015.05.024.075,0,0,1.02-1.7,1.85-1.72S2.159,1.02,1.246,0Z"
                data-name="Path 217" id="Path_217" opacity="0.1"
                transform="translate(31.223 72.109)" />
            <path
                d="M.107.136C.107.348.083.521.054.521S0,.348,0,.136.031.024.06.024.107-.077.107.136Z"
                data-name="Path 218" fill="#ffd037" id="Path_218"
                transform="translate(33.221 72.744)" />
            <path
                d="M.364.148C.177.249.014.311,0,.282S.127.148.314.05.426.022.441.05.552.046.364.148Z"
                data-name="Path 219" fill="#ffd037" id="Path_219"
                transform="translate(33.259 72.986)" />
            <path
                d="M1.036,0S.574.605,1.25,1.518,2.484,3.2,2.258,3.772c0,0-1.02-1.7-1.85-1.72S.129,1.02,1.036,0Z"
                data-name="Path 220" fill="#e5b826" id="Path_220"
                transform="translate(28.989 72.109)" />
            <path
                d="M1.036,0A.743.743,0,0,0,.943.19C.133,1.141-.3,2.029.479,2.052c.726.021,1.6,1.318,1.8,1.645-.008.025-.016.05-.025.075,0,0-1.02-1.7-1.85-1.72S.129,1.02,1.036,0Z"
                data-name="Path 221" id="Path_221" opacity="0.1"
                transform="translate(28.989 72.109)" />
            <path d="M0,.136C0,.348.024.521.053.521S.107.348.107.136.078.024.048.024,0-.077,0,.136Z"
                data-name="Path 222" fill="#ffd037" id="Path_222"
                transform="translate(29.166 72.744)" />
            <path
                d="M.118.148c.187.1.35.163.365.134S.356.148.17.05.056.022.036.05-.068.046.118.148Z"
                data-name="Path 223" fill="#ffd037" id="Path_223"
                transform="translate(28.752 72.986)" />
            <path
                d="M0,.7A4.722,4.722,0,0,0,1.683.382C2.072.1,3.672-.228,3.769.218s1.942,2.213.483,2.225a12.366,12.366,0,0,1-3.78-.464C.083,1.743,0,.7,0,.7Z"
                data-name="Path 224" fill="#a8a8a8" id="Path_224"
                transform="translate(29.313 75.102)" />
            <path
                d="M4.278,1.59A12.376,12.376,0,0,1,.5,1.127C.2.946.083.3.044,0H0S.083,1.044.472,1.28a12.369,12.369,0,0,0,3.78.464c.422,0,.567-.154.559-.376C4.75,1.5,4.591,1.588,4.278,1.59Z"
                data-name="Path 225" id="Path_225" opacity="0.2"
                transform="translate(29.313 75.8)" />
            <ellipse cx="44.03" cy="1.997" data-name="Ellipse 30" fill="#6c63ff" id="Ellipse_30"
                opacity="0.1" rx="44.03" ry="1.997" transform="translate(37.515 82.821)" />
            <path
                d="M4.818.535S7.625,5.845,7.843,6.6a1.024,1.024,0,0,0,.946.757s2.8.668,3.464.758,6.461.579,6.461.579,1.47.045,1.648-.489c.163-.489,3-3.059,4.647-.817a1.635,1.635,0,0,1,.238,1.46c-.3.962-.922,2.49-1.588,1.54-.936-1.337-2.024-.961-2.024-.249s-1.5.448-1.986.548c-.267.055-1.187.3-1.982.513a14.437,14.437,0,0,1-2.823.469,17.052,17.052,0,0,1-4.73-.123,12.839,12.839,0,0,0-3.475-.485,1.143,1.143,0,0,1-.678-.243A10.571,10.571,0,0,1,3.389,7.894C2.23,5.889-.153,1.738.008.535S4.818.535,4.818.535Z"
                data-name="Path 226" fill="#efb7b9" id="Path_226"
                transform="translate(72.242 24.581)" />
            <path
                d="M4.818.535S7.625,5.845,7.843,6.6a1.024,1.024,0,0,0,.946.757s2.8.668,3.464.758,6.461.579,6.461.579,1.47.045,1.648-.489c.163-.489,3-3.059,4.647-.817a1.635,1.635,0,0,1,.238,1.46c-.3.962-.922,2.49-1.588,1.54-.936-1.337-2.024-.961-2.024-.249s-1.5.448-1.986.548c-.267.055-1.187.3-1.982.513a14.437,14.437,0,0,1-2.823.469,17.052,17.052,0,0,1-4.73-.123,12.839,12.839,0,0,0-3.475-.485,1.143,1.143,0,0,1-.678-.243A10.571,10.571,0,0,1,3.389,7.894C2.23,5.889-.153,1.738.008.535S4.818.535,4.818.535Z"
                data-name="Path 227" id="Path_227" opacity="0.05"
                transform="translate(72.242 24.581)" />
            <path
                d="M9.781,24.059c-1.271,1.382-2.207,1.926-2.163.468C7.752,20.116,0,.174,0,.174L2.292,0A59.38,59.38,0,0,1,9.781,24.059Z"
                data-name="Path 228" fill="none" id="Path_228"
                transform="translate(99.478 41.176)" />
            <path
                d="M22.054,11.036a11.027,11.027,0,0,1-22.012.936c-.016-.179-.028-.358-.033-.535v-.009q-.008-.2-.008-.4a11.027,11.027,0,0,1,22.054,0Z"
                data-name="Path 229" id="Path_229" transform="translate(98.14 63.822)" />
            <ellipse cx="6.015" cy="6.015" data-name="Ellipse 31" fill="#dce0ed" id="Ellipse_31"
                rx="6.015" ry="6.015" transform="translate(103.153 68.837)" />
            <ellipse cx="3.609" cy="3.609" data-name="Ellipse 32" fill="#65617d" id="Ellipse_32"
                rx="3.609" ry="3.609" transform="translate(105.559 71.243)" />
            <path
                d="M26.553,8.1,0,8.633V4.719C.238,1.569,3.475.464,6.416.118a18.415,18.415,0,0,1,6.861.515A47.058,47.058,0,0,0,24.267,2.441,1.685,1.685,0,0,1,25.9,3.812c.084.448.167.936.245,1.417.059.377.115.748.166,1.095C26.455,7.32,26.553,8.1,26.553,8.1Z"
                data-name="Path 230" fill="#65617d" id="Path_230"
                transform="translate(53.656 45.813)" />
            <path
                d="M57.312,34.39H2.152A2.172,2.172,0,0,1,.14,33.09a1.509,1.509,0,0,1,.786-2,6.248,6.248,0,0,0,2.716-3.323,33.077,33.077,0,0,0,1.389-8.7c.233-4.393,1.823-6.565,3.542-7.619h0a7.012,7.012,0,0,1,4.654-.849l22.365.179a4.3,4.3,0,0,1,1.092.712c1.993,1.855-.913,4.277-.913,4.277a10.49,10.49,0,0,0-1.516,13.276H45.7a10.53,10.53,0,0,0,5.995-1.835A6.038,6.038,0,0,0,54.07,24.48c.176-.478.356-.956.569-1.418,3-6.51-.619-17.1-2.181-21.062C52.071,1.015,51.81.44,51.81.44L55.4.172,57.671,0h.023a59.425,59.425,0,0,1,7.485,24.059c.059.619.107,1.219.146,1.8a8.02,8.02,0,0,1-8.013,8.537Z"
                data-name="Path 231" fill="#25b6c7" id="Path_231"
                transform="translate(44.081 41.174)" />
            <path d="M26.309,1.095H0V0H26.144C26.2.37,26.259.742,26.309,1.095Z" data-name="Path 232"
                id="Path_232" opacity="0.1" transform="translate(53.656 51.042)" />
            <path
                d="M28.111.985H.211A.535.535,0,0,1,0,.942,7.013,7.013,0,0,1,4.654.094L27.019.273A4.3,4.3,0,0,1,28.111.985Z"
                data-name="Path 233" id="Path_233" opacity="0.1"
                transform="translate(52.655 51.686)" />
            <rect data-name="Rectangle 66" fill="#dce0ed" height="1.095" id="Rectangle_66"
                rx="0.547" transform="translate(42.557 51.302)" width="38.988" />
            <path
                d="M9.781,24.059c-1.271,1.382-2.207,1.926-2.163.468C7.752,20.116,0,.174,0,.174L2.292,0A59.38,59.38,0,0,1,9.781,24.059Z"
                data-name="Path 234" id="Path_234" opacity="0.1"
                transform="translate(99.478 41.176)" />
            <path
                d="M21.978,9.808c-1.316.315-2.94.636-4.945.936q-1.119.164-2.406.315c-2.049.243-4.419.456-7.156.619q-1.163.07-2.415.127-2.346.107-5.022.163L0,11.433v-.009C2.493,10.418,6.416,7.732,7.047.738A11.032,11.032,0,0,1,21.979,9.819Z"
                data-name="Path 235" id="Path_235" opacity="0.1"
                transform="translate(98.15 63.835)" />
            <path
                d="M0,20.66S12.658,19.286,8.3,0c0,0,6.254,5.734,10.145,8.92S29.269,16.5,29.269,16.5,25.128,20.37,0,20.66Z"
                data-name="Path 236" fill="#3ed3cd" id="Path_236"
                transform="translate(96.07 54.905)" />
            <path
                d="M0,20.66S12.658,19.286,8.3,0c0,0,6.254,5.734,10.145,8.92S29.269,16.5,29.269,16.5,25.128,20.37,0,20.66Z"
                data-name="Path 237" fill="#fff" id="Path_237" opacity="0.1"
                transform="translate(96.07 55.714)" />
            <ellipse cx="11.027" cy="11.027" data-name="Ellipse 33" id="Ellipse_33" rx="11.027"
                ry="11.027" transform="translate(51.227 63.825)" />
            <ellipse cx="6.015" cy="6.015" data-name="Ellipse 34" fill="#dce0ed" id="Ellipse_34"
                rx="6.015" ry="6.015" transform="translate(56.24 68.837)" />
            <ellipse cx="3.609" cy="3.609" data-name="Ellipse 35" fill="#65617d" id="Ellipse_35"
                rx="3.609" ry="3.609" transform="translate(58.646 71.243)" />
            <path
                d="M25.262,12.893A12.764,12.764,0,0,0,12.631,0,12.764,12.764,0,0,0,0,12.893q0,.452.031.894h25.2Q25.262,13.344,25.262,12.893Z"
                data-name="Path 238" id="Path_238" opacity="0.1"
                transform="translate(49.356 58.647)" />
            <path
                d="M24.326,12.416A12.291,12.291,0,0,0,12.163,0,12.291,12.291,0,0,0,0,12.416c0,.29.011.576.029.861H24.3C24.315,12.992,24.326,12.706,24.326,12.416Z"
                data-name="Path 239" fill="#3ed3cd" id="Path_239"
                transform="translate(49.824 58.902)" />
            <path
                d="M24.326,12.416c0,.2,0,.4-.015.593,0,.09-.009.178-.015.267H.029c0-.09-.011-.178-.015-.267-.009-.2-.015-.4-.015-.593A12.291,12.291,0,0,1,12.163,0,12.291,12.291,0,0,1,24.326,12.416Z"
                data-name="Path 240" fill="#3ed3cd" id="Path_240" opacity="0.1"
                transform="translate(47.395 59.712)" />
            <path d="M24.3,0c0,.09-.009.178-.015.267H.015C.015.178,0,.09,0,0Z" data-name="Path 241"
                id="Path_241" opacity="0.1" transform="translate(49.839 71.918)" />
            <rect data-name="Rectangle 67" height="2.851" id="Rectangle_67" opacity="0.1" rx="1.425"
                transform="translate(44.503 72.446)" width="32.677" />
            <rect data-name="Rectangle 68" fill="#dce0ed" height="2.851" id="Rectangle_68"
                rx="1.425" transform="translate(44.503 72.179)" width="32.677" />
            <ellipse cx="1.601" cy="4.031" data-name="Ellipse 36" id="Ellipse_36" opacity="0.1"
                rx="1.601" ry="4.031" transform="translate(102.304 46.898) rotate(-24.33)" />
            <ellipse cx="1.601" cy="4.031" data-name="Ellipse 37" fill="#dce0ed" id="Ellipse_37"
                rx="1.601" ry="4.031" transform="translate(102.437 46.764) rotate(-24.33)" />
            <path
                d="M5.858,0V2.094H1.782A7.02,7.02,0,0,1,.648,2C.261,1.018,0,.444,0,.444L3.589.176Z"
                data-name="Path 242" id="Path_242" opacity="0.1"
                transform="translate(95.892 41.176)" />
            <path
                d="M10.559,12.521H6.482A6.244,6.244,0,0,1,0,6.537V5.983A6.247,6.247,0,0,1,6.482,0l4.077.37Z"
                data-name="Path 243" fill="#25b6c7" id="Path_243"
                transform="translate(91.192 30.477)" />
            <path
                d="M4.377.134s2.439,1.3,1.036,3.509c0,0-1.721,2.823-4.428,2.556L0,.134A20.492,20.492,0,0,1,4.377.134Z"
                data-name="Path 244" fill="#3ed3cd" id="Path_244"
                transform="translate(90.657 33.885)" />
            <path
                d="M3.438.018A2.593,2.593,0,0,1,5.421,1.063a2.136,2.136,0,0,1-.008,2.581S3.692,6.467.985,6.2L0,.135A28.747,28.747,0,0,1,3.438.018Z"
                data-name="Path 245" fill="#25b6c7" id="Path_245" opacity="0.1"
                transform="translate(91.096 33.884)" />
            <path d="M0,0H.786A2.489,2.489,0,0,1,3.275,2.489V9.664A2.489,2.489,0,0,1,.786,12.152H0Z"
                data-name="Path 246" id="Path_246" opacity="0.1"
                transform="translate(101.617 30.847)" />
            <path d="M0,0H.786A2.489,2.489,0,0,1,3.275,2.489V9.664A2.489,2.489,0,0,1,.786,12.152H0Z"
                data-name="Path 247" fill="#dce0ed" id="Path_247"
                transform="translate(101.751 30.847)" />
            <path
                d="M0,6.1s.63.23,1.47.551A33.291,33.291,0,0,1,5.346,8.326a29.517,29.517,0,0,0,4.925,1.564,16.045,16.045,0,0,0,4.152.512c1.422-.013,3.145-.027,3.621-.027a1.491,1.491,0,0,1,.249.019c.5.083.48.418.468.5v.017C15.82,12.691,12.255,20.666,12.033,22a28.523,28.523,0,0,1-2.36,5.11c-.243.445-.4.727-.4.727l.892,1.024,2.584,1.159,2.45,1.069a17.262,17.262,0,0,0,2.629,0c.044-.134.044-1.514.044-1.514a7.309,7.309,0,0,1-.893-.679,14.79,14.79,0,0,1-1.647-1.683c-1.425-1.694,1.426-4.945,1.426-4.945l5.48-7.128s.445-.8,2.584-4.01,0-4.945,0-4.945L21.057,4.625c-6.528-2.443-14.4-4.4-14.4-4.4L6.543.209,4.873,0Z"
                data-name="Path 248" fill="#efb7b9" id="Path_248"
                transform="translate(72.808 40.356)" />
            <path
                d="M8.361,2.737s.468.552.118.6a5.822,5.822,0,0,1-1.27-.15L1.377.115S.743-.337.593.55s-.251.8-.251.8-.769,1.653,0,2,5.385,1.7,5.385,1.7,6.7,1.521,7.335-.234-1.136-1.453-1.136-1.453-2.205-.535-2.958-1.6C8.963,1.752,7.877,2.053,8.361,2.737Z"
                data-name="Path 249" fill="#444053" id="Path_249"
                transform="translate(81.265 67.641)" />
            <path
                d="M24.815,6.187,21.051,4.625C14.523,2.181,6.65.223,6.65.223L6.537.209,4.868,0,0,6.1s.63.23,1.47.551A33.31,33.31,0,0,1,5.346,8.326a29.5,29.5,0,0,0,4.925,1.564,16.043,16.043,0,0,0,4.152.512c1.422-.013,3.145-.027,3.621-.027a1.493,1.493,0,0,1,.249.019c.5.083.48.418.468.5v.017C15.82,12.691,12.255,20.666,12.033,22a28.528,28.528,0,0,1-2.36,5.11l-.1.179c-.194-.032-.436.037-.521.543-.151.885-.251.8-.251.8s-.769,1.653,0,2,5.381,1.7,5.381,1.7,6.7,1.521,7.335-.234-1.136-1.453-1.136-1.453-2.205-.535-2.958-1.6a1.47,1.47,0,0,0-.2.072c-.079-.064-.163-.134-.253-.211a14.776,14.776,0,0,1-1.647-1.683c-1.425-1.693,1.426-4.945,1.426-4.945l5.48-7.128s.445-.8,2.584-4.01S24.815,6.187,24.815,6.187Z"
                data-name="Path 250" id="Path_250" opacity="0.05"
                transform="translate(72.808 40.356)" />
            <path
                d="M0,7.16l.2.257.114.143.708.892s1.691.543,3.173.894c1.544.365,2.86.524,1.814-.349a2.292,2.292,0,0,1-.456-2.419,10.008,10.008,0,0,1,.85-2.152q.079-.152.156-.3a17.821,17.821,0,0,1,1.1-1.779A31.642,31.642,0,0,0,4.711.536C3.487-.1,2.482-.374,3.12.88a2.933,2.933,0,0,1-.107,2.565c-.029.068-.061.134-.095.2A9.2,9.2,0,0,1,1.656,5.506,14.662,14.662,0,0,1,0,7.16Z"
                data-name="Path 251" fill="#efb7b9" id="Path_251"
                transform="translate(68.32 9.484)" />
            <path d="M1.292,0,2.2.827,3.074,4.2H1.613L0,2.1Z" data-name="Path 252" fill="#444053"
                id="Path_252" transform="translate(75.493 37.005)" />
            <path
                d="M0,2.1.976,3.366l.638.83H3.074l-.15-.576L2.287,1.166,2.2.827,1.292,0,.055,2.008Z"
                data-name="Path 253" id="Path_253" opacity="0.1"
                transform="translate(75.493 37.005)" />
            <path
                d="M0,2.1.976,3.366l.638.83H3.074l-.15-.576L2.287,1.166,2.2.827,1.292,0,.055,2.008Z"
                data-name="Path 254" id="Path_254" opacity="0.1"
                transform="translate(75.493 37.005)" />
            <path
                d="M0,7.218s.63.23,1.47.551A33.312,33.312,0,0,1,5.346,9.446a29.517,29.517,0,0,0,4.925,1.564,16.042,16.042,0,0,0,4.152.513c1.422-.013,3.145-.027,3.621-.027a1.493,1.493,0,0,1,.249.019c.5.083.48.418.468.5v.017c-2.941,1.782-6.505,9.757-6.727,11.094a28.535,28.535,0,0,1-2.36,5.11c-.243.445-.4.727-.4.727l.891,1.024,2.582,1.157,2.45,1.069a17.273,17.273,0,0,0,2.629,0c.044-.134.044-1.514.044-1.514a7.285,7.285,0,0,1-.893-.679,14.766,14.766,0,0,1-1.647-1.683c-1.425-1.693,1.426-4.945,1.426-4.945l5.48-7.128s.445-.8,2.584-4.01,0-4.945,0-4.945l-3.43-1.961A54.671,54.671,0,0,0,8.513.223L8.4.209,6.731,0Z"
                data-name="Path 255" fill="#efb7b9" id="Path_255"
                transform="translate(70.637 40.747)" />
            <path
                d="M0,.73.891,1.754,3.475,2.912l2.45,1.069a17.267,17.267,0,0,0,2.629,0C8.6,3.848,8.6,2.467,8.6,2.467a7.29,7.29,0,0,1-.893-.679c-.277.148-.591.426-.287.857,0,0,.468.551.118.6a5.736,5.736,0,0,1-1.27-.15L.434.023.4,0Z"
                data-name="Path 256" id="Path_256" opacity="0.1"
                transform="translate(79.908 68.978)" />
            <path
                d="M8.361,2.738s.468.551.116.6a5.7,5.7,0,0,1-1.27-.151L1.377.115S.743-.336.592.549s-.25.8-.25.8-.769,1.655,0,2,5.38,1.691,5.38,1.691,6.7,1.52,7.334-.234-1.136-1.454-1.136-1.454-2.205-.535-2.956-1.6C8.967,1.752,7.876,2.053,8.361,2.738Z"
                data-name="Path 257" fill="#444053" id="Path_257"
                transform="translate(79.095 69.152)" />
            <path
                d="M0,3.107A6.2,6.2,0,0,0,2.958,4.487a4.932,4.932,0,0,0,.775-.061A18.074,18.074,0,0,1,4.991,2.35S-.89-1.749.446.88C.887,1.754.453,2.183,0,3.107Z"
                data-name="Path 258" id="Path_258" opacity="0.1"
                transform="translate(70.993 9.483)" />
            <path
                d="M0,4.814A4.8,4.8,0,0,0,2.193,8.851a4.41,4.41,0,0,0,.47.267A4.812,4.812,0,1,0,0,4.811Z"
                data-name="Path 259" fill="#efb7b9" id="Path_259"
                transform="translate(69.139 4.077)" />
            <path
                d="M0,7.218s.63.23,1.47.551a7.093,7.093,0,0,1,1.3-1c.491-.179,2.094-1.115,2.05-1.382A2.344,2.344,0,0,1,6.107,3.92c.623-.179.267-1.113.267-1.113s1.2-.445,1.5-1.069S9.093.311,8.78.357A.97.97,0,0,1,8.4.209L6.731,0Z"
                data-name="Path 260" id="Path_260" opacity="0.1"
                transform="translate(70.637 40.747)" />
            <path
                d="M1.712,7.674s2.05,1.693,2.145,2.45,1.464.714,1.464.714,2.8,1.016,3.285.838,1.715.267,1.671,0,7.425,2.339,8.048,2.16,5.939,0,5.939,0,8.152-4.989,8.451-5.613S23.922,4.263,23.61,4.309c-.088.012-8.348-2.433-8.706-2.645-.44-.267-2.754-.356-3.209-.662-.481-.326-.849-.585-.849-.585s-.21-.037-.569-.09C8.337.046,2.021-.67.554,1.663a3.534,3.534,0,0,0-.434,1C-.536,5.148,1.712,7.674,1.712,7.674Z"
                data-name="Path 261" id="Path_261" transform="translate(65.271 38.687)" />
            <path d="M2.983,0A10.571,10.571,0,0,1,.109,1.181C-.671,1.181,2.983,0,2.983,0Z"
                data-name="Path 262" id="Path_262" opacity="0.1"
                transform="translate(66.144 40.959)" />
            <path d="M3.123.026S.006,1.074.006,1.9-.285-.308,3.123.026Z" data-name="Path 263"
                id="Path_263" opacity="0.1" transform="translate(67.402 41.835)" />
            <path d="M.044,0,0,.06A.134.134,0,0,0,.044,0Z" data-name="Path 264" id="Path_264"
                opacity="0.1" transform="translate(77.943 37.141)" />
            <path
                d="M0,1.656l.2.257.114.143.708.892s1.691.543,3.173.894c1.544.365,2.86.524,1.814-.349a2.292,2.292,0,0,1-.456-2.419l-.047-.06s.047.9-.486.918c-.719.023-.728-.219-1.392-.5A4.473,4.473,0,0,1,1.656,0,14.656,14.656,0,0,1,0,1.656Z"
                data-name="Path 265" id="Path_265" opacity="0.1"
                transform="translate(68.32 14.989)" />
            <path
                d="M0,4.34a1.544,1.544,0,0,0,1.147.027C2.528,3.92,4.711,2.846,5.735,3.316a13.753,13.753,0,0,0,5.346.049c.3-.079.477-.176.451-.291a.8.8,0,0,1,.047-.392,7.215,7.215,0,0,1,.814-1.517L12.3.827,11.4,0,10.161,2C8.221,1.724,1.9,1.008.438,3.341A3.539,3.539,0,0,0,0,4.34Z"
                data-name="Path 266" id="Path_266" opacity="0.1"
                transform="translate(65.391 37.005)" />
            <path
                d="M.175,25.238a1.516,1.516,0,0,0,1.915.8c1.381-.445,3.565-1.521,4.588-1.051s5.926.337,5.793-.242,1.2-2.406,1.2-2.406-.73-.134-1.182-2.517c-.067-.348-.127-.743-.178-1.192a15.18,15.18,0,0,1-.078-2.772,6.545,6.545,0,0,1,1.084-3.633A3,3,0,0,0,13.5,8.842c-.56-1.028-2.82-3.876-2.851-5.146A5.172,5.172,0,0,0,9.519,1.2s.047.9-.486.918c-.719.023-.728-.219-1.391-.5C6.667,1.213,5.666.487,5.6,0A4.9,4.9,0,0,0,.625,3.941C-.267,8.084.046,10.356.18,10.847s1.291,6.817.356,9.49A9.21,9.21,0,0,0,.175,25.238Z"
                data-name="Path 267" fill="#a36468" id="Path_267"
                transform="translate(64.314 15.065)" />
            <path
                d="M2.579,6.192a10.482,10.482,0,0,0,2.9,3.164,20.061,20.061,0,0,1,2.339.156c-.067-.348-.134-.743-.178-1.192a15.182,15.182,0,0,1-.078-2.772A1.01,1.01,0,0,1,7.034,4.9C6.811,4.143,4.823.535,4.823.535S.173-.668.012.535,1.42,4.187,2.579,6.192Z"
                data-name="Path 268" id="Path_268" opacity="0.1"
                transform="translate(68.57 26.831)" />
            <path
                d="M4.819.535S7.626,5.845,7.844,6.6a1.024,1.024,0,0,0,.946.757s2.8.668,3.464.758S18.72,8.7,18.72,8.7s1.47.045,1.648-.489c.163-.489,3-3.059,4.647-.817a1.634,1.634,0,0,1,.238,1.46c-.3.962-.922,2.49-1.588,1.54-.936-1.337-2.024-.961-2.024-.249s-1.5.448-1.986.548c-.267.055-1.187.3-1.982.513a14.434,14.434,0,0,1-2.83.469,17.051,17.051,0,0,1-4.73-.123,12.825,12.825,0,0,0-3.475-.485,1.143,1.143,0,0,1-.678-.243A10.572,10.572,0,0,1,3.389,7.894C2.23,5.889-.153,1.738.008.535S4.819.535,4.819.535Z"
                data-name="Path 269" fill="#efb7b9" id="Path_269"
                transform="translate(67.871 24.581)" />
            <path
                d="M4.274.654a35.976,35.976,0,0,1,2.2,4.277c.7,1.782,1.542,4.9,1.542,4.9L3.828,9.342l-.356-.579S.481,10.635.838,11.436A7.007,7.007,0,0,1,.125,7.961C.215,5.689-.2,1.634.125.654S3.289-.1,4.274.654Z"
                data-name="Path 270" id="Path_270" opacity="0.1"
                transform="translate(67.481 17.104)" />
            <path
                d="M.13,7.96a7.006,7.006,0,0,0,.712,3.475c-.357-.8,2.634-2.673,2.634-2.673l.352.579,4.188.491s-.846-3.12-1.542-4.9A27.287,27.287,0,0,0,5.04,1.99C4.611,1.211,4.273.653,4.273.653A4.719,4.719,0,0,0,1.5.009a3.6,3.6,0,0,0-.453.055A1.26,1.26,0,0,0,.178.536.624.624,0,0,0,.124.653C-.2,1.633.215,5.688.13,7.96Z"
                data-name="Path 271" fill="#a36468" id="Path_271"
                transform="translate(67.482 16.838)" />
            <path d="M0,0S1.771,2.439,2.306,2.506C2.3,2.511.029,2,0,0Z" data-name="Path 272"
                id="Path_272" opacity="0.1" transform="translate(65.74 31.018)" />
            <path d="M0,0S3.341,3.375,4.411,3.408,0,0,0,0Z" data-name="Path 273" id="Path_273"
                opacity="0.1" transform="translate(65.74 34.494)" />
            <path d="M0,0S2.139,2.506,2.273,2.506-.037,1.637,0,0Z" data-name="Path 274"
                id="Path_274" opacity="0.1" transform="translate(65.74 35.902)" />
            <path
                d="M0,13.308a2.964,2.964,0,0,0,.981-.329c.115-.06.229-.127.339-.2a8.029,8.029,0,0,0,1.219-1A5.19,5.19,0,0,0,4.022,9.71a3.724,3.724,0,0,0,.126-.577C4.3,8.1,4.172,6.97,4.907,6.271a1.747,1.747,0,0,1,.469-.317c1.043-.5,2.554-.175,3.332-1.069.495-.567.483-1.354.862-1.97a4.139,4.139,0,0,1,.741-.744A4.812,4.812,0,1,0,3.677,8.853c-.029.068-.061.134-.095.2A12.747,12.747,0,0,1,.664,12.57l.2.257A1.309,1.309,0,0,0,0,13.308Z"
                data-name="Path 275" id="Path_275" opacity="0.1"
                transform="translate(67.656 4.065)" />
            <path
                d="M32.944,8.819c-.9,1.037-2.807.433-3.8,1.383-.874.833-.527,2.286-.883,3.439a5.2,5.2,0,0,1-1.482,2.069c-.9.871-2.041,1.756-3.265,1.506-.726-.148-1.437-.691-2.139-.441a2.5,2.5,0,0,0-.859.694,5.922,5.922,0,0,1-3.284,1.7,1.4,1.4,0,0,1-.744-.035c-.374-.152-.576-.561-.917-.779-.668-.428-1.526.011-2.22.393a15.535,15.535,0,0,1-12.762.918l1.081-.535c-.23-.469-.851-.572-1.247-.916-.815-.707-.335-2.121.527-2.769s1.978-.874,2.871-1.48a.745.745,0,0,0,.384-.5.8.8,0,0,0-.146-.446,4.661,4.661,0,0,1-.9-2.7C3.323,8.85,4.928,7.946,6.4,7.843s2.934.341,4.411.366a2.891,2.891,0,0,0,1.553-.319,4.7,4.7,0,0,0,1.351-1.756,7.173,7.173,0,0,1,2.874-2.649c1.337-.675,2.85-.912,4.24-1.47a32.379,32.379,0,0,1,4.2-1.832,8.245,8.245,0,0,1,6.327,1.373C32.25,2.136,35.115,4,35.1,5.2c-.015.708-.936,1.092-1.284,1.648C33.427,7.465,33.439,8.252,32.944,8.819Z"
                data-name="Path 276" id="Path_276" transform="translate(43.152 0)" />
            <g data-name="Group 31" id="Group_31" opacity="0.1" transform="translate(43.153 4.665)">
                <path
                    d="M.769,1.591a.814.814,0,0,1,.146.446A.452.452,0,0,1,.867,2.2,5.636,5.636,0,0,1,0,0,8.5,8.5,0,0,0,.769,1.591Z"
                    data-name="Path 277" id="Path_277" transform="translate(3.154 6.091)" />
                <path
                    d="M.287.37C.682.714,1.3.817,1.534,1.286l-.382.19a4.3,4.3,0,0,1-.731-.437A1.258,1.258,0,0,1,0,0,1.149,1.149,0,0,0,.287.37Z"
                    data-name="Path 278" id="Path_278" transform="translate(0 12.511)" />
                <path
                    d="M12.628,13.414c.694-.382,1.553-.821,2.22-.393.339.218.543.627.917.779a1.4,1.4,0,0,0,.743.035,5.926,5.926,0,0,0,3.285-1.7,2.461,2.461,0,0,1,.859-.694c.7-.25,1.409.293,2.139.441,1.224.25,2.368-.635,3.265-1.506a5.185,5.185,0,0,0,1.481-2.069c.358-1.153.011-2.606.885-3.439,1-.95,2.9-.346,3.8-1.383.493-.567.483-1.354.862-1.97C33.408,1,34.239.627,34.357,0a1.163,1.163,0,0,1,.148.535c-.015.708-.936,1.092-1.284,1.648-.38.616-.369,1.4-.862,1.97-.906,1.037-2.807.433-3.8,1.383-.874.833-.527,2.286-.885,3.439a5.194,5.194,0,0,1-1.481,2.069c-.9.871-2.041,1.756-3.265,1.506-.727-.148-1.438-.691-2.139-.441a2.477,2.477,0,0,0-.859.694,5.927,5.927,0,0,1-3.285,1.7,1.4,1.4,0,0,1-.743-.035c-.374-.152-.577-.561-.917-.779-.668-.428-1.526.011-2.22.393A15.535,15.535,0,0,1,0,15l.747-.37A15.565,15.565,0,0,0,12.628,13.414Z"
                    data-name="Path 279" id="Path_279" transform="translate(0.587 0)" />
            </g>
            <path d="M.468.777,1.592.233V.02A6.26,6.26,0,0,0,0,.273C.5.361.48.7.468.777Z"
                data-name="Path 280" id="Path_280" opacity="0.1"
                transform="translate(88.93 51.983)" />
            <ellipse cx="2.708" cy="3.295" data-name="Ellipse 38" fill="#56e6d2" id="Ellipse_38"
                rx="2.708" ry="3.295" transform="translate(87.667 33.879)" />
            <path d="M18.664,0,14.311,4.293,0,4.043,3.935,0Z" data-name="Path 281" fill="#dda2a6"
                id="Path_281" transform="translate(45.647 32.886)" />
            <path d="M4.353,14.686V0L0,4.293V18.664Z" data-name="Path 282" fill="#b77b7f"
                id="Path_282" transform="translate(59.958 32.886)" />
            <path d="M0,0V14.621H14.311V.25Z" data-name="Path 283" fill="#dda2a6" id="Path_283"
                transform="translate(45.647 36.929)" />
            <path d="M0,0V14.621H14.311V.25Z" data-name="Path 284" fill="#fff" id="Path_284"
                opacity="0.3" transform="translate(45.647 36.929)" />
            <path d="M12.031,1.827,1.387,0,0,6.988,10.957,9Z" data-name="Path 285" fill="#dce0ed"
                id="Path_285" transform="translate(46.765 39.376)" />
            <path d="M7.334,1.124.179,0,0,.933,7.155,2.147Z" data-name="Path 286" fill="#e5b826"
                id="Path_286" transform="translate(49.359 41.711)" />
            <path d="M4.249.591.179,0,0,1.036l4.249.6Z" data-name="Path 287" fill="#e5b826"
                id="Path_287" transform="translate(50.476 44.24)" />
            <path d="M1.313,5.782,1.119,0,0,1.1.2,6.9Z" data-name="Path 288" fill="#65617d"
                id="Path_288" transform="translate(61.239 34.812)" />
            <path d="M.912,0,14.664.186l.462.261-1.119,1.1-.386-.227L0,.937Z" data-name="Path 289"
                fill="#65617d" id="Path_289" transform="translate(47.231 34.365)" />
        </g>
        <path d="M709.095,2102.6s34.376,43.722,118.961,95.8" data-name="Path 678" fill="none"
            id="Path_678" opacity="0.3" stroke="#707070" stroke-dasharray="5" stroke-width="2"
            transform="matrix(0.839, -0.545, 0.545, 0.839, -1586.116, -1042.569)" />
    </g>
</svg>
