<svg height="40.353" viewBox="0 0 48.096 40.353" width="48.096" xmlns="http://www.w3.org/2000/svg">
  <g id="undraw_on_the_way_ldaq" transform="translate(-22.3 0.847) rotate(-1)">
    <path d="M0,.053" data-name="Path 1336" fill="none" id="Path_1336" stroke="#565987"
        stroke-width="1" transform="translate(21.708 34.016)" />
    <path
        d="M.491,0A.352.352,0,0,0,.447.09C.063.541-.142.962.227.973c.344.01.757.625.856.78,0,.012-.008.023-.012.036S.587.984.194.973.061.484.491,0Z"
        data-name="Path 221" id="Path_221" opacity="0.1" transform="translate(25.762 33.025)" />
    <ellipse cx="20.883" cy="0.947" data-name="Ellipse 30" fill="#6c63ff" id="Ellipse_30"
        opacity="0.1" rx="20.883" ry="0.947" transform="translate(27.942 38.106)" />
    <path
        d="M2.285.254S3.616,2.772,3.72,3.132a.486.486,0,0,0,.449.359s1.326.317,1.643.359,3.065.275,3.065.275.7.022.782-.232c.077-.232,1.424-1.451,2.2-.387a.776.776,0,0,1,.113.692c-.143.456-.437,1.181-.753.73-.444-.634-.96-.456-.96-.118s-.71.212-.942.26c-.127.026-.563.142-.94.243a6.848,6.848,0,0,1-1.339.223A8.088,8.088,0,0,1,4.8,5.477a6.09,6.09,0,0,0-1.648-.23.542.542,0,0,1-.321-.115,5.014,5.014,0,0,1-1.22-1.388C1.058,2.793-.072.824,0,.254S2.285.254,2.285.254Z"
        data-name="Path 226" fill="#efb7b9" id="Path_226" transform="translate(45.067 11.274)" />
    <path
        d="M2.285.254S3.616,2.772,3.72,3.132a.486.486,0,0,0,.449.359s1.326.317,1.643.359,3.065.275,3.065.275.7.022.782-.232c.077-.232,1.424-1.451,2.2-.387a.776.776,0,0,1,.113.692c-.143.456-.437,1.181-.753.73-.444-.634-.96-.456-.96-.118s-.71.212-.942.26c-.127.026-.563.142-.94.243a6.848,6.848,0,0,1-1.339.223A8.088,8.088,0,0,1,4.8,5.477a6.09,6.09,0,0,0-1.648-.23.542.542,0,0,1-.321-.115,5.014,5.014,0,0,1-1.22-1.388C1.058,2.793-.072.824,0,.254S2.285.254,2.285.254Z"
        data-name="Path 227" id="Path_227" opacity="0.05" transform="translate(45.067 11.274)" />
    <path
        d="M4.639,11.411c-.6.655-1.047.914-1.026.222C3.677,9.541,0,.082,0,.082L1.087,0A28.164,28.164,0,0,1,4.639,11.411Z"
        data-name="Path 228" fill="none" id="Path_228" transform="translate(57.65 18.742)" />
    <path
        d="M10.46,5.234A5.23,5.23,0,0,1,.02,5.678C.012,5.593.006,5.508,0,5.425v0q0-.095,0-.19a5.23,5.23,0,0,1,10.46,0Z"
        data-name="Path 229" id="Path_229" transform="translate(56.696 29.095)" />
    <ellipse cx="2.853" cy="2.853" data-name="Ellipse 31" fill="#dce0ed" id="Ellipse_31" rx="2.853"
        ry="2.853" transform="translate(59.073 31.473)" />
    <ellipse cx="1.712" cy="1.712" data-name="Ellipse 32" fill="#65617d" id="Ellipse_32" rx="1.712"
        ry="1.712" transform="translate(60.215 32.615)" />
    <path
        d="M12.594,3.841,0,4.095V2.238C.113.744,1.648.22,3.043.056A8.734,8.734,0,0,1,6.3.3a22.319,22.319,0,0,0,5.213.858.8.8,0,0,1,.773.65c.04.212.079.444.116.672.028.179.055.355.079.519C12.548,3.472,12.594,3.841,12.594,3.841Z"
        data-name="Path 230" fill="#65617d" id="Path_230" transform="translate(36.674 21.04)" />
    <path
        d="M27.183,16.311H1.021a1.03,1.03,0,0,1-.954-.617.716.716,0,0,1,.373-.948,2.964,2.964,0,0,0,1.288-1.576,15.688,15.688,0,0,0,.659-4.128c.11-2.084.865-3.114,1.68-3.614h0a3.326,3.326,0,0,1,2.207-.4l10.608.085a2.038,2.038,0,0,1,.518.338c.945.88-.433,2.029-.433,2.029a4.975,4.975,0,0,0-.719,6.3h5.428a5,5,0,0,0,2.843-.87,2.864,2.864,0,0,0,1.127-1.294c.084-.227.169-.453.27-.673,1.424-3.088-.294-8.111-1.035-9.99-.184-.467-.307-.74-.307-.74l1.7-.127L27.353,0h.011a28.185,28.185,0,0,1,3.55,11.411c.028.294.051.578.069.851a3.8,3.8,0,0,1-3.8,4.049Z"
        data-name="Path 231" fill="#25b6c7" id="Path_231" transform="translate(31.813 18.353)" />
    <path d="M12.479.519H0V0H12.4C12.428.176,12.454.352,12.479.519Z" data-name="Path 232"
        id="Path_232" opacity="0.1" transform="translate(36.676 23.509)" />
    <path
        d="M13.333.467H.1A.254.254,0,0,1,0,.447a3.326,3.326,0,0,1,2.207-.4L12.815.129A2.04,2.04,0,0,1,13.333.467Z"
        data-name="Path 233" id="Path_233" opacity="0.1" transform="translate(36.207 23.807)" />
    <rect data-name="Rectangle 66" fill="#dce0ed" height="0.519" id="Rectangle_66" rx="0.26"
        transform="translate(31.574 23.629)" width="18.492" />
    <path
        d="M4.639,11.411c-.6.655-1.047.914-1.026.222C3.677,9.541,0,.082,0,.082L1.087,0A28.164,28.164,0,0,1,4.639,11.411Z"
        data-name="Path 234" id="Path_234" opacity="0.1" transform="translate(57.65 18.742)" />
    <path
        d="M10.424,4.652c-.624.15-1.395.3-2.346.444q-.531.078-1.141.15c-.972.115-2.1.216-3.394.294q-.552.033-1.146.06Q1.285,5.65.016,5.676L0,5.423v0C1.182,4.941,3.043,3.667,3.342.35a5.233,5.233,0,0,1,7.082,4.307Z"
        data-name="Path 235" id="Path_235" opacity="0.1" transform="translate(56.701 29.101)" />
    <path
        d="M0,9.8S6,9.147,3.936,0c0,0,2.966,2.72,4.812,4.231s5.135,3.6,5.135,3.6S11.918,9.661,0,9.8Z"
        data-name="Path 236" fill="#3ed3cd" id="Path_236" transform="translate(55.714 24.865)" />
    <path
        d="M0,9.8S6,9.147,3.936,0c0,0,2.966,2.72,4.812,4.231s5.135,3.6,5.135,3.6S11.918,9.661,0,9.8Z"
        data-name="Path 237" fill="#fff" id="Path_237" opacity="0.1"
        transform="translate(55.714 25.249)" />
    <ellipse cx="5.23" cy="5.23" data-name="Ellipse 33" id="Ellipse_33" rx="5.23" ry="5.23"
        transform="translate(35.619 29.096)" />
    <ellipse cx="2.853" cy="2.853" data-name="Ellipse 34" fill="#dce0ed" id="Ellipse_34" rx="2.853"
        ry="2.853" transform="translate(37.97 31.473)" />
    <ellipse cx="1.712" cy="1.712" data-name="Ellipse 35" fill="#65617d" id="Ellipse_35" rx="1.712"
        ry="1.712" transform="translate(39.101 32.615)" />
    <path
        d="M11.982,6.115A6.054,6.054,0,0,0,5.991,0,6.054,6.054,0,0,0,0,6.115q0,.214.015.424H11.967Q11.982,6.329,11.982,6.115Z"
        data-name="Path 238" id="Path_238" opacity="0.1" transform="translate(34.747 26.872)" />
    <path
        d="M11.538,5.889A5.83,5.83,0,0,0,5.769,0,5.83,5.83,0,0,0,0,5.889c0,.138.005.273.014.408h11.51C11.533,6.162,11.538,6.026,11.538,5.889Z"
        data-name="Path 239" fill="#3ed3cd" id="Path_239" transform="translate(34.966 26.995)" />
    <path
        d="M11.538,5.889c0,.094,0,.19-.007.281,0,.042,0,.084-.007.127H.014c0-.042-.005-.084-.007-.127C0,6.077,0,5.98,0,5.889A5.83,5.83,0,0,1,5.769,0,5.83,5.83,0,0,1,11.538,5.889Z"
        data-name="Path 240" fill="#3ed3cd" id="Path_240" opacity="0.1"
        transform="translate(33.87 27.367)" />
    <path d="M11.524,0c0,.042,0,.084-.007.127H.007C.007.084,0,.042,0,0Z" data-name="Path 241"
        id="Path_241" opacity="0.1" transform="translate(34.973 32.935)" />
    <rect data-name="Rectangle 67" height="1.352" id="Rectangle_67" opacity="0.1" rx="0.676"
        transform="translate(32.501 33.185)" width="15.499" />
    <rect data-name="Rectangle 68" fill="#dce0ed" height="1.352" id="Rectangle_68" rx="0.676"
        transform="translate(32.501 33.058)" width="15.499" />
    <ellipse cx="0.759" cy="1.912" data-name="Ellipse 36" id="Ellipse_36" opacity="0.1" rx="0.759"
        ry="1.912" transform="translate(58.992 21.558) rotate(-24.33)" />
    <ellipse cx="0.759" cy="1.912" data-name="Ellipse 37" fill="#dce0ed" id="Ellipse_37" rx="0.759"
        ry="1.912" transform="translate(59.053 21.496) rotate(-24.33)" />
    <path d="M2.779,0V.993H.845A3.33,3.33,0,0,1,.307.95C.124.483,0,.21,0,.21L1.7.084Z"
        data-name="Path 242" id="Path_242" opacity="0.1" transform="translate(56.077 18.958)" />
    <path d="M5.008,5.939H3.075A2.962,2.962,0,0,1,0,3.1V2.838A2.963,2.963,0,0,1,3.075,0L5.008.176Z"
        data-name="Path 243" fill="#25b6c7" id="Path_243" transform="translate(53.87 13.973)" />
    <path
        d="M2.076.063a1.157,1.157,0,0,1,.491,1.664A2.506,2.506,0,0,1,.467,2.94L0,.063A9.72,9.72,0,0,1,2.076.063Z"
        data-name="Path 244" fill="#3ed3cd" id="Path_244" transform="translate(53.693 15.577)" />
    <path
        d="M1.631.008a1.23,1.23,0,0,1,.941.5,1.013,1.013,0,0,1,0,1.224A2.506,2.506,0,0,1,.467,2.94L0,.064A13.635,13.635,0,0,1,1.631.008Z"
        data-name="Path 245" fill="#25b6c7" id="Path_245" opacity="0.1"
        transform="translate(53.893 15.577)" />
    <path d="M0,0H.373a1.18,1.18,0,0,1,1.18,1.18v3.4a1.18,1.18,0,0,1-1.18,1.18H0Z"
        data-name="Path 246" id="Path_246" opacity="0.1" transform="translate(58.724 14.145)" />
    <path d="M0,0H.373a1.18,1.18,0,0,1,1.18,1.18v3.4a1.18,1.18,0,0,1-1.18,1.18H0Z"
        data-name="Path 247" fill="#dce0ed" id="Path_247" transform="translate(58.785 14.145)" />
    <path
        d="M0,2.892s.3.109.7.261a15.79,15.79,0,0,1,1.838.8,14,14,0,0,0,2.336.742,7.61,7.61,0,0,0,1.969.243c.674-.006,1.492-.013,1.717-.013a.707.707,0,0,1,.118.009c.237.039.228.2.222.236v.008C7.5,6.019,5.813,9.8,5.707,10.436a13.528,13.528,0,0,1-1.12,2.424c-.115.211-.19.345-.19.345l.423.486,1.225.55,1.162.507a8.187,8.187,0,0,0,1.247,0c.021-.063.021-.718.021-.718a3.466,3.466,0,0,1-.423-.322,7.015,7.015,0,0,1-.781-.8c-.676-.8.676-2.346.676-2.346l2.6-3.381s.211-.38,1.225-1.9,0-2.346,0-2.346L9.987,2.193C6.891,1.035,3.156.106,3.156.106L3.1.1,2.311,0Z"
        data-name="Path 248" fill="#efb7b9" id="Path_248" transform="translate(45.315 18.288)" />
    <path
        d="M3.966,1.3s.222.262.056.285a2.761,2.761,0,0,1-.6-.071L.653.055S.352-.16.281.261.162.641.162.641s-.365.784,0,.946,2.554.8,2.554.8,3.178.721,3.479-.111-.539-.689-.539-.689a2.929,2.929,0,0,1-1.4-.761S3.736.974,3.966,1.3Z"
        data-name="Path 249" fill="#444053" id="Path_249" transform="translate(49.323 31.102)" />
    <path
        d="M11.77,2.935,9.985,2.193C6.888,1.035,3.154.106,3.154.106L3.1.1,2.309,0,0,2.892s.3.109.7.261a15.8,15.8,0,0,1,1.838.8,13.993,13.993,0,0,0,2.336.742,7.609,7.609,0,0,0,1.969.243c.674-.006,1.492-.013,1.717-.013a.708.708,0,0,1,.118.009c.237.039.228.2.222.236v.008C7.5,6.019,5.813,9.8,5.707,10.436a13.531,13.531,0,0,1-1.12,2.424l-.046.085c-.092-.015-.207.018-.247.257-.072.42-.119.38-.119.38s-.365.784,0,.946,2.552.8,2.552.8,3.178.721,3.479-.111-.539-.689-.539-.689a2.929,2.929,0,0,1-1.4-.761.7.7,0,0,0-.093.034c-.037-.03-.077-.063-.12-.1a7.008,7.008,0,0,1-.781-.8c-.676-.8.676-2.346.676-2.346l2.6-3.381s.211-.38,1.225-1.9S11.77,2.935,11.77,2.935Z"
        data-name="Path 250" id="Path_250" opacity="0.05" transform="translate(45.315 18.26)" />
    <path
        d="M0,3.4l.1.122.054.068.336.423s.8.257,1.505.424c.732.173,1.357.249.86-.165A1.087,1.087,0,0,1,2.635,3.12a4.747,4.747,0,0,1,.4-1.021l.074-.141a8.452,8.452,0,0,1,.522-.844,15.008,15.008,0,0,0-1.4-.86c-.581-.3-1.057-.432-.755.163a1.391,1.391,0,0,1-.051,1.217c-.014.032-.029.063-.045.1a4.361,4.361,0,0,1-.6.881A6.954,6.954,0,0,1,0,3.4Z"
        data-name="Path 251" fill="#efb7b9" id="Path_251" transform="translate(43.501 4.498)" />
    <path d="M.613,0l.43.392.415,1.6H.765L0,.995Z" data-name="Path 252" fill="#444053" id="Path_252"
        transform="translate(46.813 17.025)" />
    <path d="M0,.995l.463.6.3.394h.693l-.071-.273L1.085.553,1.043.392.613,0,.026.952Z"
        data-name="Path 253" id="Path_253" opacity="0.1" transform="translate(46.813 17.025)" />
    <path d="M0,.995l.463.6.3.394h.693l-.071-.273L1.085.553,1.043.392.613,0,.026.952Z"
        data-name="Path 254" id="Path_254" opacity="0.1" transform="translate(46.813 17.025)" />
    <path
        d="M0,3.423s.3.109.7.261a15.8,15.8,0,0,1,1.838.8,14,14,0,0,0,2.336.742,7.609,7.609,0,0,0,1.969.243c.674-.006,1.492-.013,1.717-.013a.708.708,0,0,1,.118.009c.237.039.228.2.222.236v.008c-1.395.845-3.085,4.628-3.191,5.262a13.534,13.534,0,0,1-1.12,2.424c-.115.211-.19.345-.19.345l.423.486,1.225.549,1.162.507a8.192,8.192,0,0,0,1.247,0c.021-.063.021-.718.021-.718a3.455,3.455,0,0,1-.424-.322,7,7,0,0,1-.781-.8c-.676-.8.676-2.346.676-2.346l2.6-3.381s.211-.38,1.225-1.9,0-2.346,0-2.346l-1.627-.93A25.93,25.93,0,0,0,4.038.106L3.984.1,3.193,0Z"
        data-name="Path 255" fill="#efb7b9" id="Path_255" transform="translate(44.337 18.448)" />
    <path
        d="M0,.346.423.832l1.225.55,1.162.507a8.19,8.19,0,0,0,1.247,0c.021-.063.021-.718.021-.718A3.458,3.458,0,0,1,3.655.848c-.131.07-.28.2-.136.406,0,0,.222.261.056.285a2.721,2.721,0,0,1-.6-.071L.206.011.19,0Z"
        data-name="Path 256" id="Path_256" opacity="0.1" transform="translate(48.765 31.736)" />
    <path
        d="M3.966,1.3s.222.261.055.285a2.7,2.7,0,0,1-.6-.072L.653.054S.352-.159.281.26.162.641.162.641s-.365.785,0,.947,2.552.8,2.552.8,3.177.721,3.478-.111-.539-.69-.539-.69a2.925,2.925,0,0,1-1.4-.761S3.736.974,3.966,1.3Z"
        data-name="Path 257" fill="#444053" id="Path_257" transform="translate(48.338 31.623)" />
    <path
        d="M0,1.474a2.939,2.939,0,0,0,1.4.655A2.339,2.339,0,0,0,1.771,2.1a8.573,8.573,0,0,1,.6-.985S-.422-.83.212.417C.421.832.215,1.035,0,1.474Z"
        data-name="Path 258" id="Path_258" opacity="0.1" transform="translate(44.744 4.498)" />
    <path
        d="M0,2.283A2.278,2.278,0,0,0,1.04,4.2a2.091,2.091,0,0,0,.223.127A2.282,2.282,0,1,0,0,2.282Z"
        data-name="Path 259" fill="#efb7b9" id="Path_259" transform="translate(43.855 1.934)" />
    <path
        d="M0,3.423s.3.109.7.261a3.364,3.364,0,0,1,.614-.472c.233-.085.993-.529.972-.656a1.112,1.112,0,0,1,.612-.7c.3-.085.127-.528.127-.528s.571-.211.713-.507.577-.676.429-.655A.46.46,0,0,1,3.984.1L3.193,0Z"
        data-name="Path 260" id="Path_260" opacity="0.1" transform="translate(44.544 18.72)" />
    <path
        d="M.812,3.64s.972.8,1.017,1.162.694.339.694.339a6.168,6.168,0,0,0,1.558.4c.232-.084.814.127.793,0S8.4,6.647,8.691,6.562s2.817,0,2.817,0A45.865,45.865,0,0,0,15.517,3.9c.142-.3-4.17-1.878-4.319-1.856C11.156,2.049,7.239.89,7.069.789,6.86.662,5.762.62,5.547.475S5.144.2,5.144.2s-.1-.018-.27-.042C3.954.022.958-.318.263.789a1.676,1.676,0,0,0-.206.474A3.016,3.016,0,0,0,.812,3.64Z"
        data-name="Path 261" id="Path_261" transform="translate(41.817 17.726)" />
    <path d="M1.415,0A5.014,5.014,0,0,1,.052.56C-.318.56,1.415,0,1.415,0Z" data-name="Path 262"
        id="Path_262" opacity="0.1" transform="translate(42.551 18.864)" />
    <path d="M1.481.012S0,.509,0,.9-.135-.146,1.481.012Z" data-name="Path 263" id="Path_263"
        opacity="0.1" transform="translate(43.123 19.262)" />
    <path d="M.021,0,0,.029A.063.063,0,0,0,.021,0Z" data-name="Path 264" id="Path_264" opacity="0.1"
        transform="translate(47.961 17.113)" />
    <path
        d="M0,.785.1.907.15.975.486,1.4s.8.257,1.505.424c.732.173,1.357.249.86-.165A1.087,1.087,0,0,1,2.635.509L2.613.481s.022.427-.231.436c-.341.011-.346-.1-.66-.236A2.122,2.122,0,0,1,.785,0,6.952,6.952,0,0,1,0,.785Z"
        data-name="Path 265" id="Path_265" opacity="0.1" transform="translate(43.513 6.896)" />
    <path
        d="M0,2.058a.732.732,0,0,0,.544.013c.655-.212,1.691-.721,2.176-.5A6.523,6.523,0,0,0,5.256,1.6c.144-.037.226-.084.214-.138a.38.38,0,0,1,.022-.186,3.422,3.422,0,0,1,.386-.72L5.836.392,5.406,0,4.819.951C3.9.818.9.478.208,1.585A1.678,1.678,0,0,0,0,2.058Z"
        data-name="Path 266" id="Path_266" opacity="0.1" transform="translate(42.124 17.023)" />
    <path
        d="M.083,11.97a.719.719,0,0,0,.908.38c.655-.211,1.691-.721,2.176-.5s2.811.16,2.748-.115.571-1.141.571-1.141-.346-.063-.56-1.194c-.032-.165-.06-.352-.084-.565A7.2,7.2,0,0,1,5.8,7.523,3.1,3.1,0,0,1,6.319,5.8,1.422,1.422,0,0,0,6.4,4.194c-.266-.488-1.338-1.838-1.352-2.441A2.453,2.453,0,0,0,4.515.571s.022.427-.231.436c-.341.011-.346-.1-.66-.236C3.162.575,2.687.231,2.656,0A2.323,2.323,0,0,0,.3,1.869,8.15,8.15,0,0,0,.085,5.145c.063.233.612,3.233.169,4.5A4.368,4.368,0,0,0,.083,11.97Z"
        data-name="Path 267" fill="#a36468" id="Path_267" transform="translate(41.62 6.853)" />
    <path
        d="M1.223,2.937A4.971,4.971,0,0,0,2.6,4.438a9.515,9.515,0,0,1,1.109.074c-.032-.165-.063-.352-.084-.565a7.2,7.2,0,0,1-.037-1.315.479.479,0,0,1-.248-.307C3.23,1.965,2.288.254,2.288.254S.082-.317.006.254.674,1.986,1.223,2.937Z"
        data-name="Path 268" id="Path_268" opacity="0.1" transform="translate(43.614 12.318)" />
    <path
        d="M2.286.254S3.617,2.772,3.72,3.132a.486.486,0,0,0,.449.359s1.326.317,1.643.359,3.066.275,3.066.275.7.022.782-.232c.077-.232,1.424-1.451,2.2-.387a.775.775,0,0,1,.113.692c-.143.456-.437,1.181-.753.73-.444-.634-.96-.456-.96-.118s-.71.212-.942.26c-.127.026-.563.142-.94.243a6.846,6.846,0,0,1-1.342.223A8.088,8.088,0,0,1,4.8,5.477a6.083,6.083,0,0,0-1.648-.23.542.542,0,0,1-.321-.115,5.014,5.014,0,0,1-1.22-1.388C1.058,2.793-.072.824,0,.254S2.286.254,2.286.254Z"
        data-name="Path 269" fill="#efb7b9" id="Path_269" transform="translate(43.096 11.274)" />
    <path
        d="M2.027.31A17.064,17.064,0,0,1,3.071,2.339c.33.845.732,2.325.732,2.325L1.815,4.431l-.169-.274S.228,5.044.4,5.424A3.323,3.323,0,0,1,.059,3.776C.1,2.7-.093.775.059.31S1.56-.049,2.027.31Z"
        data-name="Path 270" id="Path_270" opacity="0.1" transform="translate(43.116 7.845)" />
    <path
        d="M.062,3.776A3.323,3.323,0,0,0,.4,5.424C.23,5.043,1.649,4.156,1.649,4.156l.167.275L3.8,4.663s-.4-1.48-.732-2.325A12.942,12.942,0,0,0,2.391.944C2.187.574,2.027.31,2.027.31A2.238,2.238,0,0,0,.711,0,1.706,1.706,0,0,0,.5.03.6.6,0,0,0,.084.254.3.3,0,0,0,.059.31C-.093.774.1,2.7.062,3.776Z"
        data-name="Path 271" fill="#a36468" id="Path_271" transform="translate(43.116 7.723)" />
    <path d="M0,0S.84,1.157,1.094,1.189C1.092,1.191.014.951,0,0Z" data-name="Path 272" id="Path_272"
        opacity="0.1" transform="translate(42.372 14.279)" />
    <path d="M0,0S1.585,1.6,2.092,1.617,0,0,0,0Z" data-name="Path 273" id="Path_273" opacity="0.1"
        transform="translate(42.354 15.874)" />
    <path d="M0,0S1.015,1.189,1.078,1.189-.018.777,0,0Z" data-name="Path 274" id="Path_274"
        opacity="0.1" transform="translate(42.372 16.528)" />
    <path
        d="M0,6.312a1.406,1.406,0,0,0,.465-.156c.054-.029.108-.06.161-.094A3.808,3.808,0,0,0,1.2,5.587a2.461,2.461,0,0,0,.7-.981,1.766,1.766,0,0,0,.06-.274c.072-.487.011-1.026.36-1.357a.829.829,0,0,1,.223-.15c.494-.235,1.211-.083,1.58-.507.235-.269.229-.642.409-.934a1.963,1.963,0,0,1,.351-.353A2.282,2.282,0,1,0,1.744,4.2c-.014.032-.029.063-.045.1A6.046,6.046,0,0,1,.315,5.962l.1.122A.621.621,0,0,0,0,6.312Z"
        data-name="Path 275" id="Path_275" opacity="0.1" transform="translate(43.173 1.928)" />
    <path
        d="M15.625,4.183c-.429.492-1.331.205-1.8.656-.415.395-.25,1.084-.419,1.631a2.466,2.466,0,0,1-.7.981,1.869,1.869,0,0,1-1.549.714c-.344-.07-.681-.328-1.014-.209a1.186,1.186,0,0,0-.408.329,2.809,2.809,0,0,1-1.558.806.666.666,0,0,1-.353-.016c-.178-.072-.273-.266-.435-.37-.317-.2-.724.005-1.053.186a7.368,7.368,0,0,1-6.053.436l.513-.254C.681,8.851.387,8.8.2,8.639-.188,8.3.04,7.633.449,7.326s.938-.415,1.362-.7a.353.353,0,0,0,.182-.239.38.38,0,0,0-.069-.212A2.211,2.211,0,0,1,1.5,4.895,1.564,1.564,0,0,1,3.037,3.72c.7-.049,1.392.162,2.092.174a1.371,1.371,0,0,0,.737-.152,2.229,2.229,0,0,0,.641-.833A3.4,3.4,0,0,1,7.869,1.653c.634-.32,1.352-.432,2.011-.7A15.357,15.357,0,0,1,11.87.086a3.91,3.91,0,0,1,3,.651c.425.276,1.784,1.161,1.775,1.727-.007.336-.444.518-.609.782C15.854,3.541,15.86,3.914,15.625,4.183Z"
        data-name="Path 276" id="Path_276" transform="translate(31.875 0)" />
    <g data-name="Group 31" id="Group_31" opacity="0.1" transform="translate(31.876 2.213)">
      <path
          d="M.365.754A.386.386,0,0,1,.434.966a.215.215,0,0,1-.022.077A2.673,2.673,0,0,1,0,0,4.033,4.033,0,0,0,.365.754Z"
          data-name="Path 277" id="Path_277" transform="translate(1.496 2.889)" />
      <path
          d="M.136.176C.323.338.618.387.728.61L.546.7A2.037,2.037,0,0,1,.2.493.6.6,0,0,1,0,0,.545.545,0,0,0,.136.176Z"
          data-name="Path 278" id="Path_278" transform="translate(0 5.934)" />
      <path
          d="M5.99,6.362c.329-.181.737-.389,1.053-.186.161.1.257.3.435.37a.664.664,0,0,0,.352.016,2.811,2.811,0,0,0,1.558-.806A1.167,1.167,0,0,1,9.8,5.427c.331-.119.668.139,1.014.209a1.87,1.87,0,0,0,1.549-.714,2.459,2.459,0,0,0,.7-.981c.17-.547.005-1.236.42-1.631.474-.451,1.374-.164,1.8-.656.234-.269.229-.642.409-.934C15.845.472,16.24.3,16.3,0a.552.552,0,0,1,.07.254c-.007.336-.444.518-.609.782-.18.292-.175.666-.409.934-.43.492-1.331.205-1.8.656-.415.395-.25,1.084-.42,1.631a2.463,2.463,0,0,1-.7.981,1.87,1.87,0,0,1-1.549.714c-.345-.07-.682-.328-1.014-.209a1.175,1.175,0,0,0-.408.329,2.811,2.811,0,0,1-1.558.806.664.664,0,0,1-.352-.016c-.177-.072-.274-.266-.435-.37-.317-.2-.724.005-1.053.186A7.368,7.368,0,0,1,0,7.114l.354-.176A7.382,7.382,0,0,0,5.99,6.362Z"
          data-name="Path 279" id="Path_279" transform="translate(0.278 0)" />
    </g>
    <path d="M.222.368.755.11V.01A2.969,2.969,0,0,0,0,.129C.237.171.228.33.222.368Z"
        data-name="Path 280" id="Path_280" opacity="0.1" transform="translate(52.959 23.945)" />
    <ellipse cx="1.284" cy="1.563" data-name="Ellipse 38" fill="#56e6d2" id="Ellipse_38" rx="1.284"
        ry="1.563" transform="translate(52.336 15.572)" />
    <path d="M8.852,0,6.788,2.036,0,1.918,1.866,0Z" data-name="Path 281" fill="#dda2a6"
        id="Path_281" transform="translate(33.12 15.129)" />
    <path d="M2.065,6.966V0L0,2.036V8.852Z" data-name="Path 282" fill="#b77b7f" id="Path_282"
        transform="translate(39.72 15.03)" />
    <path d="M0,0V6.935H6.788V.119Z" data-name="Path 283" fill="#dda2a6" id="Path_283"
        transform="translate(33.146 16.914)" />
    <path d="M0,0V6.935H6.788V.119Z" data-name="Path 284" fill="#fff" id="Path_284" opacity="0.3"
        transform="translate(33.146 16.914)" />
    <path d="M5.706.867.658,0,0,3.314l5.2.955Z" data-name="Path 285" fill="#dce0ed" id="Path_285"
        transform="translate(33.666 18.081)" />
    <path d="M3.478.533.085,0,0,.442l3.394.576Z" data-name="Path 286" fill="#e5b826" id="Path_286"
        transform="translate(34.872 19.204)" />
    <path d="M2.015.28.085,0,0,.491,2.015.774Z" data-name="Path 287" fill="#e5b826" id="Path_287"
        transform="translate(35.399 20.372)" />
    <path d="M.623,2.742.531,0,0,.524.093,3.272Z" data-name="Path 288" fill="#65617d" id="Path_288"
        transform="translate(40.326 15.999)" />
    <path d="M.432,0,6.955.088l.219.124L6.644.735,6.461.628,0,.444Z" data-name="Path 289"
        fill="#65617d" id="Path_289" transform="translate(33.86 15.825)" />
  </g>
</svg>
