<svg height="10.819" viewBox="0 0 16.023 10.819" width="16.023" xmlns="http://www.w3.org/2000/svg">
    <path
        d="M15.2,7.333a.443.443,0,0,0,.261-.626q-.02-.039-.042-.077L15.4,6.607l-.031-.052-.018-.029-.029-.044L15.3,6.451l-.028-.04-.024-.032-.028-.036L15.2,6.311l-.028-.034-.028-.032-.029-.032-.029-.031-.029-.03-.031-.03-.03-.028-.033-.03-.03-.027L14.9,6.009l-.031-.025-.035-.028L14.8,5.932l-.037-.027-.032-.022-.038-.026-.033-.021-.039-.024-.033-.019-.04-.023-.033-.018-.042-.022-.033-.016-.043-.021-.032-.014-.046-.02L14.3,5.653l-.1-.039L14.159,5.6l-.041-.013-.041-.013-.04-.011-.043-.012-.04-.01-.044-.01-.04-.008-.046-.009-.04-.007L13.736,5.5l-.04-.005-.047-.006-.04,0-.048,0-.04,0-.049,0h-.181l-.041,0H13.23l-.418-.733a.228.228,0,0,0-.4.226l.4.7A4.569,4.569,0,0,0,11.342,8.88a1.773,1.773,0,0,1-.425.044H6.866V8.566a2.553,2.553,0,0,0-2.55-2.55H2.843a2.846,2.846,0,0,0-.851.13.228.228,0,1,0,.136.435,2.389,2.389,0,0,1,.715-.109H4.315A2.1,2.1,0,0,1,6.41,8.566v.358H.521a.065.065,0,0,1-.065-.065,2.387,2.387,0,0,1,.827-1.806.228.228,0,0,0-.3-.345,2.838,2.838,0,0,0-.341.351A3.716,3.716,0,0,1,4.166,4.512H7.735L7.269,5.78a2,2,0,0,0,.22,1.805,1.928,1.928,0,0,0,1.548.863h1.314a.96.96,0,0,0,.94-.769,8.938,8.938,0,0,0-.509-4.63h.541l.558.981a.228.228,0,0,0,.4-.226l-.43-.755h.486a.4.4,0,0,0,.4-.4V1.576a.4.4,0,0,0-.5-.391l-1.928.485.051-.013-.075-.091a.25.25,0,0,0,.05-.071.254.254,0,0,0-.034-.267L9.818.643A.4.4,0,0,0,9.507.5l-1,.01a.356.356,0,0,0-.354.356V1.1a.55.55,0,0,0,.55.549l1.043-.008.231.281a.515.515,0,0,0-.062.245v.4l-.97.183a.231.231,0,0,0,.043.459.225.225,0,0,0,.043,0l1.088-.2a.378.378,0,0,0,.177.044h0a8.713,8.713,0,0,1,.551,4.518l0,.017a.5.5,0,0,1-.494.408h-1.3A1.477,1.477,0,0,1,7.867,7.33,1.527,1.527,0,0,1,7.7,5.937l.511-1.393h.106a.252.252,0,0,0,.246-.3,2.239,2.239,0,0,0-.3-.743,1.291,1.291,0,0,0-1.113-.63H5.65A.382.382,0,0,0,5.3,3.1,2.335,2.335,0,0,0,3.22,1.125V.886a.228.228,0,0,0-.456,0v.239a2.333,2.333,0,0,0-2.1,2.22.461.461,0,0,0-.4.457v.249a.461.461,0,0,0,.461.461h.731v.552A4.157,4.157,0,0,0,0,8.221v.638a.522.522,0,0,0,.521.521h.806a2.245,2.245,0,0,0,4.448,0h5.142a2.106,2.106,0,0,0,.626-.085A2.245,2.245,0,1,0,15.2,7.333ZM11.876,1.745l.405-.1v.951h-.405ZM8.7,1.194A.093.093,0,0,1,8.61,1.1V.963L9.484.955l.192.233Zm1.67,1.4V2.169a.059.059,0,0,1,.045-.058l1-.252v.735ZM5.724,4.051V3.325H7.146a.985.985,0,0,1,.886.73H5.724Zm-3.816.671v-.21h.364A4.149,4.149,0,0,0,1.908,4.722ZM2.992,1.57A1.876,1.876,0,0,1,4.863,3.341H1.121A1.876,1.876,0,0,1,2.992,1.57ZM.721,4.055a0,0,0,0,1,0,0V3.8a0,0,0,0,1,0,0H5.263a0,0,0,0,1,0,0v.249a0,0,0,0,1,0,0ZM4.415,9.38a.917.917,0,0,1-1.728,0Zm-.864,1.482A1.783,1.783,0,0,1,1.789,9.38h.425a1.373,1.373,0,0,0,2.676,0h.425a1.783,1.783,0,0,1-1.763,1.482ZM11.87,8.442c-.008.021-.017.04-.026.059l0,0-.005.01c-.008.016-.017.031-.026.046l-.005.008A4.408,4.408,0,0,1,13.2,5.937h0l.028,0,.046,0h.176l.043,0,.03,0,.042,0,.031,0,.04,0,.032,0,.039.006.032.006.037.007.033.007.036.008.033.008L13.915,6l.034.01.033.01.034.011.032.011.034.013.03.012.034.014.029.013.034.015.028.013.034.017.027.014.033.018.026.015.033.02.025.016.033.021.024.016.032.022.024.017.031.023.023.018.03.024.022.019.029.026.022.02.028.027.021.021.027.028.02.022.026.028.02.023.025.029.019.024.023.03.018.025.022.031.017.026.021.032.016.026.02.034.012.022.022.039h-.129l-.046,0h-.023l-.058,0h-.014l-.062,0H14.7l-.065.006h-.012l-.072.007h-.007l-.075.009h-.006l-.077.01h-.006l-.08.012h0l-.083.014h0l-.082.015h-.007l-.082.016-.008,0-.082.018-.009,0-.082.02-.01,0-.081.021-.012,0-.079.022-.014,0-.077.024-.017.005-.075.025-.019.006-.074.027-.021.008-.072.028-.023.009-.069.029-.026.011-.067.03-.028.013-.064.031L13,7.361l-.062.032-.032.017-.059.033-.034.019-.057.034-.035.021-.055.035-.036.023-.052.036-.038.026L12.5,7.67l-.021.016-.022.017-.025.02-.037.03-.025.02-.012.01-.067.057,0,0-.009.008a1.521,1.521,0,0,0-.4.591,0,0,0,0,1,0,0Zm2.484.206-.221-.422a.916.916,0,1,1-1.243.614l.235.451a.689.689,0,0,0,.407.34.7.7,0,0,0,.208.032.694.694,0,0,0,.613-1.014Zm-.5.531a.237.237,0,0,1-.32-.1l-.437-.837h0l-.164-.314.095-.058.007,0,.09-.05.022-.011.083-.043.033-.016.061-.028.027-.012.168.321.005.01.431.825a.237.237,0,0,1-.1.32Zm-.072,1.682a1.791,1.791,0,0,1-1.789-1.789c0-.006,0-.012,0-.019a1.051,1.051,0,0,0,.134-.141l.008-.011q.023-.03.044-.062L12.2,8.8l.018-.03.017-.032.007-.014.011-.022.009-.019,0,0,.007-.015c.009-.02.017-.04.025-.06h0l.005-.013a1.091,1.091,0,0,1,.081-.163,1.072,1.072,0,0,1,.178-.221l.063.121A1.373,1.373,0,1,0,13.859,7.7l-.081-.155a4.449,4.449,0,0,1,.648-.142,1.79,1.79,0,0,1-.648,3.457Zm0,0"
        fill="#fff" id="delivery" transform="translate(0 -0.498)" />
</svg>
