<svg xmlns:xlink="http://www.w3.org/1999/xlink" height="39.017" viewBox="0 0 46.839 39.017"
    width="46.839" xmlns="http://www.w3.org/2000/svg">
    <defs>
        <linearGradient gradientUnits="objectBoundingBox" id="linear-gradient" x1="0.5" x2="0.5"
            y1="1">
            <stop offset="0" stop-color="gray" stop-opacity="0.251" />
            <stop offset="0.54" stop-color="gray" stop-opacity="0.122" />
            <stop offset="1" stop-color="gray" stop-opacity="0.102" />
        </linearGradient>
        <linearGradient id="linear-gradient-2" y2="0" xlink:href="#linear-gradient" />
    </defs>
    <g id="undraw_time_management_30iu" transform="translate(-1.977 -1.212)">
        <path
            d="M153.74,347.69a6.88,6.88,0,0,1-3.813,1.788,3.832,3.832,0,0,0-2.283.812,6.446,6.446,0,0,0-.854.812"
            data-name="Path 1338" fill="none" id="Path_1338" stroke="#535461" stroke-miterlimit="10"
            stroke-width="0.5" transform="translate(-143.242 -332.39)" />
        <path
            d="M117.957,410.484a4.263,4.263,0,0,1,1.277-.045,4.266,4.266,0,0,1-.79,1.005.539.539,0,1,1-.485-.96Z"
            data-name="Path 1339" fill="#3ed3cd" id="Path_1339"
            transform="translate(-115.654 -391.73)" />
        <path
            d="M133.434,383.223a4.269,4.269,0,0,1,1.1.656,4.3,4.3,0,0,1-1.209.414.539.539,0,0,1,.113-1.071Z"
            data-name="Path 1340" fill="#3ed3cd" id="Path_1340"
            transform="translate(-130.066 -366.007)" />
        <path
            d="M175.632,358.641a4.276,4.276,0,0,1,.615,1.12,4.275,4.275,0,0,1-1.253-.253.539.539,0,0,1,.638-.868Z"
            data-name="Path 1341" fill="#3ed3cd" id="Path_1341"
            transform="translate(-169.737 -342.665)" />
        <path
            d="M215.6,349.586a4.273,4.273,0,0,1,.8,1,4.266,4.266,0,0,1-1.278-.038.539.539,0,1,1,.482-.962Z"
            data-name="Path 1342" fill="#3ed3cd" id="Path_1342"
            transform="translate(-207.579 -334.117)" />
        <path
            d="M155.639,391.387a4.26,4.26,0,0,0-.17-1.267,4.273,4.273,0,0,0-.858.948.539.539,0,1,0,1.028.319Z"
            data-name="Path 1343" fill="#3ed3cd" id="Path_1343"
            transform="translate(-150.611 -372.533)" />
        <path
            d="M201.287,381.677a4.235,4.235,0,0,0-.542-1.157,4.255,4.255,0,0,0-.535,1.161.539.539,0,1,0,1.078,0Z"
            data-name="Path 1344" fill="#3ed3cd" id="Path_1344"
            transform="translate(-193.783 -363.451)" />
        <path
            d="M244.573,363a4.258,4.258,0,0,0-.338-1.232,4.259,4.259,0,0,0-.723,1.054.539.539,0,0,0,1.062.179Z"
            data-name="Path 1345" fill="#3ed3cd" id="Path_1345"
            transform="translate(-234.747 -345.711)" />
        <path
            d="M225.556,164.695a6.893,6.893,0,0,1-2.874-3.081,3.831,3.831,0,0,0-1.475-1.923,6.445,6.445,0,0,0-1.037-.56"
            data-name="Path 1346" fill="none" id="Path_1346" stroke="#535461" stroke-miterlimit="10"
            stroke-width="0.5" transform="translate(-212.668 -153.992)" />
        <path
            d="M196.533,134.909a4.262,4.262,0,0,1,.435,1.2,4.256,4.256,0,0,1-1.2-.443.539.539,0,0,1,.764-.759Z"
            data-name="Path 1347" fill="#3ed3cd" id="Path_1347"
            transform="translate(-189.451 -130.943)" />
        <path
            d="M226.831,139.468a4.263,4.263,0,0,1-.287,1.245,4.262,4.262,0,0,1-.766-1.024.539.539,0,1,1,1.054-.222Z"
            data-name="Path 1348" fill="#3ed3cd" id="Path_1348"
            transform="translate(-217.957 -134.961)" />
        <path
            d="M263.607,172.542c-.094.282-.877.93-.877.93a4.271,4.271,0,0,1-.144-1.27.539.539,0,1,1,1.024.34Z"
            data-name="Path 1349" fill="#3ed3cd" id="Path_1349"
            transform="translate(-252.777 -166.009)" />
        <path
            d="M284.253,208.207a4.267,4.267,0,0,1-.707,1.065,4.269,4.269,0,0,1-.357-1.227.539.539,0,1,1,1.064.162Z"
            data-name="Path 1350" fill="#3ed3cd" id="Path_1350"
            transform="translate(-272.287 -199.813)" />
        <path
            d="M216.589,167.166a4.258,4.258,0,0,0,1.153-.552,4.27,4.27,0,0,0-1.166-.525.539.539,0,0,0,.012,1.078Z"
            data-name="Path 1351" fill="#3ed3cd" id="Path_1351"
            transform="translate(-208.764 -160.576)" />
        <path
            d="M238.589,207.878c.282-.092.935-.871.935-.871a4.271,4.271,0,0,0-1.269-.152.539.539,0,1,0,.334,1.024Z"
            data-name="Path 1352" fill="#3ed3cd" id="Path_1352"
            transform="translate(-229.408 -199.125)" />
        <path
            d="M269.895,243.119a4.267,4.267,0,0,0,1.069-.7,4.27,4.27,0,0,0-1.225-.364.539.539,0,1,0,.156,1.065Z"
            data-name="Path 1353" fill="#3ed3cd" id="Path_1353"
            transform="translate(-259.108 -232.444)" />
        <circle cx="19.508" cy="19.508" data-name="Ellipse 278" fill="url(#linear-gradient)"
            id="Ellipse_278" r="19.508" transform="translate(9.798 1.212)" />
        <path d="M19.185,0A19.185,19.185,0,1,1,0,19.185,19.185,19.185,0,0,1,19.185,0Z"
            data-name="Path 1478" fill="#3ed3cd" id="Path_1478"
            transform="translate(8.949 1.535)" />
        <circle cx="15.251" cy="15.251" data-name="Ellipse 280" fill="#dde1ec" id="Ellipse_280"
            r="15.251" transform="translate(12.883 5.469)" />
        <rect data-name="Rectangle 1652" fill="#535461" height="13.473" id="Rectangle_1652"
            opacity="0.3" transform="translate(27.703 8.164)" width="0.862" />
        <g data-name="Group 283" id="Group_283" opacity="0.1" transform="translate(19.952 16.365)">
            <rect data-name="Rectangle 1653" height="1.078" id="Rectangle_1653"
                transform="translate(9.099 4.033)" width="12.179" />
            <rect data-name="Rectangle 1654" height="8.651" id="Rectangle_1654"
                transform="translate(0 0.955) rotate(-62.36)" width="1.078" />
            <circle cx="1.617" cy="1.617" data-name="Ellipse 281" id="Ellipse_281" r="1.617"
                transform="translate(6.566 2.955)" />
        </g>
        <rect data-name="Rectangle 1655" fill="#535461" height="1.078" id="Rectangle_1655"
            transform="translate(29.051 20.181)" width="12.179" />
        <rect data-name="Rectangle 1656" fill="#535461" height="1.078" id="Rectangle_1656"
            transform="translate(20.456 16.15) rotate(27.64)" width="8.651" />
        <circle cx="1.617" cy="1.617" data-name="Ellipse 282" fill="#535461" id="Ellipse_282"
            r="1.617" transform="translate(26.518 19.104)" />
        <g data-name="Group 284" id="Group_284" opacity="0.1" transform="translate(12.882 5.469)">
            <path
                d="M321.185,182.353a15.252,15.252,0,0,1,27.439-9.17,15.253,15.253,0,1,0-25.56,16.508A15.182,15.182,0,0,1,321.185,182.353Z"
                data-name="Path 1354" id="Path_1354" transform="translate(-320 -165.27)" />
        </g>
        <path
            d="M644.466,182.538c-.181-.174-1.705.97-1.705.97s-.543.1-.413.472a10.05,10.05,0,0,1-.569,2.458l-.284-.4a1.706,1.706,0,0,0-.226-1l-.031-.048.05-.017c-.019-.254-.426-.642-.642-.832v-.082c.013-.3.135-.625,0-.9-.153-.314-.6-.472-.639-.817-.023-.206.116-.392.178-.59a1.661,1.661,0,0,0-.449-1.367,1.907,1.907,0,0,0-.356-.411,1.73,1.73,0,0,0-.428-.228,10.956,10.956,0,0,0-1.3-.377,2.073,2.073,0,0,0-1.239-.025.608.608,0,0,0-.269.155,1.667,1.667,0,0,0-.182.413,1.473,1.473,0,0,1-.545.491.784.784,0,0,0-.412.576c0,.344.393.561.525.882a1.615,1.615,0,0,1-.068.946.636.636,0,0,0-.008.312.671.671,0,0,0,.121.21c.081.108.169.208.255.31l-.04.016c-.723-.074-1.188.844-1.188.844.033.007.065.015.1.024l-.031.04a3.92,3.92,0,0,0-.531.929l-.593.794a7.084,7.084,0,0,1,.181-2.433c.31-.447-.284-.72-.284-.72s-1.293-1.44-1.473-1.316.439,1.688.982,1.937a2.383,2.383,0,0,1-.054.819c-.065.2-.413,2.359-.413,2.359s-.31,1.812,1.111.916a5.439,5.439,0,0,0,1.824-2.21l.06-.127a1.5,1.5,0,0,1,.028.2l.054,2.076a3.151,3.151,0,0,1-.327,1.483l-.633,1.284.07.022-.042.061c-.417.614-1.126,1.994.334,2.7l1.94.248-.1.5a13.342,13.342,0,0,0-1.034,2.557,7.663,7.663,0,0,1-.672,1.837l.06.032-.038.044a.936.936,0,0,0-.224.47l-.263.373a6.443,6.443,0,0,0,.1,1.912,1.342,1.342,0,0,0,.808.409.532.532,0,0,0,.605-.781l0-.005h0a5.291,5.291,0,0,1-.165-1.324c.015-.084.029-.168.036-.253a.891.891,0,0,1,.1-.32l.027-.049.028.012c.087.037.172.072.254.1-.126.115-.216.352-.108.841a8.418,8.418,0,0,0,.1,1.415c.093.192,1.137.447,1.318.248s-.116-.882-.116-.882l-.009.006a2.647,2.647,0,0,1,.048-1.384c.073-.113.145-.229.208-.338l.039-.067h0a1.289,1.289,0,0,0,.889.207,14.146,14.146,0,0,0,.8-2.234,25.276,25.276,0,0,1,1.318-3.054s-.029-.06.229-.52a1.132,1.132,0,0,0-.487-1.665c-.451-.284-.78-.475-1.019-.6l-.2-1.045a3.82,3.82,0,0,1,.054-1.652l.215-.822h0l.018-.07a5.214,5.214,0,0,0,.517-1.639.381.381,0,0,1,.013-.12c.006.025.012.051.02.078a10,10,0,0,0,.562,1.582c.412.93,1.024.856,1.359.724a.464.464,0,0,0,.286-.335c.121-.579.452-2.2.473-2.648a7.565,7.565,0,0,1,.129-1.043C643.924,183.581,644.647,182.713,644.466,182.538Z"
            data-name="Path 1355" fill="url(#linear-gradient-2)" id="Path_1355"
            transform="translate(-602.24 -173.037)" />
        <path
            d="M718.244,530.551s-.114.228-.269.5c-.061.108-.129.224-.2.335-.246.394,0,1.649,0,1.649l-.539.074-.539-.269-.1-.911v-.666l.614-.687.27-.3Z"
            data-name="Path 1356" fill="#f8bdc5" id="Path_1356"
            transform="translate(-682.344 -505.14)" />
        <g data-name="Group 285" id="Group_285" opacity="0.1" transform="translate(34.869 25.14)">
            <path
                d="M729.011,530.551s-.114.228-.27.5a6.654,6.654,0,0,1-.689-.424l-.047-.033-.025-.018.269-.3Z"
                data-name="Path 1357" id="Path_1357" transform="translate(-727.98 -530.28)" />
        </g>
        <path
            d="M719.062,388.5a25.525,25.525,0,0,0-1.255,3.028,14.356,14.356,0,0,1-.763,2.215c-.185.087-.526-.038-.847-.2a6.634,6.634,0,0,1-.7-.431l-.047-.033-.028-.02,2.142-5.932-1.895-1.39-.14-.1L714.68,385l2.587.468s.09-.011.566.255c.229.128.546.319.985.607A1.4,1.4,0,0,1,719.062,388.5Z"
            data-name="Path 1358" id="Path_1358" transform="translate(-680.528 -367.689)" />
        <g data-name="Group 286" id="Group_286" opacity="0.03" transform="translate(34.152 17.311)">
            <path
                d="M719.062,388.5a25.525,25.525,0,0,0-1.255,3.028,14.356,14.356,0,0,1-.763,2.215c-.185.087-.526-.038-.847-.2a6.634,6.634,0,0,1-.7-.431l-.047-.033-.028-.02,2.142-5.932-1.895-1.39-.14-.1L714.68,385l2.587.468s.09-.011.566.255c.229.128.546.319.985.607A1.4,1.4,0,0,1,719.062,388.5Z"
                data-name="Path 1359" fill="#2a2a2a" id="Path_1359"
                transform="translate(-714.68 -385)" />
        </g>
        <path
            d="M714.287,544.4s-.64-.1-.418.936a8.642,8.642,0,0,0,.1,1.4c.089.189,1.083.443,1.255.246s-.111-.874-.111-.874-.726.529-.923-.037A3.863,3.863,0,0,1,714.287,544.4Z"
            data-name="Path 1360" fill="#5d3e53" id="Path_1360"
            transform="translate(-679.716 -518.493)" />
        <path
            d="M688.3,532.161a.774.774,0,0,0-.168.233.914.914,0,0,0-.1.317c-.006.084-.02.168-.034.251a6.078,6.078,0,0,0,.174,1.39l-.936.148-.344-.369-.074-.812a2.945,2.945,0,0,0,.148-.862.9.9,0,0,1,.216-.539,1.479,1.479,0,0,1,.25-.247S688.494,531.989,688.3,532.161Z"
            data-name="Path 1361" fill="#f8bdc5" id="Path_1361"
            transform="translate(-654.169 -506.455)" />
        <g data-name="Group 287" id="Group_287" opacity="0.1" transform="translate(33.016 25.214)">
            <path
                d="M694.711,532.143a.776.776,0,0,0-.168.233c-.383-.173-.786-.391-.932-.472l-.011-.006a1.479,1.479,0,0,1,.25-.247S694.908,531.97,694.711,532.143Z"
                data-name="Path 1362" id="Path_1362" transform="translate(-693.6 -531.65)" />
        </g>
        <path
            d="M680.537,387.759s-.615,1.157-1.009,2.117c-.259.631-.793,2.132-1.132,3.088l-.05.141c-.149.423-.248.709-.248.709a.64.64,0,0,1-.193-.029c-.058-.016-.123-.037-.193-.062l-.078-.03c-.078-.03-.162-.065-.242-.1-.391-.175-.808-.4-.96-.485l-.057-.032a7.785,7.785,0,0,0,.642-1.823,13.472,13.472,0,0,1,.985-2.533l.1-.492-1.846-.246c-1.391-.7-.715-2.066-.318-2.674a3.572,3.572,0,0,1,.219-.306l1.477.323s.233.074.75.3l.238.108c.29.133.647.3,1.078.524C681.152,386.994,680.537,387.759,680.537,387.759Z"
            data-name="Path 1363" id="Path_1363" transform="translate(-643.382 -367.689)" />
        <path
            d="M685.994,546.568a.523.523,0,0,1-.577.774,1.265,1.265,0,0,1-.768-.405,6.654,6.654,0,0,1-.1-1.9l.259-.382s-.135,1.686.185,1.832a2.551,2.551,0,0,0,1,.069Z"
            data-name="Path 1364" fill="#5d3e53" id="Path_1364"
            transform="translate(-651.999 -518.745)" />
        <path
            d="M693.025,181.386a.574.574,0,0,0-.259.154,1.773,1.773,0,0,0-.174.41,1.413,1.413,0,0,1-.52.485.772.772,0,0,0-.393.571c0,.342.377.556.5.874a1.664,1.664,0,0,1-.065.938.655.655,0,0,0-.008.309.675.675,0,0,0,.115.209,5.325,5.325,0,0,1,.692.978,3.026,3.026,0,0,1,.186.892,4.485,4.485,0,0,1,.009,1.312.133.133,0,0,0,0,.079.122.122,0,0,0,.063.054,1.293,1.293,0,0,0,1.751-.647c.108-.244.149-.539.363-.7a.181.181,0,0,1,.087-.039.253.253,0,0,1,.14.047,1.38,1.38,0,0,0,.922.093.856.856,0,0,0,.5-.249c.243-.289.108-.72.124-1.1a1.9,1.9,0,0,0,0-.892c-.145-.311-.573-.468-.608-.808a1.577,1.577,0,0,1,.17-.585,1.69,1.69,0,0,0-.427-1.355,1.876,1.876,0,0,0-.339-.407,1.631,1.631,0,0,0-.407-.226,9.952,9.952,0,0,0-1.239-.373A1.876,1.876,0,0,0,693.025,181.386Z"
            data-name="Path 1365" fill="#85555c" id="Path_1365"
            transform="translate(-658.768 -174.969)" />
        <path
            d="M726.19,237.607h-1.428v-2.314a4.32,4.32,0,0,0,.074-.674v-.232a1.192,1.192,0,0,0-.22-.719c-.394-.443,1.28-.369,1.28-.369a4.151,4.151,0,0,0,.2.6,3.623,3.623,0,0,0,.48.844,1.954,1.954,0,0,0,.65.553C728.208,235.785,726.19,237.607,726.19,237.607Z"
            data-name="Path 1366" fill="#f8bdc5" id="Path_1366"
            transform="translate(-689.872 -224.159)" />
        <g data-name="Group 288" id="Group_288" opacity="0.1" transform="translate(34.683 9.135)">
            <path
                d="M726.065,233.9a1.307,1.307,0,0,1-1.259.493,1.191,1.191,0,0,0-.22-.719c-.394-.443,1.28-.369,1.28-.369A4.151,4.151,0,0,0,726.065,233.9Z"
                data-name="Path 1367" id="Path_1367" transform="translate(-724.526 -233.294)" />
        </g>
        <circle cx="1.305" cy="1.305" data-name="Ellipse 283" fill="#f8bdc5" id="Ellipse_283"
            r="1.305" transform="translate(33.881 7.565)" />
        <path
            d="M785.493,242.824a7.72,7.72,0,0,0-.123,1.034c-.02.443-.336,2.052-.451,2.626a.455.455,0,0,1-.273.333c-.32.131-.9.2-1.293-.718a10.212,10.212,0,0,1-.535-1.568,4.214,4.214,0,0,1-.108-.549l.862-.468a1.06,1.06,0,0,1,.2.261,1.747,1.747,0,0,1,.216.994l.269.394a10.19,10.19,0,0,0,.539-2.437c-.125-.369.394-.468.394-.468s1.452-1.132,1.625-.96S786.3,242.332,785.493,242.824Z"
            data-name="Path 1368" fill="#f8bdc5" id="Path_1368"
            transform="translate(-744.892 -231.715)" />
        <path
            d="M640.927,231.462a5.838,5.838,0,0,1-.232.566,5.347,5.347,0,0,1-1.738,2.191c-1.354.886-1.058-.911-1.058-.911s.331-2.136.394-2.338a2.558,2.558,0,0,0,.049-.812c-.517-.246-1.108-1.8-.936-1.92s1.4,1.3,1.4,1.3.566.269.269.714a7.271,7.271,0,0,0-.172,2.412l.57-.786a3.931,3.931,0,0,1,.506-.92c.108-.147.183-.236.183-.236Z"
            data-name="Path 1369" fill="#f8bdc5" id="Path_1369"
            transform="translate(-607.39 -219.367)" />
        <g data-name="Group 289" id="Group_289" opacity="0.1" transform="translate(37.817 11.798)">
            <path
                d="M783.757,282.972c-.181.067-.882.35-.96.754a4.234,4.234,0,0,1-.108-.549l.862-.468A1.062,1.062,0,0,1,783.757,282.972Z"
                data-name="Path 1370" id="Path_1370" transform="translate(-782.69 -282.71)" />
        </g>
        <g data-name="Group 290" id="Group_290" opacity="0.1" transform="translate(32.59 11.356)">
            <path
                d="M686.646,275.248a5.829,5.829,0,0,1-.232.566,1.29,1.29,0,0,0-.715-1.068c.108-.147.183-.236.183-.236Z"
                data-name="Path 1371" id="Path_1371" transform="translate(-685.7 -274.51)" />
        </g>
        <g data-name="Group 291" id="Group_291" opacity="0.1" transform="translate(34.89 10.46)">
            <path
                d="M729.808,260.868H728.38v-2.314a4.305,4.305,0,0,0,.074-.674.888.888,0,0,1,.221.723l.763,1.725.37-1.525-.123-.2.506-.6a1.955,1.955,0,0,0,.651.553C731.826,259.046,729.808,260.868,729.808,260.868Z"
                data-name="Path 1372" id="Path_1372" transform="translate(-728.38 -257.88)" />
        </g>
        <g data-name="Group 292" id="Group_292" opacity="0.1" transform="translate(32.554 17.311)">
            <path
                d="M689.794,385.862s-1.119-.089-2.089-.131l-.1,0-.4-.013a8.918,8.918,0,0,1-2.188-.409,3.584,3.584,0,0,1,.22-.3l1.477.323s.233.074.75.3l-.849-.627,2.587.468s.09-.011.566.255Z"
                data-name="Path 1373" id="Path_1373" transform="translate(-685.02 -385)" />
        </g>
        <path
            d="M688.321,258.859l-.123-.2.546-.654s1.127.552,1.422.431c0,0,.714.593.738.936,0,0-1.034.344-1.009.862a5.327,5.327,0,0,1-.49,1.624l-.216.885a3.938,3.938,0,0,0-.054,1.638l.2,1.1s-1.551-.123-2.587-.148a8.97,8.97,0,0,1-2.216-.418l.6-1.271a3.234,3.234,0,0,0,.311-1.47l-.054-2.058s-.049-1.034-.862-1.206c0,0,.443-.911,1.132-.837,0,0,1-.419,1.3-.136a.887.887,0,0,1,.225.727l.763,1.724Z"
            data-name="Path 1374" fill="#e5b826" id="Path_1374"
            transform="translate(-652.003 -247.381)" />
        <g data-name="Group 293" id="Group_293" opacity="0.1" transform="translate(33.879 6.991)">
            <path
                d="M709.978,195.111c.2,0,.353-.21.551-.2a.561.561,0,0,1,.275.129,3.356,3.356,0,0,0,1.051.485.919.919,0,0,0,.447.032.381.381,0,0,0,.3-.3.514.514,0,0,0-.026-.2,2.418,2.418,0,0,0-1.053-1.39.829.829,0,0,0-.682-.143,1.352,1.352,0,0,0-.485.42,1.844,1.844,0,0,1-.377.306c-.108.065-.269.108-.331.227C709.532,194.706,709.716,195.109,709.978,195.111Z"
                data-name="Path 1375" id="Path_1375" transform="translate(-709.613 -193.5)" />
        </g>
        <path
            d="M709.978,194.2c.2,0,.353-.21.551-.2a.561.561,0,0,1,.275.129,3.354,3.354,0,0,0,1.051.485.917.917,0,0,0,.447.032.381.381,0,0,0,.3-.3.514.514,0,0,0-.026-.2,2.418,2.418,0,0,0-1.053-1.39.829.829,0,0,0-.682-.143,1.352,1.352,0,0,0-.485.42,1.845,1.845,0,0,1-.377.306c-.108.065-.269.108-.331.227C709.532,193.8,709.716,194.2,709.978,194.2Z"
            data-name="Path 1376" fill="#85555c" id="Path_1376"
            transform="translate(-675.734 -185.649)" />
        <path d="M705.32,326.79a3.264,3.264,0,0,0,1.994.1l.394.025a1.743,1.743,0,0,0,1.347.254"
            data-name="Path 1377" id="Path_1377" opacity="0.05"
            transform="translate(-671.672 -312.616)" />
        <path d="M809.078,313.09s-.2.468-.1.615" data-name="Path 1378" id="Path_1378" opacity="0.05"
            transform="translate(-769.719 -299.655)" />
        <path d="M665.58,310.35s.1.468,0,.615" data-name="Path 1379" id="Path_1379" opacity="0.05"
            transform="translate(-634.074 -297.062)" />
    </g>
</svg>
