<svg data-name="undraw_wallet_aym5 (1)" height="39" id="undraw_wallet_aym5_1_" viewBox="0 0 48 39"
    width="48" xmlns="http://www.w3.org/2000/svg">
  <defs>
    <linearGradient gradientUnits="objectBoundingBox" id="linear-gradient" x1="0.5" x2="0.5" y1="1">
      <stop offset="0" stop-color="gray" stop-opacity="0.251" />
      <stop offset="0.54" stop-color="gray" stop-opacity="0.122" />
      <stop offset="1" stop-color="gray" stop-opacity="0.102" />
    </linearGradient>
  </defs>
  <path
      d="M776.676,649.584c0,.218-2,.854-4.372.854s-4.224-.636-4.224-.854,1.924-.148,4.3-.148S776.676,649.366,776.676,649.584Z"
      data-name="Path 1387" fill="#504f60" id="Path_1387" opacity="0.16"
      transform="translate(-732.698 -618.645)" />
  <path d="M776.676,653.72c0,.229-2,.9-4.372.9s-4.224-.668-4.224-.9" data-name="Path 1388"
      fill="rgba(0,0,0,0.41)" id="Path_1388" opacity="0.12"
      transform="translate(-732.698 -622.69)" />
  <path
      d="M501.925,530.695a2.655,2.655,0,0,0,1.154-.039c.058-.018.122-.058.116-.116a.141.141,0,0,0-.026-.058,3.593,3.593,0,0,1-.349-.664.058.058,0,0,0-.022-.03.055.055,0,0,0-.037,0c-.17.045-.317.155-.486.2a.691.691,0,0,1-.265.02c-.077-.009-.181-.072-.251-.064C501.8,530.2,501.9,530.436,501.925,530.695Z"
      data-name="Path 1389" fill="#6c63ff" id="Path_1389"
      transform="translate(-481.631 -505.936)" />
  <path
      d="M623.143,513.028a2.017,2.017,0,0,0,.667-.626.109.109,0,0,0,.018-.054.112.112,0,0,0-.022-.052,2.159,2.159,0,0,0-.542-.585,1.577,1.577,0,0,0-.3.279c-.064.067-.241.174-.242.277,0,.058.067.125.1.174s.083.127.121.192A2.269,2.269,0,0,1,623.143,513.028Z"
      data-name="Path 1390" fill="#6c63ff" id="Path_1390" transform="translate(-595.619 -488.91)" />
  <path
      d="M466.781,538.2a.259.259,0,0,1-.046.169.228.228,0,0,1-.1.058c-.539.193-1.162-.048-1.7.142-.11.039-.215.1-.326.132a1.765,1.765,0,0,1-.407.072c-.19.018-.381.03-.572.035a1.371,1.371,0,0,1-.431-.038.518.518,0,0,1-.331-.262.252.252,0,0,1-.016-.187.2.2,0,0,1,.035-.058.509.509,0,0,1,.127-.1l.2-.128a1.332,1.332,0,0,1,.3-.159c.078-.026.162-.037.241-.058a1.635,1.635,0,0,0,.689-.514l.27-.288a.272.272,0,0,1,.094-.075.259.259,0,0,1,.116-.011,1.555,1.555,0,0,1,.735.246.937.937,0,0,0,.181.107.647.647,0,0,0,.507-.063c.069-.037.054-.058.083-.124s.1-.109.161-.048a.171.171,0,0,1,.038.073,2.06,2.06,0,0,1,.036.6.261.261,0,0,0,.012.093.523.523,0,0,0,.053.086.217.217,0,0,1,.011.022A.591.591,0,0,1,466.781,538.2Z"
      data-name="Path 1391" fill="#514e7f" id="Path_1391"
      transform="translate(-444.966 -512.661)" />
  <path
      d="M466.781,554.272a.259.259,0,0,1-.046.169.229.229,0,0,1-.1.058c-.539.193-1.162-.048-1.7.142-.11.039-.215.1-.326.133a1.775,1.775,0,0,1-.407.072c-.19.018-.381.03-.572.035a1.381,1.381,0,0,1-.431-.038.517.517,0,0,1-.331-.262.252.252,0,0,1-.016-.186.2.2,0,0,1,.035-.058c.031.066.054.153.074.184a.377.377,0,0,0,.252.182.625.625,0,0,0,.232-.03,11.689,11.689,0,0,0,1.476-.306,3.435,3.435,0,0,1,.484-.186,3.8,3.8,0,0,1,.523-.042c.276-.022.542-.105.814-.149A.589.589,0,0,1,466.781,554.272Z"
      data-name="Path 1392" fill="#464353" id="Path_1392"
      transform="translate(-444.966 -528.739)" />
  <path
      d="M601.773,518.7a.979.979,0,0,1-.3.53,3.472,3.472,0,0,0-.417.456,3.665,3.665,0,0,1-.384.658,1.05,1.05,0,0,1-.232.166,1.625,1.625,0,0,1-.3.138,2.234,2.234,0,0,1-.846.046.761.761,0,0,1-.268-.052.806.806,0,0,1-.111-.069.533.533,0,0,1-.174-.174.174.174,0,0,1-.017-.127.3.3,0,0,1,.081-.123,1.943,1.943,0,0,1,.2-.184,1.224,1.224,0,0,0,.266-.232.752.752,0,0,0,.1-.232,2.064,2.064,0,0,0,.075-.445,1.414,1.414,0,0,1,.031-.3c.043-.153.157-.291.144-.449a.112.112,0,0,1,.006-.068.1.1,0,0,1,.053-.033.948.948,0,0,1,.278-.065.324.324,0,0,1,.258.1c.039.048.066.116.124.135a.194.194,0,0,0,.088,0,.741.741,0,0,0,.407-.125.507.507,0,0,0,.169-.37c0-.053-.024-.108.058-.116.062-.008.11.058.142.1a1.378,1.378,0,0,1,.272.5.145.145,0,0,1,.052-.01.225.225,0,0,1,.185.095A.37.37,0,0,1,601.773,518.7Z"
      data-name="Path 1393" fill="#514e7f" id="Path_1393" transform="translate(-573.013 -494.62)" />
  <path
      d="M602.129,528.034a.979.979,0,0,1-.3.53,3.471,3.471,0,0,0-.417.456,3.668,3.668,0,0,1-.384.658,1.05,1.05,0,0,1-.232.166,1.617,1.617,0,0,1-.3.138,2.235,2.235,0,0,1-.846.046.763.763,0,0,1-.268-.052.8.8,0,0,1-.112-.068.533.533,0,0,1-.174-.174.423.423,0,0,1,.174-.042c.125.007.217.125.338.162.171.052.342-.069.516-.11.113-.027.232-.02.345-.058a.854.854,0,0,0,.255-.155,1.3,1.3,0,0,0,.273-.263,1.68,1.68,0,0,0,.16-.319,4.557,4.557,0,0,1,.323-.618.438.438,0,0,1,.066-.086.916.916,0,0,1,.089-.064.675.675,0,0,0,.205-.374.653.653,0,0,1,.046-.125.225.225,0,0,1,.185.095A.369.369,0,0,1,602.129,528.034Z"
      data-name="Path 1394" fill="#464353" id="Path_1394" transform="translate(-573.37 -503.956)" />
  <path
      d="M437.866,198.726a1.233,1.233,0,0,1,.349.407,8.4,8.4,0,0,1,.523,1.574c.153-.154.755-.179.91-.333.065-.065.413-.386.465-.461s.44-.232.483-.311c.159-.284-1.125-1.361-.961-1.642a.073.073,0,0,0,.013-.044.071.071,0,0,0-.021-.034,1.926,1.926,0,0,0-.371-.254.589.589,0,0,1-.283-.337,1.22,1.22,0,0,0-.328.222q-.353.3-.695.618c-.089.083-.261.192-.3.31S437.781,198.657,437.866,198.726Z"
      data-name="Path 1395" fill="#a1616a" id="Path_1395" transform="translate(-421.21 -192.696)" />
  <path
      d="M451.086,214.13a3.786,3.786,0,0,0-.55.45,1.094,1.094,0,0,0-.349.56c-.016.087-.014.174-.027.262-.058.381-.387.66-.532,1.016a1.762,1.762,0,0,0-.092.34,4.018,4.018,0,0,0-.067.667c0,.217.209.366.287.568a3.473,3.473,0,0,1,.138.618,7.324,7.324,0,0,0,.349,1.145c.286.792,1.215,2.979,1.5,3.771a22.081,22.081,0,0,0,3.993-1.191c.259-.155-1.8-1.9-1.521-2.019a.1.1,0,0,0,.078-.146c-.277-1.212-1.144-2.208-1.538-3.389a10.292,10.292,0,0,0-.568-1.149c-.169-.353-.259-.743-.46-1.078a.679.679,0,0,0-.147-.183.866.866,0,0,0-.162-.1C451.3,214.219,451.2,214.186,451.086,214.13Z"
      data-name="Path 1396" fill="#514e7f" id="Path_1396" transform="translate(-432.37 -208.557)" />
  <circle cx="1.374" cy="1.374" data-name="Ellipse 284" fill="#a1616a" id="Ellipse_284" r="1.374"
      transform="translate(15.338 3.144)" />
  <path
      d="M466.4,205.111a.461.461,0,0,1,.517-.074.25.25,0,0,1,.153.248l.682.01a1.368,1.368,0,0,1,.323.03.47.47,0,0,1,.27.169c.008.011.017.024.031.026a.05.05,0,0,0,.031-.01.592.592,0,0,1,.339-.058,1.833,1.833,0,0,1,1,.438.323.323,0,0,1,.116.145c.024.077,0,.174.058.23a8.183,8.183,0,0,0,.366,1.86.834.834,0,0,0,.206.3,1.2,1.2,0,0,1,.22.329c.124.323-.047.7.074,1.027a1.76,1.76,0,0,0,.232.369.955.955,0,0,1,.2.477c.005.078,0,.156,0,.232a1.408,1.408,0,0,0,.058.309q.074.281.156.562a1.275,1.275,0,0,0,.474.789,3.871,3.871,0,0,1-1.966-.008,1.018,1.018,0,0,1-.245-.123,1.413,1.413,0,0,1-.431-.694,3.277,3.277,0,0,1-.24-.9,1.027,1.027,0,0,0-.041-.291.827.827,0,0,0-.386-.364,1.853,1.853,0,0,1-.465-.361.722.722,0,0,1-.188-.543c.012-.1.049-.188.053-.285a.223.223,0,0,0-.132-.232c-.476-.144-.7-.708-.809-1.194a3.83,3.83,0,0,1-.061-.761l-.006-.5a.654.654,0,0,1-.214-.47.557.557,0,0,0,0-.156.429.429,0,0,0-.109-.166A1.48,1.48,0,0,1,466.4,205.111Z"
      data-name="Path 1397" fill="#464353" id="Path_1397"
      transform="translate(-448.323 -199.947)" />
  <path
      d="M439.659,227.509a3.814,3.814,0,0,1-.015.461c-.013.058-.037.116-.054.17a1,1,0,0,0,.063.647,3.606,3.606,0,0,0,.331.572.931.931,0,0,1,.106.2,1.023,1.023,0,0,1,.041.226,7.019,7.019,0,0,0,.162.914,23.008,23.008,0,0,0,.976,2.692.219.219,0,0,0,.133.09.241.241,0,0,0,.113-.023l.349-.134a.227.227,0,0,0,.081-.044.208.208,0,0,0,.05-.137,23.75,23.75,0,0,0-.81-2.793,21.352,21.352,0,0,1-.849-2.426,1.763,1.763,0,0,0-.249-.776c-.07-.077-.047-.044-.131,0a.957.957,0,0,0-.123.065A.4.4,0,0,0,439.659,227.509Z"
      data-name="Path 1398" fill="#464353" id="Path_1398"
      transform="translate(-423.022 -220.795)" />
  <path d="M556.62,320.79" data-name="Path 1399" fill="#464353" id="Path_1399"
      transform="translate(-533.324 -309.052)" />
  <path
      d="M458.084,221.989c.094.495.19.988.286,1.482l1.365-.357a.959.959,0,0,0-.116-.407c-.124-.312-.127-.66-.228-.98-.076-.244-.209-.468-.28-.714-.041-.143-.062-.291-.1-.435a3.162,3.162,0,0,0-.16-.415,2.605,2.605,0,0,0-.3-.552.868.868,0,0,0-.46.3.644.644,0,0,0-.085.291c-.024.306.087.614.051.919A2.705,2.705,0,0,0,458.084,221.989Z"
      data-name="Path 1400" fill="#3ed3cd" id="Path_1400"
      transform="translate(-440.396 -213.737)" />
  <path
      d="M475.921,325.928a1.63,1.63,0,0,1-.125.884,6.85,6.85,0,0,0-.278,1.331,1.153,1.153,0,0,1-.069.336c-.043.1-.116.179-.166.271a1.363,1.363,0,0,0-.1.817c.02.183.049.366.086.546a1.38,1.38,0,0,1,.035.665c.108-.024.181.116.174.226a.6.6,0,0,0,.01.327c.134.049.135.232.131.375a3.154,3.154,0,0,0,.093.732q.3,1.459.644,2.909a2.246,2.246,0,0,0,1.533.1.307.307,0,0,0,.194-.2.341.341,0,0,0-.019-.15l-.222-.808a1.482,1.482,0,0,1-.08-.6c.021-.149.087-.31.013-.442-.025-.045-.065-.081-.094-.124-.116-.17-.055-.4-.046-.6a.476.476,0,0,0-.009-.138.69.69,0,0,0-.066-.152,2.321,2.321,0,0,1-.256-1.154.285.285,0,0,0-.02-.151.477.477,0,0,1-.038-.062.168.168,0,0,1,.012-.111,1.016,1.016,0,0,1-.179-.174.25.25,0,0,0,.043-.392.131.131,0,0,0,.062-.225c-.028-.02-.066-.028-.087-.058s-.006-.1.02-.149l.135-.245c.1-.182.124-.407.232-.581a4.364,4.364,0,0,0,.358-.817l.391-1.079.263.228a.834.834,0,0,1,.216.246,1.062,1.062,0,0,1,.07.3c.1.586.465,1.094.6,1.671a1.1,1.1,0,0,0,.124.373.826.826,0,0,1,.071.107.57.57,0,0,1,.03.177.827.827,0,0,0,.349.593c.13.089.291.15.361.291a.539.539,0,0,0,.058.124c.063.076.2.084.225.179.015.053-.013.116.017.163a.154.154,0,0,0,.065.048l.378.189c.423.212.639.7.951,1.051a2.262,2.262,0,0,1,.285.377c.135.241.2.544.425.7a.643.643,0,0,1,.165.123c.072.094.045.226.052.345s.1.26.21.224a.828.828,0,0,0,0,.439,2.208,2.208,0,0,0,1.34-.543.529.529,0,0,0,.218-.366.131.131,0,0,0-.016-.073.208.208,0,0,0-.085-.064c-.354-.192-.46-.636-.639-1a8.637,8.637,0,0,0-.581-.888,5.736,5.736,0,0,0-1.344-1.827.914.914,0,0,1-.373-.327c-.039-.085-.044-.183-.074-.271a.236.236,0,0,0-.2-.174,1.222,1.222,0,0,0,.045-.422.534.534,0,0,0-.021-.182.88.88,0,0,0-.094-.18,1.728,1.728,0,0,1-.239-.93,1.526,1.526,0,0,0-.016-.5c-.026-.081-.07-.155-.1-.232a1.455,1.455,0,0,1-.073-.437l-.035-.558a2.75,2.75,0,0,0-.072-.552c-.116-.434-.232-2.25-.63-2.454s-1.082,1.193-1.53,1.22a1.992,1.992,0,0,0-.581.112,2.83,2.83,0,0,0-.792.523l-.824.692A3.036,3.036,0,0,1,475.921,325.928Z"
      data-name="Path 1401" fill="#464353" id="Path_1401" transform="translate(-456.6 -311.129)" />
  <path
      d="M414.485,163.386a1.036,1.036,0,0,1,.8-.39,1.862,1.862,0,0,1,.884.222,1.091,1.091,0,0,0,.258.106c.145.03.307-.01.438.058a.525.525,0,0,1,.193.523.961.961,0,0,0,.052.581,1.344,1.344,0,0,1,.1.152.5.5,0,0,1-.008.323,2.089,2.089,0,0,1-.167-.213.2.2,0,0,0-.241-.062c-.075.051-.074.142-.078.225s-.025.181-.1.208a.167.167,0,0,1-.174-.068c-.133-.163-.08-.422-.212-.586-.075-.093-.2-.138-.269-.236-.055-.077-.069-.174-.116-.257s-.159-.143-.232-.086a.314.314,0,0,0-.062.083.357.357,0,0,1-.424.128.712.712,0,0,0-.184-.08.227.227,0,0,0-.21.116.454.454,0,0,0-.058.243.559.559,0,0,1-.045.333.344.344,0,0,1-.093.088.289.289,0,0,1-.322.033.242.242,0,0,1-.072-.225,1.835,1.835,0,0,1,.069-.238c.051-.18-.016-.383.04-.553A1.763,1.763,0,0,1,414.485,163.386Z"
      data-name="Path 1402" fill="#464353" id="Path_1402" transform="translate(-399.06 -160.394)" />
  <path
      d="M432.749,200.131a.211.211,0,0,0,.013.126.2.2,0,0,0,.069.066,1.409,1.409,0,0,0,.647.21.2.2,0,0,1,.09.023.157.157,0,0,1,.038.18.468.468,0,0,0-.041.192c.017.121.161.174.282.192a.657.657,0,0,0,.492-.1.759.759,0,0,0,.2-.3c.334-.766.45-1.614.788-2.378a.5.5,0,0,0,.051-.159.157.157,0,0,0-.063-.146c-.063-.039-.16-.017-.2-.078-.021-.031-.019-.073-.037-.105-.039-.069-.141-.058-.211-.1-.055-.029-.092-.089-.153-.1a.193.193,0,0,0-.159.069,2.043,2.043,0,0,0-.413.694,8.138,8.138,0,0,1-.59,1.095.639.639,0,0,0-.185-.362c-.1-.021-.237.162-.293.23A1.462,1.462,0,0,0,432.749,200.131Z"
      data-name="Path 1403" fill="#3ed3cd" id="Path_1403"
      transform="translate(-416.597 -193.039)" />
  <path d="M458.648,200.32a.278.278,0,0,0-.216.108.615.615,0,0,0-.09.291,2.523,2.523,0,0,1-.342.919"
      data-name="Path 1404" id="Path_1404" opacity="0.1" transform="translate(-440.391 -195.55)" />
  <path d="M463.965,204.31a.332.332,0,0,0-.282.169.948.948,0,0,0-.071.287,1.576,1.576,0,0,1-.282.6"
      data-name="Path 1405" id="Path_1405" opacity="0.1" transform="translate(-445.413 -199.308)" />
  <path d="M184.971,355.645v-.722a2,2,0,0,0-2-2h-28.5a2,2,0,0,0-2,2v1.331Z" data-name="Path 1406"
      fill="#33323d" id="Path_1406" transform="translate(-152.46 -339.323)" />
  <path
      d="M323.359,266.243s-.081,5.048.814,6.708,1.278,8.886,1.278,8.886,9.382.97,15.919-1.162,20.449-3,20.449-3l-2.344-15.8s-11.581-.743-18.169,2.4S323.359,266.243,323.359,266.243Z"
      data-name="Path 1407" fill="#8dd070" id="Path_1407"
      transform="translate(-313.819 -253.499)" />
  <path
      d="M323.359,266.243s-.081,5.048.814,6.708,1.278,8.886,1.278,8.886,9.382.97,15.919-1.162,20.449-3,20.449-3l-2.344-15.8s-11.581-.743-18.169,2.4S323.359,266.243,323.359,266.243Z"
      data-name="Path 1408" id="Path_1408" opacity="0.1" transform="translate(-313.819 -253.499)" />
  <path
      d="M358.184,286.169s-.293,4.165.443,5.5.771,7.272.771,7.272,8.443.392,14.449-1.653,18.627-3.371,18.627-3.371l-1.434-12.921s-10.443-.108-16.538,2.77S358.184,286.169,358.184,286.169Z"
      data-name="Path 1409" fill="#8dd070" id="Path_1409"
      transform="translate(-346.568 -271.581)" />
  <ellipse cx="2.192" cy="4.701" data-name="Ellipse 285" id="Ellipse_285" opacity="0.1" rx="2.192"
      ry="4.701" transform="translate(24.668 14.274) rotate(-7.1)" />
  <path
      d="M299.908,130.66s-11.141,2.847-16.395,7.86-16.313,7.385-16.313,7.385,1.457,4.829,2.8,6.135,3.9,8.066,3.9,8.066,9.136-1.956,14.649-5.994,18.36-9.137,18.36-9.137Z"
      data-name="Path 1410" id="Path_1410" opacity="0.2" transform="translate(-260.532 -129.938)" />
  <path
      d="M264.29,133.475s1.456,4.829,2.8,6.135,3.9,8.065,3.9,8.065,9.137-1.955,14.65-5.993,18.36-9.135,18.36-9.135L297,118.23s-11.14,2.847-16.394,7.86S264.29,133.475,264.29,133.475Z"
      data-name="Path 1411" fill="#8dd070" id="Path_1411" transform="translate(-257.791 -118.23)" />
  <path
      d="M264.29,133.475s1.456,4.829,2.8,6.135,3.9,8.065,3.9,8.065,9.137-1.955,14.65-5.993,18.36-9.135,18.36-9.135L297,118.23s-11.14,2.847-16.394,7.86S264.29,133.475,264.29,133.475Z"
      data-name="Path 1412" id="Path_1412" opacity="0.1" transform="translate(-257.791 -118.23)" />
  <path
      d="M308,156.51s1,4.055,2.108,5.095,2.964,6.683,2.964,6.683,8.155-2.219,13.244-6.008,16.7-8.918,16.7-8.918L337.682,141.5s-9.971,3.1-14.89,7.711S308,156.51,308,156.51Z"
      data-name="Path 1413" fill="#8dd070" id="Path_1413"
      transform="translate(-299.354 -140.148)" />
  <ellipse cx="2.192" cy="4.701" data-name="Ellipse 286" id="Ellipse_286" opacity="0.1" rx="2.192"
      ry="4.701" transform="translate(21.005 12.073) rotate(-24.97)" />
  <path
      d="M185.769,379.241V399.29a1.733,1.733,0,0,1-1.734,1.734H154.223a1.733,1.733,0,0,1-1.733-1.734V377.22a3.062,3.062,0,0,0,1.733.291h29.812A1.734,1.734,0,0,1,185.769,379.241Z"
      data-name="Path 1414" id="Path_1414" opacity="0.1" transform="translate(-152.488 -362.278)" />
  <path
      d="M185.769,383.622V403.67a1.734,1.734,0,0,1-1.734,1.733H154.223a1.733,1.733,0,0,1-1.733-1.733V381.6a3.071,3.071,0,0,0,1.733.291h29.812A1.734,1.734,0,0,1,185.769,383.622Z"
      data-name="Path 1415" fill="#504f60" id="Path_1415"
      transform="translate(-152.488 -366.404)" />
  <path d="M570.944,543.935v6.412h-6.218a3.206,3.206,0,1,1,0-6.412Z" data-name="Path 1416"
      id="Path_1416" opacity="0.1" transform="translate(-537.988 -519.279)" />
  <path d="M572.4,541v6.413h-6.218a3.206,3.206,0,1,1,0-6.412Z" data-name="Path 1417" fill="#33323d"
      id="Path_1417" transform="translate(-539.364 -516.514)" />
  <circle cx="1.25" cy="1.25" data-name="Ellipse 287" id="Ellipse_287" opacity="0.1" r="1.25"
      transform="translate(25.887 26.616)" />
  <path d="M1.25,0A1.25,1.25,0,1,1,0,1.25,1.25,1.25,0,0,1,1.25,0Z" data-name="Path 1477"
      fill="#25b6c7" id="Path_1477" transform="translate(25.971 26.446)" />
  <path
      d="M550.246,316.254a2.745,2.745,0,0,0-.313.329.659.659,0,0,0-.144.422.217.217,0,0,0,.041.124.1.1,0,0,0,.116.035.156.156,0,0,0,.058-.051,2.82,2.82,0,0,1,.2-.212c.025-.025.058-.051.092-.042a.1.1,0,0,1,.039.026.268.268,0,0,1,.082.128.3.3,0,0,1-.09.248.635.635,0,0,0-.152.224.1.1,0,0,0,0,.072.108.108,0,0,0,.045.038.648.648,0,0,0,.549.036c.116-.047.22-.128.339-.17a.787.787,0,0,0,.15-.058.312.312,0,0,0,.133-.2.822.822,0,0,0,.009-.245,2.814,2.814,0,0,0-.2-.92.116.116,0,0,0-.034-.049.108.108,0,0,0-.058-.016,1.382,1.382,0,0,0-.536-.037.378.378,0,0,0-.127.113C550.414,316.081,550.246,316.215,550.246,316.254Z"
      data-name="Path 1426" fill="#a1616a" id="Path_1426"
      transform="translate(-526.893 -304.465)" />
  <path
      d="M523.032,231.385c0-.142-.174-.484.1-.507,0-.152-.214-.246-.174-.407.013-.053.058-.1.063-.152.017-.155-.263-.239-.216-.388.017-.058.079-.092.092-.149.031-.134-.209-.194-.213-.332,0-.046.026-.09.024-.137s-.05-.1-.078-.153c-.073-.13-.037-.33-.17-.4.088.008.116-.123.08-.2s-.11-.149-.11-.237a.36.36,0,0,0,0-.1c-.024-.085-.163-.092-.187-.174a.742.742,0,0,1,0-.1c-.009-.066-.077-.108-.14-.126a.571.571,0,0,1-.187-.067c-.041-.031-.088-.082-.131-.058-.016.01-.024.028-.037.042-.052.061-.152.034-.218-.01a.9.9,0,0,1-.332-.6c-.041-.231-.04-.469-.092-.7a1.48,1.48,0,0,0-.063-.209,1.108,1.108,0,0,1-.1-.208c-.01-.134.266-.042.371-.029a1.655,1.655,0,0,1,.3.058,3.236,3.236,0,0,1,.309.135c.419.185.926.208,1.263.52a1.059,1.059,0,0,0,.349.283,1.579,1.579,0,0,1,.2.051c.16.075.185.287.272.44a.864.864,0,0,1,.072.128.494.494,0,0,1,.023.163l.012.4a14.864,14.864,0,0,1-.033,2.022,1.656,1.656,0,0,0,.008.662c.017.058.042.113.058.171a1.052,1.052,0,0,1,.022.209l.009.261a.081.081,0,0,1-.013.058.084.084,0,0,1-.07.017c-.363-.033-.73-.237-1.073-.113"
      data-name="Path 1427" fill="#464353" id="Path_1427"
      transform="translate(-499.718 -219.714)" />
  <ellipse cx="4.298" cy="0.621" data-name="Ellipse 290" fill="#504f60" id="Ellipse_290"
      opacity="0.4" rx="4.298" ry="0.621" transform="translate(35.384 30.41)" />
  <path
      d="M689.034,203.59c-.076-.324-.123-.608-.123-.608a1.253,1.253,0,0,0-.141-.617v-.088h0v-.651a2.222,2.222,0,0,1,.164-.341,2.566,2.566,0,0,0,0-.954,4.221,4.221,0,0,1-.329-1.728,10.808,10.808,0,0,0-.891-2.978,2.927,2.927,0,0,1,.094-.659.507.507,0,0,0,.013-.138v-.012a5.125,5.125,0,0,0-.365-1.271l.047-1.579a4.643,4.643,0,0,0-.141-2.182c-.127-.436-.209-.786-.26-1.055-.006-.03-.012-.058-.016-.088.749-.116,1.321-.209,1.321-.209a9.572,9.572,0,0,0-.728-2.137,4.2,4.2,0,0,1-.528-1.319,4.005,4.005,0,0,1,.094-1.659,2.494,2.494,0,0,0,.282-1.023s.563-.407.634-.591a3.016,3.016,0,0,0,.188-.807c0-.216-.07-.407-.047-.523s-.165-.546-.07-.75a.551.551,0,0,0,.037-.2.023.023,0,0,0,0-.006h0a2.75,2.75,0,0,0-.049-.533,1.514,1.514,0,0,0-.558-.3l-.012-.049-.032-.128a.585.585,0,0,0-.055-.033v-.047l-.005-.185.088-.415c.174-.722-.79-.829-.79-.829a.509.509,0,0,0-.273-.239c-.193-.068-.032,1.086.058,1.162a4.549,4.549,0,0,1,.38.6h0l.016.029a.414.414,0,0,0-.044.047l.037.25.006.038a1.039,1.039,0,0,0-.154.262.565.565,0,0,1,.141.407,1.3,1.3,0,0,0,.058.5c-.01-.012-.134-.146-.258-.113s-.469.137-.469.137-.258.045-.232.1-.174.307-.174.307l-.694-.658c-.007-.02-.015-.04-.02-.058a1.592,1.592,0,0,1-.058-.291,1.589,1.589,0,0,0,.222-.07.479.479,0,0,0,.192-.123.744.744,0,0,0,.112-.3,4.4,4.4,0,0,1,.257-.574,1.867,1.867,0,0,0,.131-1.033.675.675,0,0,0-.106-.3c-.113-.156-.319-.219-.468-.343s-.246-.314-.42-.407a.833.833,0,0,0-.527-.045,2.836,2.836,0,0,0-.984.358.512.512,0,0,1-.329.108.429.429,0,0,1-.237-.174.047.047,0,0,1,0-.009l-.008-.009a1.225,1.225,0,0,0-.108.52.63.63,0,0,0,0,.083v.053h0a.131.131,0,0,1-.005.037.263.263,0,0,1-.065.094.614.614,0,0,0-.058.077.1.1,0,0,1,.009-.028.413.413,0,0,0-.072.219.223.223,0,0,0,.052.157.754.754,0,0,0,.113.091,1.325,1.325,0,0,0-.021.232,1.343,1.343,0,0,0,.654,1.145c.008.019.016.039.023.058a1.655,1.655,0,0,1,.126.755.351.351,0,0,1-.008.055c0,.018-.017.019-.025.029h0s-1.146.012-1.416-.232-.681.6-.681.6-.411.08-.493,0-.563-.011-.563-.011a1.036,1.036,0,0,0-.716-.262,2.1,2.1,0,0,0-.523-.291h0l-.013,0h0a.586.586,0,0,0-.259-.033,5.219,5.219,0,0,1-.728-.716c-.165-.251-.947-1.178-.951-1.182v-.045l-.009-.135a.487.487,0,0,1-.07.006c0-.013-.01-.029-.016-.047a2.6,2.6,0,0,0-.166-.382s0-.17.049-.213a2.936,2.936,0,0,0-.02-.668s-.508-1.187-.963-.3c0,0-.86.574-.138,1.242,0,0,.291.139.329.25.027.071.124.272.19.407l.03.058-.008.007.01.112,0,.043c-.136.077-.228.154-.206.212a1.266,1.266,0,0,1,.082.307,8.179,8.179,0,0,1,1.127,1.785,18.222,18.222,0,0,0,3.558,1.7l-.156.793a6.33,6.33,0,0,0-.035.648c.012.17-.106.943-.106.943a6.309,6.309,0,0,1-.282,1.3,2.183,2.183,0,0,0-.106.841,5.743,5.743,0,0,1-.174.966,2.469,2.469,0,0,0-.035.966s-.446,1.023.622.329c0,0,.523-.033,1.129-.053v.058c0,.078,0,.162,0,.25-.008.586-.012,1.395.015,2,.047,1.08.376,3.217.376,3.217v1.076a1.472,1.472,0,0,0-.031.307,2,2,0,0,0,.291,1.075l.083.716a2.791,2.791,0,0,1,.2.755.392.392,0,0,1-.008.068.455.455,0,0,0-.009.11,6.183,6.183,0,0,0,.185,1.1s.012.784.129.83c.1.039-.134.452-.2.57a.169.169,0,0,1,0-.022l-.015.023a.557.557,0,0,0-.037.2.285.285,0,0,0,.13.275c.223.137.343.25.153.3a1.982,1.982,0,0,0-.207.044.089.089,0,0,0-.01-.026.124.124,0,0,0-.077.137.581.581,0,0,0,.069.264,2.878,2.878,0,0,0,.318.581l.09-.01a.432.432,0,0,1-.052.1.373.373,0,0,1-.132.116.41.41,0,0,1-.161.055.453.453,0,0,0-.332.162.347.347,0,0,0,.041.539l.84.291s1.445.188,1.368-.137-.123-.608-.123-.608a1.281,1.281,0,0,0-.116-.575.755.755,0,0,0-.051-.085l.051-.005a2.66,2.66,0,0,1,.246-.853c.033-.031.04-.058.033-.074.014-.039-.023-.062-.07-.075l-.01.028a.69.69,0,0,0-.14-.016s-.047-.375.106-.511a.144.144,0,0,0,.03-.112.6.6,0,0,0-.016-.153l-.005.009a5.513,5.513,0,0,0-.337-.882,1.076,1.076,0,0,1,.083-.477,12.03,12.03,0,0,0-.012-1.853,5.6,5.6,0,0,0-.07-1.216,1.364,1.364,0,0,1,.129-.841v-.03l-.013-.131a.036.036,0,0,0,0,.008c-.024-.22-.069-.618-.1-.8-.047-.261.012-1.511.012-1.511l.211-.535.376.921.4,1.227a1.048,1.048,0,0,1,.2.523v.038a.694.694,0,0,0,0,.082.73.73,0,0,0,.121.438,1.894,1.894,0,0,0,.27.727.652.652,0,0,1,.165.432,7.534,7.534,0,0,0,.291.988,1.468,1.468,0,0,1,.082.571h0v.03s.028.3.027.553v.09a.019.019,0,0,0,0-.006.871.871,0,0,1-.024.2l0,.012a.146.146,0,0,1,0-.042,2.134,2.134,0,0,0-.058.523,1.354,1.354,0,0,0,.224.872c.317.364.517.318.517.318s-.152.454-.34.546a.087.087,0,0,0-.02.013.2.2,0,0,0,0-.027.221.221,0,0,0-.058.17,1.219,1.219,0,0,0,.232.673.379.379,0,0,0,.159.093l-.03.018a.644.644,0,0,1-.065.031.338.338,0,0,1-.1.025.447.447,0,0,0-.332.162.346.346,0,0,0,.041.539l.84.291S689.109,203.914,689.034,203.59Z"
      data-name="Path 1428" fill="url(#linear-gradient)" id="Path_1428"
      transform="translate(-645.654 -172.441)" />
  <path
      d="M795.227,637.653l-.814-.291a.353.353,0,0,1-.039-.539.435.435,0,0,1,.322-.162.384.384,0,0,0,.155-.055.373.373,0,0,0,.129-.116.6.6,0,0,0,.092-.314s.893-.261,1.137,0a.66.66,0,0,1,.108.159,1.327,1.327,0,0,1,.116.575s.045.284.119.608S795.227,637.653,795.227,637.653Z"
      data-name="Path 1429" fill="#2d293d" id="Path_1429"
      transform="translate(-757.288 -606.055)" />
  <path
      d="M863.667,630.734l-.813-.291a.352.352,0,0,1-.04-.539.43.43,0,0,1,.321-.162.3.3,0,0,0,.093-.025.624.624,0,0,0,.063-.031.514.514,0,0,0,.221-.432s.892-.262,1.137,0a.641.641,0,0,1,.085.116,1.292,1.292,0,0,1,.136.617s.045.284.116.608S863.667,630.734,863.667,630.734Z"
      data-name="Path 1430" fill="#2d293d" id="Path_1430"
      transform="translate(-821.825 -599.536)" />
  <path
      d="M807.788,636.164a.665.665,0,0,1,.108.159h0l-1.337.155a.6.6,0,0,0,.092-.314S807.544,635.9,807.788,636.164Z"
      data-name="Path 1431" id="Path_1431" opacity="0.1" transform="translate(-768.866 -606.041)" />
  <path
      d="M873.206,629.392v.251c-.208.342-1.214.267-1.506.1a.609.609,0,0,0,.063-.031.515.515,0,0,0,.221-.432s.892-.261,1.137,0A.634.634,0,0,1,873.206,629.392Z"
      data-name="Path 1432" id="Path_1432" opacity="0.1" transform="translate(-830.296 -599.553)" />
  <path
      d="M790.245,399.236a2.268,2.268,0,0,0-.159.341v.9c-.228.375-1.409.25-1.569.045s-.327-.737-.147-.829.329-.546.329-.546-.193.045-.5-.318a1.879,1.879,0,0,1-.159-1.363,4.032,4.032,0,0,0,0-.841,1.688,1.688,0,0,0-.079-.6,7.5,7.5,0,0,1-.284-.988.669.669,0,0,0-.159-.432,1.945,1.945,0,0,1-.261-.728.745.745,0,0,1-.113-.489.993.993,0,0,0-.194-.591l-.386-1.228-.364-.92-.2.534s-.058,1.25-.011,1.511.116.955.116.955a1.4,1.4,0,0,0-.125.841,5.737,5.737,0,0,1,.065,1.217,12.424,12.424,0,0,1,.011,1.852,1.108,1.108,0,0,0-.08.478s.465,1,.318,1.136-.1.511-.1.511.318,0,.182.137a2.738,2.738,0,0,0-.239.853l-1.374.161a2.862,2.862,0,0,1-.307-.581c-.182-.422.034-.375.217-.421s.068-.159-.149-.3-.091-.443-.091-.443.329-.557.216-.6-.125-.83-.125-.83a5.05,5.05,0,0,1-.17-1.182,2.261,2.261,0,0,0-.182-.852l-.08-.716a1.971,1.971,0,0,1-.25-1.353v-1.1s-.318-2.136-.364-3.216c-.029-.692-.021-1.635-.012-2.224.006-.33.012-.549.012-.549l4.909-.511a4.116,4.116,0,0,0,.089.729c.051.27.129.619.252,1.055a4.8,4.8,0,0,1,.137,2.182l-.046,1.58a4.022,4.022,0,0,1,.341,1.42,3.028,3.028,0,0,0-.092.66,11.048,11.048,0,0,1,.864,2.978,4.335,4.335,0,0,0,.318,1.728A2.613,2.613,0,0,1,790.245,399.236Z"
      data-name="Path 1433" fill="#464353" id="Path_1433"
      transform="translate(-747.177 -370.462)" />
  <path d="M852.05,509.469l1.495-.2S852.7,510.134,852.05,509.469Z" data-name="Path 1434"
      id="Path_1434" opacity="0.05" transform="translate(-811.788 -486.61)" />
  <path d="M869.633,484.14s.051.529-.273.728C869.36,484.868,869.939,484.777,869.633,484.14Z"
      data-name="Path 1435" id="Path_1435" opacity="0.1" transform="translate(-828.092 -462.937)" />
  <path d="M843.835,455.2s-1.249,1.029-1.7.943S843.835,455.2,843.835,455.2Z" data-name="Path 1436"
      id="Path_1436" opacity="0.1" transform="translate(-802.386 -435.674)" />
  <path d="M804.318,521s-.949.216-.977.6S804.318,521,804.318,521Z" data-name="Path 1437"
      id="Path_1437" opacity="0.1" transform="translate(-765.829 -497.661)" />
  <path d="M807.1,602.56s-1.341.25-.96.42a6.516,6.516,0,0,0,1.006.307S807.576,603.31,807.1,602.56Z"
      data-name="Path 1438" id="Path_1438" opacity="0.05"
      transform="translate(-768.403 -574.494)" />
  <g data-name="Group 294" id="Group_294" opacity="0.05" transform="translate(36.275 15.963)">
    <path
        d="M799.784,611.3a.264.264,0,0,1-.123-.194l-.014.024s-.125.307.091.443l.07.046c.04-.008.083-.013.124-.024C800.116,611.554,800,611.441,799.784,611.3Z"
        data-name="Path 1439" id="Path_1439" transform="translate(-798.673 -598.501)" />
    <path
        d="M831.283,609.112c.037-.034.036-.121.013-.232a.654.654,0,0,0-.076.329A.282.282,0,0,1,831.283,609.112Z"
        data-name="Path 1440" id="Path_1440" transform="translate(-828.444 -596.401)" />
    <path d="M827.281,515.59a1.551,1.551,0,0,0-.091.418,1.676,1.676,0,0,1,.1-.287Z"
        data-name="Path 1441" id="Path_1441" transform="translate(-824.648 -508.532)" />
    <path
        d="M881.185,503.314a.539.539,0,0,0,.012-.124c-.017.085-.028.163-.037.232C881.168,503.387,881.176,503.353,881.185,503.314Z"
        data-name="Path 1442" id="Path_1442" transform="translate(-875.482 -496.853)" />
    <path
        d="M827.682,581.023a.729.729,0,0,0,.034-.253.857.857,0,0,0-.066.319A.3.3,0,0,1,827.682,581.023Z"
        data-name="Path 1443" id="Path_1443" transform="translate(-825.081 -569.924)" />
    <path
        d="M801.342,622a4.512,4.512,0,0,0-.156.7l-1.374.159a2.854,2.854,0,0,1-.307-.581,1.045,1.045,0,0,1-.039-.1c-.083.038-.116.123-.007.372a2.9,2.9,0,0,0,.308.581l1.374-.159a2.735,2.735,0,0,1,.238-.853C801.448,622.051,801.405,622.017,801.342,622Z"
        data-name="Path 1444" id="Path_1444" transform="translate(-798.462 -608.758)" />
    <path
        d="M784.515,405.34s.011.784.125.829h0c.058-.13.1-.253.045-.273-.116-.045-.125-.83-.125-.83a5.047,5.047,0,0,1-.17-1.182,2.263,2.263,0,0,0-.182-.852l-.08-.716a1.969,1.969,0,0,1-.25-1.353v-1.1s-.318-2.136-.364-3.216c-.029-.692-.021-1.635-.012-2.224,0-.106,0-.2.005-.28l-.039,0s-.006.219-.012.549c-.009.589-.018,1.532.012,2.223.045,1.08.363,3.216.363,3.216v1.1a1.973,1.973,0,0,0,.25,1.352l.079.716a2.273,2.273,0,0,1,.182.852A5.061,5.061,0,0,0,784.515,405.34Z"
        data-name="Path 1445" id="Path_1445" transform="translate(-783.448 -394.14)" />
    <path
        d="M867.018,622.71a1.33,1.33,0,0,1-.218-.54c-.14.127.021.618.174.814s1.341.329,1.569-.046v-.216A1.641,1.641,0,0,1,867.018,622.71Z"
        data-name="Path 1446" id="Path_1446" transform="translate(-861.905 -608.919)" />
    <path
        d="M898.559,609.237a2.311,2.311,0,0,0-.159.341v.161a2.374,2.374,0,0,1,.116-.228.7.7,0,0,0,.05-.282Z"
        data-name="Path 1447" id="Path_1447" transform="translate(-891.72 -596.731)" />
    <path
        d="M862.069,585.229a2.258,2.258,0,0,0,.112-.27s-.193.045-.5-.318a1.615,1.615,0,0,1-.2-1.091,1.875,1.875,0,0,0,.159,1.364A.81.81,0,0,0,862.069,585.229Z"
        data-name="Path 1448" id="Path_1448" transform="translate(-856.887 -572.543)" />
    <path
        d="M829.887,467.761a6.08,6.08,0,0,1,.023.674.91.91,0,0,1,.023-.105,3.947,3.947,0,0,0,0-.841,1.678,1.678,0,0,0-.08-.6,7.344,7.344,0,0,1-.281-.989.669.669,0,0,0-.159-.432,1.944,1.944,0,0,1-.262-.728.748.748,0,0,1-.116-.489.99.99,0,0,0-.193-.591l-.386-1.227-.364-.921-.205.535s0,.067-.007.174l.166-.434.364.919.386,1.227a.99.99,0,0,1,.193.591.748.748,0,0,0,.116.489,1.938,1.938,0,0,0,.261.728.665.665,0,0,1,.159.432,7.466,7.466,0,0,0,.284.988A1.682,1.682,0,0,1,829.887,467.761Z"
        data-name="Path 1449" id="Path_1449" transform="translate(-825.298 -457.595)" />
  </g>
  <path
      d="M860.738,191.93l-.085.415.005.185,0,.136-.474.049-.053-.1h0a4.405,4.405,0,0,0-.368-.6c-.088-.073-.244-1.227-.058-1.159a.5.5,0,0,1,.264.239S860.906,191.208,860.738,191.93Z"
      data-name="Path 1450" fill="#ffcdd3" id="Path_1450"
      transform="translate(-818.919 -186.639)" />
  <path d="M868.977,218.836l-.474.049-.053-.1h0a.418.418,0,0,1,.523-.086Z" data-name="Path 1451"
      id="Path_1451" opacity="0.1" transform="translate(-827.235 -212.809)" />
  <path d="M868.654,219.759l-.625.145-.013-.093-.036-.25a.43.43,0,0,1,.606-.083l.031.127Z"
      data-name="Path 1452" fill="#25b6c7" id="Path_1452"
      transform="translate(-826.792 -213.507)" />
  <path
      d="M680.861,177.731l-.668.358-.058-.126c-.063-.133-.158-.334-.184-.407-.04-.11-.318-.25-.318-.25a.771.771,0,0,1,.134-1.242c.44-.886.93.3.93.3a3.01,3.01,0,0,1,.02.668c-.048.042-.048.213-.048.213a2.623,2.623,0,0,1,.161.382C680.85,177.692,680.861,177.731,680.861,177.731Z"
      data-name="Path 1453" fill="#ffcdd3" id="Path_1453"
      transform="translate(-648.992 -172.394)" />
  <path
      d="M693.516,208.35l-.668.358-.058-.125c.094-.079.428-.349.538-.338a.8.8,0,0,0,.158,0C693.5,208.311,693.516,208.35,693.516,208.35Z"
      data-name="Path 1454" id="Path_1454" opacity="0.1" transform="translate(-661.649 -203.013)" />
  <path
      d="M693.876,209.294l-.75.37-.015-.161-.01-.112s.435-.372.563-.358a.685.685,0,0,0,.2,0l.009.135Z"
      data-name="Path 1455" fill="#25b6c7" id="Path_1455"
      transform="translate(-661.941 -203.756)" />
  <path
      d="M803.215,215.622s-3.271.369-2.659.17a.817.817,0,0,0,.63-.709,1.7,1.7,0,0,0-.121-.755,3.3,3.3,0,0,0-.291-.591s2.5-1.375,2-.125a2.02,2.02,0,0,0-.142.592,1.676,1.676,0,0,0,.064.6,1.786,1.786,0,0,0,.519.818Z"
      data-name="Path 1456" fill="#ffcdd3" id="Path_1456"
      transform="translate(-763.146 -207.575)" />
  <path
      d="M807.538,213.582a2.013,2.013,0,0,0-.142.592,1.15,1.15,0,0,1-.825.185,1.477,1.477,0,0,1-.74-.061,3.29,3.29,0,0,0-.291-.591S808.038,212.332,807.538,213.582Z"
      data-name="Path 1457" id="Path_1457" opacity="0.1" transform="translate(-767.91 -207.547)" />
  <circle cx="1.352" cy="1.352" data-name="Ellipse 291" fill="#ffcdd3" id="Ellipse_291" r="1.352"
      transform="translate(37.263 4.195)" />
  <path
      d="M803.215,241.133s-3.271.369-2.659.17a.817.817,0,0,0,.63-.709,1.824,1.824,0,0,1,.7-.371.978.978,0,0,1,.593-.01.846.846,0,0,1,.216.1A1.785,1.785,0,0,0,803.215,241.133Z"
      data-name="Path 1458" id="Path_1458" opacity="0.1" transform="translate(-763.146 -233.106)" />
  <path d="M869.229,222.958l-.625.145-.013-.093a.553.553,0,0,1,.6-.206Z" data-name="Path 1459"
      id="Path_1459" opacity="0.1" transform="translate(-827.367 -216.706)" />
  <path d="M694.045,211.477l-.75.37-.015-.161a5.469,5.469,0,0,1,.755-.335Z" data-name="Path 1460"
      id="Path_1460" opacity="0.1" transform="translate(-662.111 -205.939)" />
  <path
      d="M788.61,386.7a20.177,20.177,0,0,1-3.355.373,8.379,8.379,0,0,0-1.655-.042c.006-.33.012-.549.012-.549l4.909-.511A4.105,4.105,0,0,0,788.61,386.7Z"
      data-name="Path 1461" id="Path_1461" opacity="0.1" transform="translate(-747.316 -370.456)" />
  <path
      d="M701.613,222.655a37.937,37.937,0,0,1-4.618.581,18.145,18.145,0,0,0-2.746.011c-1.034.693-.6-.329-.6-.329a2.542,2.542,0,0,1,.034-.966,5.9,5.9,0,0,0,.171-.967,2.253,2.253,0,0,1,.1-.841,6.477,6.477,0,0,0,.273-1.3s.113-.773.1-.943.034-.648.034-.648l.148-.8a17.4,17.4,0,0,1-3.444-1.7,8.214,8.214,0,0,0-1.091-1.784,1.313,1.313,0,0,0-.08-.307c-.068-.182.955-.546.955-.546s.761.93.921,1.182a5.066,5.066,0,0,0,.7.716.548.548,0,0,1,.25.033l.013,0h0a2.028,2.028,0,0,1,.508.291.988.988,0,0,1,.693.262s.465-.069.546.011.477,0,.477,0,.4-.841.659-.6,1.371.232,1.371.232a1.606,1.606,0,0,1,.732-.407.983.983,0,0,1,.593-.01.754.754,0,0,1,.232.116l.675.659s.193-.25.17-.307.227-.1.227-.1.329-.1.454-.137.239.1.25.113a1.358,1.358,0,0,1-.058-.5.59.59,0,0,0-.137-.407c.4-.977,1.3-.159,1.3-.159a1.874,1.874,0,0,1,.012.739c-.091.2.091.636.068.75s.046.307.046.523a3.2,3.2,0,0,1-.182.807c-.066.182-.614.591-.614.591a2.566,2.566,0,0,1-.273,1.023,4.116,4.116,0,0,0-.089,1.657,4.281,4.281,0,0,0,.511,1.319A9.76,9.76,0,0,1,701.613,222.655Z"
      data-name="Path 1462" fill="#3f3d56" id="Path_1462"
      transform="translate(-659.056 -206.664)" />
  <path
      d="M777.718,253.464s-.125-.375-.239-.407a2.625,2.625,0,0,1-.33-.148l.073-.14s.427.116.5.242A.966.966,0,0,1,777.718,253.464Z"
      data-name="Path 1463" id="Path_1463" opacity="0.1" transform="translate(-741.146 -244.974)" />
  <path
      d="M730.854,245.637c-.023.116-1.034.216-1.034.216l.511-.513h0l.013,0h0A2.025,2.025,0,0,1,730.854,245.637Z"
      data-name="Path 1464" id="Path_1464" opacity="0.1" transform="translate(-696.547 -237.974)" />
  <circle cx="0.091" cy="0.091" data-name="Ellipse 292" fill="#575988" id="Ellipse_292" r="0.091"
      transform="translate(31.312 6.033)" />
  <circle cx="0.091" cy="0.091" data-name="Ellipse 293" fill="#575988" id="Ellipse_293" r="0.091"
      transform="translate(31.427 6.215)" />
  <circle cx="0.091" cy="0.091" data-name="Ellipse 294" fill="#575988" id="Ellipse_294" r="0.091"
      transform="translate(31.54 6.383)" />
  <circle cx="0.091" cy="0.091" data-name="Ellipse 295" fill="#575988" id="Ellipse_295" r="0.091"
      transform="translate(31.658 6.564)" />
  <circle cx="0.074" cy="0.074" data-name="Ellipse 296" fill="#575988" id="Ellipse_296" r="0.074"
      transform="translate(42.254 6.571)" />
  <circle cx="0.074" cy="0.074" data-name="Ellipse 297" fill="#575988" id="Ellipse_297" r="0.074"
      transform="translate(42.266 6.739)" />
  <circle cx="0.074" cy="0.074" data-name="Ellipse 298" fill="#575988" id="Ellipse_298" r="0.074"
      transform="translate(42.276 6.907)" />
  <path d="M787,317.719c-.011-.013,2.551,3.222,4.54,1.352C791.541,319.072,788.4,319.5,787,317.719Z"
      data-name="Path 1465" id="Path_1465" opacity="0.1" transform="translate(-750.518 -306.16)" />
  <path
      d="M761.7,346.66s1.533.042,1.693.483v.459a.294.294,0,0,1-.285,0c-.155-.084-1.081-.554-1.408-.328Z"
      data-name="Path 1466" id="Path_1466" opacity="0.1" transform="translate(-726.594 -333.423)" />
  <path
      d="M762.19,346.66s1.466.04,1.62.461v.437a.281.281,0,0,1-.273,0c-.148-.079-1.034-.528-1.346-.312Z"
      data-name="Path 1467" fill="#3f3d56" id="Path_1467"
      transform="translate(-727.055 -333.423)" />
  <path
      d="M776.1,289.38a4.933,4.933,0,0,0,.594,1.02,4,4,0,0,0,.93.9A18.024,18.024,0,0,1,776.1,289.38Z"
      data-name="Path 1468" id="Path_1468" opacity="0.1" transform="translate(-740.163 -279.463)" />
  <path d="M767.47,258.73a2.626,2.626,0,0,0,.915,1.479Z" data-name="Path 1469" id="Path_1469"
      opacity="0.1" transform="translate(-732.026 -250.589)" />
  <path d="M760.35,260.644a1.22,1.22,0,0,0,.85,1.367S760.742,261.857,760.35,260.644Z"
      data-name="Path 1470" id="Path_1470" opacity="0.1" transform="translate(-725.295 -252.392)" />
  <path d="M875.9,247.9a7.676,7.676,0,0,1,.681.511S876.228,247.875,875.9,247.9Z"
      data-name="Path 1471" id="Path_1471" opacity="0.1" transform="translate(-834.255 -240.383)" />
  <path
      d="M798,185.309a.213.213,0,0,0,.232.211,2.7,2.7,0,0,0,1.22-.116.465.465,0,0,0,.186-.123.767.767,0,0,0,.108-.3,4.357,4.357,0,0,1,.249-.574,1.924,1.924,0,0,0,.134-1.031.7.7,0,0,0-.1-.3c-.109-.156-.309-.22-.453-.344s-.238-.314-.407-.407a.781.781,0,0,0-.51-.045,2.677,2.677,0,0,0-.952.357.486.486,0,0,1-.319.108.426.426,0,0,1-.232-.18,1.259,1.259,0,0,0-.1.59.259.259,0,0,1,0,.089.266.266,0,0,1-.063.094.344.344,0,0,0-.064.425c.043.052.111.08.153.133.076.095.051.232.049.353a.182.182,0,0,0,.03.12.175.175,0,0,0,.167.04.455.455,0,0,1,.178-.017.3.3,0,0,1,.155.116A2.186,2.186,0,0,1,798,185.309Z"
      data-name="Path 1472" fill="#2d293d" id="Path_1472"
      transform="translate(-759.755 -178.536)" />
  <g data-name="Group 295" id="Group_295" opacity="0.1" transform="translate(37.126 4.016)">
    <path
        d="M799.689,203.491a.465.465,0,0,1-.186.123,2.742,2.742,0,0,1-1.22.116.214.214,0,0,1-.233-.212,2.119,2.119,0,0,0-.345-.8.3.3,0,0,0-.155-.119.477.477,0,0,0-.178.017.174.174,0,0,1-.167-.04.182.182,0,0,1-.03-.12c0-.122.027-.259-.049-.353-.042-.053-.11-.081-.153-.134a.265.265,0,0,1-.026-.271.31.31,0,0,0-.019.362c.044.052.111.08.153.133.076.1.05.232.049.353a.181.181,0,0,0,.03.12.174.174,0,0,0,.167.04.454.454,0,0,1,.178-.017.3.3,0,0,1,.155.116,2.124,2.124,0,0,1,.345.8.291.291,0,0,0,.1.184.283.283,0,0,0,.128.028,2.7,2.7,0,0,0,1.22-.116.46.46,0,0,0,.186-.123.36.36,0,0,0,.058-.109A.029.029,0,0,1,799.689,203.491Z"
        data-name="Path 1473" id="Path_1473" transform="translate(-796.877 -200.865)" />
    <path
        d="M799.938,187.985a.2.2,0,0,0,.041-.069.253.253,0,0,0,0-.089,1.258,1.258,0,0,1,.063-.489l-.008-.009a1.248,1.248,0,0,0-.1.589.429.429,0,0,1,0,.066Z"
        data-name="Path 1474" id="Path_1474" transform="translate(-799.757 -187.33)" />
  </g>
  <path d="M812.08,248.4s1.689.224,1.841-.03" data-name="Path 1475" id="Path_1475" opacity="0.1"
      transform="translate(-774.072 -240.807)" />
  <path d="M868.59,236.85s.939,0,1.145.353" data-name="Path 1476" id="Path_1476" opacity="0.1"
      transform="translate(-827.367 -229.957)" />
</svg>
