<svg height="181.434" viewBox="0 0 245.971 181.434" width="245.971"
    xmlns="http://www.w3.org/2000/svg">
  <defs>
    <linearGradient gradientUnits="objectBoundingBox" id="linear-gradient" x1="0.5" x2="0.5" y1="1">
      <stop offset="0" stop-color="gray" stop-opacity="0.251" />
      <stop offset="0.54" stop-color="gray" stop-opacity="0.122" />
      <stop offset="1" stop-color="gray" stop-opacity="0.102" />
    </linearGradient>
  </defs>
  <g data-name="Group 304" id="Group_304" transform="translate(-68.029 -205)">
    <path
        d="M61.83,433.31c3.884,15.011,12.1,27.986,25.082,34.276,26.989,13.072,87.856,6.33,133.284-1.409,23.5-4,44.153-15.049,59.157-30.594Z"
        data-name="Path 775" fill="#6c63ff" id="Path_775" opacity="0.1"
        transform="translate(8.849 -141.324)" />
    <path
        d="M321.843,60.623H296.917a1.958,1.958,0,1,1,0-3.9h4.311a1.958,1.958,0,1,1,0-3.9h-3.077a1.959,1.959,0,1,1,0-3.9h13.009A37.28,37.28,0,0,0,301.012,46.4c-35.475-4.121-48.14-1.4-52.607,1.406a52.44,52.44,0,0,1-18.233,7.231c-21.886,4.085-62.817,9-99.915-1.565C111.818,48.211,98.113,57.09,89.9,71.933H326.172a32.073,32.073,0,0,0-2.927-11.784,2.274,2.274,0,0,1-1.4.474Z"
        data-name="Path 776" fill="#6c63ff" id="Path_776" opacity="0.1"
        transform="translate(-12.944 160.706)" />
    <path
        d="M50.518,293.19a90.008,90.008,0,0,0,.966,26.189l218.837,7.243a92.843,92.843,0,0,0,15.205-20.979Zm86.553,18.682h-4.309a1.959,1.959,0,1,1,0,3.9H107.836a1.958,1.958,0,1,1,0-3.9h4.311a1.958,1.958,0,1,1,0-3.9h-3.079a1.959,1.959,0,1,1,0-3.9h24.925a1.958,1.958,0,1,1,0,3.9h3.077a1.958,1.958,0,1,1,0,3.9Z"
        data-name="Path 777" fill="#6c63ff" id="Path_777" opacity="0.1"
        transform="translate(18.048 -32.536)" />
    <path
        d="M297.159,168.5,58.242,173.755a79.268,79.268,0,0,0-5.722,22.322H292.973a84.813,84.813,0,0,0,3.47-14.228A60.909,60.909,0,0,0,297.159,168.5Zm-196.13,17.229H96.72a1.96,1.96,0,1,1,0,3.9H71.795a1.959,1.959,0,1,1,0-3.9h4.311a1.958,1.958,0,1,1,0-3.9H73.027a1.959,1.959,0,1,1,0-3.9H97.952a1.958,1.958,0,1,1,0,3.9h3.077a1.958,1.958,0,1,1,0,3.9Z"
        data-name="Path 778" fill="#6c63ff" id="Path_778" opacity="0.1"
        transform="translate(16.077 64.273)" />
    <ellipse cx="99.947" cy="9.195" data-name="Ellipse 56" fill="#6c63ff" id="Ellipse_56"
        opacity="0.1" rx="99.947" ry="9.195" transform="translate(89.967 361.263)" />
    <path
        d="M882.184,338.724a.335.335,0,0,1,0-.047v-.069h0a1.908,1.908,0,0,0-.284-.718,5.654,5.654,0,0,0-2.071-1.959c-1.476-.809-3.5-1.156-4.094-2.7a8.251,8.251,0,0,1-.275-1.5,4.537,4.537,0,0,0-2.994-3.405c-.7-.235-1.46-.3-2.142-.59-1.525-.648-2.33-2.247-3.012-3.725l-2.647-5.727a2.227,2.227,0,0,1-2.167-.244,4.5,4.5,0,0,1-1.4-1.733c-.91-1.766-1.3-3.768-2.37-5.449s-3.2-3.01-5.091-2.279a8.684,8.684,0,0,1-1.14.472c-1.617.378-3.406-1.469-4.79-.572a1.565,1.565,0,0,0-.543.595.273.273,0,0,1,0-.045,2.859,2.859,0,0,0-.3,1.167h0v.282c0,.322.02.648.025.975a4.336,4.336,0,0,1-.063.818v-.022a2.757,2.757,0,0,1-.116.447c-.36.966-1.357,1.6-1.825,2.507v-.045a2.36,2.36,0,0,0-.136.306,2.281,2.281,0,0,0-.127.74c-.04,1.706,1.769,3.312,1.979,5.143a2.734,2.734,0,0,0,1.55,2.446l.242.161c-.1,0-.195.013-.3.016a.745.745,0,0,0-.128.013,1.364,1.364,0,0,0-1.149.2c-.845.671-2.844.154-3.732,0s-3.929.262-4.354,1.948-1.154,5.165-1.154,5.165a10.066,10.066,0,0,1-.271,2.618.132.132,0,0,0,0,.089c0,.619.022,4.342-.577,5.3a2.166,2.166,0,0,0-.027,1.326,3.981,3.981,0,0,0-1.118,2.381c.192,1.272,2.773,5.273,6.471,3.13,0,0,2.1-3.848-.543-5.894l.114-.447c.8.984,1.393,1.69,1.393,1.69s.031.083.081.224h-.081a10.509,10.509,0,0,1,.622,2.925,3.579,3.579,0,0,1-.2,1.076h.069c-.02.076-.042.152-.069.224a1.95,1.95,0,0,1-.7.941c-1.849,1.31-3.967,10.668-3.967,10.668s-4.195,15.127-5.033,15.988c-.693.707,3.663,2.7,6.932,2.46a5.334,5.334,0,0,0,1.342-.255c.02.224.043.447.065.651.069.671.141,1.292.186,1.487.116.487.347,5.465.347,5.465a35.114,35.114,0,0,0-.358,5.483c0,.154.02.3.034.447l-.407.063c-.617,1.386,1.925,12.953,2.272,13.926a9.261,9.261,0,0,1,.385,2.359,2.573,2.573,0,0,0-.038,1.272,3.093,3.093,0,0,1,.224.861,2.371,2.371,0,0,0,.078,1.234,2.336,2.336,0,0,1-.038,1.342,20.527,20.527,0,0,1-.769,5.2,3,3,0,0,0,.481,2.969,1.818,1.818,0,0,0,.156.181s3.824.031,4.5,0h.087c.271-.038.964-3.07.347-4.53a5.511,5.511,0,0,1-.076-3.258V408.24s.693-.64,0-2.012-.579-1.789-.579-1.789.771-2.209-.038-2.92.154-3.408.154-3.408l.273-8.989a3.534,3.534,0,0,0-.436-.112c-.016-.148-.031-.3-.047-.461-.159-1.628-.3-3.842.058-4.472s.523-6.136.579-9.962l3.524.134c.074,1.789.152,3.421.2,3.629.116.487.349,5.465.349,5.465a34.994,34.994,0,0,0-.36,5.483c0,.154.02.3.034.447l-.407.063c-.617,1.386,1.925,12.953,2.272,13.926a9.315,9.315,0,0,1,.387,2.359,2.59,2.59,0,0,0-.04,1.272,3.093,3.093,0,0,1,.224.861,2.37,2.37,0,0,0,.078,1.234,2.336,2.336,0,0,1-.038,1.342,20.528,20.528,0,0,1-.769,5.2,3,3,0,0,0,.5,2.965,1.837,1.837,0,0,0,.156.181s3.824.031,4.5,0h.087c.271-.038.964-3.07.347-4.53a5.511,5.511,0,0,1-.076-3.258V408.24s.693-.64,0-2.012-.579-1.789-.579-1.789.771-2.209-.038-2.92.154-3.408.154-3.408l.277-8.989a3.439,3.439,0,0,0-.447-.112c-.016-.148-.031-.3-.047-.461-.159-1.628-.3-3.842.058-4.472.284-.517.447-3.844.521-7.093,0-.224,0-.447.018-.671a34.682,34.682,0,0,0,4.825-.541s-1.885-6.666-1.308-7.75c.248-.467-.11-2.956-.6-5.637a3.918,3.918,0,0,0,2.41.872c.843,1.621,3.408,5.351,4.852,5.926,1.695.671.423-5.277-.385-6.138a7.241,7.241,0,0,1-.957-1.536c.022-.027.047-.049.069-.074s.04-6.328-.347-6.214-.847-.937-.847-.937l-1.194-10.48-.5-4.387h0c.418.309.915.505,1.342.812,1.163.852,1.543,2.348,2.053,3.672a6.031,6.031,0,0,0,1.979,2.853,2.991,2.991,0,0,0,3.354.172,4.356,4.356,0,0,0,1.355-2.9,2.654,2.654,0,0,0,3.383-2.621c-.051-.411-.2-.861.011-1.221.429-.711,1.789-.3,2.236-1a.747.747,0,0,0,.112-.4A.274.274,0,0,0,882.184,338.724Zm-21.714,5.765c-.025.4.525,3.616.973,6.16a7.807,7.807,0,0,0-2.551-4.439,2,2,0,0,0-.018-.224h.018s-.06-.639-.069-1.55a17.083,17.083,0,0,1,.179-2.41v-.02h-.029a1.277,1.277,0,0,1,.029-.2,7.271,7.271,0,0,1,.543-1.954,5.417,5.417,0,0,1,.414-.7c.239,2.162.534,4.937.512,5.342Zm1.2,7.451c.2,1.1.338,1.869.338,1.869l1.187,8.153V362c-.64-3.441-1.456-7.068-1.456-7.068A14.083,14.083,0,0,0,861.673,351.939Z"
        data-name="Path 779" fill="url(#linear-gradient)" id="Path_779"
        transform="translate(-590.405 -44.212)" />
    <path
        d="M887.175,323.518c-.224-2.066-2.46-3.848-1.789-5.814.364-1.071,1.5-1.726,1.889-2.791a6.516,6.516,0,0,0,.143-2.22,2.331,2.331,0,0,1,.8-1.995c1.342-.894,3.068.946,4.633.57a8.2,8.2,0,0,0,1.1-.47c1.827-.727,3.893.6,4.919,2.27s1.411,3.667,2.292,5.425a4.449,4.449,0,0,0,1.355,1.724,2.106,2.106,0,0,0,2.1.244l2.56,5.7c.671,1.469,1.44,3.061,2.907,3.707.657.288,1.391.353,2.071.588a4.472,4.472,0,0,1,2.907,3.388,8.345,8.345,0,0,0,.266,1.5c.57,1.538,2.531,1.883,3.96,2.683a5.539,5.539,0,0,1,2.013,1.948,1.29,1.29,0,0,1,.177,1.275c-.432.7-1.744.286-2.16,1a1.858,1.858,0,0,0,0,1.216,2.585,2.585,0,0,1-3.273,2.607,4.393,4.393,0,0,1-1.31,2.882,2.816,2.816,0,0,1-3.24-.17,5.993,5.993,0,0,1-1.912-2.84c-.494-1.319-.863-2.808-1.988-3.656-.407-.3-.894-.5-1.292-.807a5.453,5.453,0,0,1-1.661-2.907,30.432,30.432,0,0,0-1.342-4.054,6.1,6.1,0,0,0-2.846-3.075c-1.219-.548-2.623-.512-3.882-.957-2.167-.765-3.77-2.587-5.926-3.446a9.592,9.592,0,0,1-1.945-1.1A2.672,2.672,0,0,1,887.175,323.518Z"
        data-name="Path 780" fill="#3f3d56" id="Path_780" transform="translate(-630.459 -45.937)" />
    <g data-name="Group 156" id="Group_156" opacity="0.1" transform="translate(254.817 265.305)">
      <path
          d="M894.72,317.223a2.262,2.262,0,0,0,.121-.271,6.573,6.573,0,0,0,.143-2.22,4,4,0,0,1,.069-.742,3.131,3.131,0,0,0-.293,1.413A10.279,10.279,0,0,1,894.72,317.223Z"
          data-name="Path 781" id="Path_781" transform="translate(-892.62 -313.99)" />
      <path
          d="M915,372.229a2.817,2.817,0,0,1-3.24-.172,5.894,5.894,0,0,1-1.9-2.842c-.494-1.319-.861-2.808-1.988-3.656-.4-.3-.894-.5-1.29-.807a5.481,5.481,0,0,1-1.664-2.9,30.094,30.094,0,0,0-1.342-4.054,6.1,6.1,0,0,0-2.846-3.075c-1.216-.548-2.621-.512-3.88-.957-2.169-.765-3.772-2.587-5.926-3.446a9.712,9.712,0,0,1-1.948-1.1,2.764,2.764,0,0,1-1.5-2.435c-.224-1.936-2.191-3.625-1.885-5.449a2.842,2.842,0,0,0-.132.3c-.671,1.968,1.565,3.75,1.789,5.814a2.759,2.759,0,0,0,1.5,2.435,9.712,9.712,0,0,0,1.948,1.1c2.153.859,3.756,2.683,5.925,3.446,1.259.447,2.663.409,3.88.957a6.149,6.149,0,0,1,2.847,3.075,27.426,27.426,0,0,1,1.342,4.054,5.468,5.468,0,0,0,1.664,2.9c.4.3.894.5,1.29.807,1.118.847,1.494,2.337,1.988,3.656a5.991,5.991,0,0,0,1.914,2.838,2.82,2.82,0,0,0,3.24.172,3.3,3.3,0,0,0,1.094-1.86A2.746,2.746,0,0,1,915,372.229Z"
          data-name="Path 782" id="Path_782" transform="translate(-885.331 -335.224)" />
      <path
          d="M1038.166,446.54a.942.942,0,0,0-.107.523c.505-.5,1.646-.206,2.044-.847a.817.817,0,0,0,.1-.525C1039.686,446.182,1038.546,445.889,1038.166,446.54Z"
          data-name="Path 783" id="Path_783" transform="translate(-1003.905 -416.241)" />
      <path
          d="M1023.379,461.862c-.042.224-.085.463-.139.7a2.625,2.625,0,0,0,3.173-2.057A2.6,2.6,0,0,1,1023.379,461.862Z"
          data-name="Path 784" id="Path_784" transform="translate(-992.403 -427.74)" />
    </g>
    <path
        d="M899.231,369.245s.745,1.5-1.453,1.534,1.415,9.758,1.415,9.758l3.654,4.651,4.546-2.46.262-6.784.335-4.1s-4.248-1.38-3.466-3.2S899.231,369.245,899.231,369.245Z"
        data-name="Path 785" fill="#fbbebe" id="Path_785" transform="translate(-639.627 -90.588)" />
    <path
        d="M976.891,537.87a17.525,17.525,0,0,0,1.863,3.689c.783.856,2.012,6.782.373,6.111s-4.769-5.664-4.957-6.52a28.977,28.977,0,0,1-.259-3.28Z"
        data-name="Path 788" fill="#fbbebe" id="Path_788"
        transform="translate(-699.286 -222.504)" />
    <path
        d="M880.022,600.671c-.342.637-.21,2.842-.056,4.472.1,1.038.206,1.836.206,1.836s-5.4,1.677-6.223.224a4.419,4.419,0,0,1-.347-1.773,35.757,35.757,0,0,1,.347-5.458s-.224-4.955-.335-5.44c-.045-.195-.114-.812-.181-1.48-.1-.993-.192-2.1-.192-2.1l7.379-3.913s0,.733-.013,1.863C880.565,592.449,880.447,599.888,880.022,600.671Z"
        data-name="Path 791" fill="#fbbebe" id="Path_791" transform="translate(-621.127 -260.68)" />
    <path
        d="M881.43,669.39s-5.4,1.677-6.223.224a4.42,4.42,0,0,1-.347-1.773,24.3,24.3,0,0,1,6.364-.286C881.322,668.592,881.43,669.39,881.43,669.39Z"
        data-name="Path 792" id="Path_792" opacity="0.1" transform="translate(-622.385 -323.091)" />
    <path
        d="M880.034,699.116h-.085c-.651.025-4.349,0-4.349,0a2.012,2.012,0,0,1-.152-.179,3.05,3.05,0,0,1-.481-2.952,21.007,21.007,0,0,0,.745-5.181,2.4,2.4,0,0,0,.038-1.342,2.422,2.422,0,0,1-.076-1.23,3.185,3.185,0,0,0-.224-.856,2.554,2.554,0,0,1,.038-1.268,9.486,9.486,0,0,0-.373-2.348c-.335-.968-2.8-12.484-2.2-13.864,0,0,5.217-.894,7.193-.224l-.262,8.944s-.932,2.683-.15,3.392.038,2.907.038,2.907-.112.409.559,1.789,0,2.012,0,2.012v2.645a5.657,5.657,0,0,0,.074,3.242C880.964,696.059,880.3,699.069,880.034,699.116Z"
        data-name="Path 793" fill="#3f3d56" id="Path_793"
        transform="translate(-620.804 -324.643)" />
    <path
        d="M927.312,596.711c-.342.637-.21,2.842-.056,4.472.1,1.038.206,1.836.206,1.836s-5.4,1.677-6.223.224a4.419,4.419,0,0,1-.347-1.773,35.765,35.765,0,0,1,.347-5.458s-.224-4.955-.335-5.44c-.06-.262-.165-2.757-.248-5-.069-1.91-.125-3.636-.125-3.636l7.379,1.14s0,3.245-.092,6.578C927.737,592.892,927.587,596.206,927.312,596.711Z"
        data-name="Path 794" fill="#fbbebe" id="Path_794" transform="translate(-657.842 -256.72)" />
    <path
        d="M928.72,669.39s-5.4,1.677-6.223.224a4.42,4.42,0,0,1-.347-1.773,24.3,24.3,0,0,1,6.364-.286C928.612,668.592,928.72,669.39,928.72,669.39Z"
        data-name="Path 795" id="Path_795" opacity="0.1" transform="translate(-659.1 -323.091)" />
    <circle cx="5.255" cy="5.255" data-name="Ellipse 57" id="Ellipse_57" opacity="0.1" r="5.255"
        transform="translate(257.257 269.905)" />
    <circle cx="5.255" cy="5.255" data-name="Ellipse 58" fill="#fbbebe" id="Ellipse_58" r="5.255"
        transform="translate(257.257 269.681)" />
    <path
        d="M873.24,590.953l7.379-3.913s0,.733-.013,1.863c-1.078.644-2.7,1.612-4.266,2.527-.85.5-1.679.982-2.39,1.386a3.172,3.172,0,0,1-.517.224C873.334,592.058,873.24,590.953,873.24,590.953Z"
        data-name="Path 797" id="Path_797" opacity="0.1" transform="translate(-621.127 -260.68)" />
    <path
        d="M927.94,583.04s0,3.245-.092,6.578h-.027a12.406,12.406,0,0,1-1.652-.051c-.964-.1-1.735-.358-2.012-.863a13.217,13.217,0,0,0-3.461-3.169c-.069-1.91-.125-3.636-.125-3.636Z"
        data-name="Path 798" id="Path_798" opacity="0.1" transform="translate(-657.873 -256.689)" />
    <path
        d="M889.061,800.207c-.651.025-4.349,0-4.349,0a2,2,0,0,1-.152-.179C885.506,799.706,887.55,799.223,889.061,800.207Z"
        data-name="Path 803" id="Path_803" opacity="0.1" transform="translate(-629.915 -425.727)" />
    <path
        d="M936.371,800.207c-.651.025-4.349,0-4.349,0a2,2,0,0,1-.152-.179C932.811,799.706,934.855,799.223,936.371,800.207Z"
        data-name="Path 804" id="Path_804" opacity="0.1" transform="translate(-666.646 -425.727)" />
    <path
        d="M872.539,509.11c-.57,5.469-.382,16.323-.264,21.144-.85.5-1.679.982-2.39,1.386a4.437,4.437,0,0,1-1.867.512C867.781,530.694,871.063,515.72,872.539,509.11Z"
        data-name="Path 805" id="Path_805" opacity="0.1" transform="translate(-617.063 -200.175)" />
    <path d="M888.978,495.23c-.016.078-.286,1.268-.7,3.1A7.92,7.92,0,0,1,888.978,495.23Z"
        data-name="Path 806" id="Path_806" opacity="0.1" transform="translate(-632.804 -189.399)" />
    <path d="M910.424,492.59s3.168,19.9-6.214,22.36C904.208,514.942,910.7,513.955,910.424,492.59Z"
        data-name="Path 807" id="Path_807" opacity="0.1" transform="translate(-645.172 -187.349)" />
    <path
        d="M938.474,518.8a12.406,12.406,0,0,1-1.652-.051l-2.531-27.21C935.9,492.6,937.836,511.906,938.474,518.8Z"
        data-name="Path 808" id="Path_808" opacity="0.1" transform="translate(-668.525 -186.534)" />
    <path
        d="M898.148,331.777a1.384,1.384,0,0,1,.5.051,2.176,2.176,0,0,1,.631.474,2.247,2.247,0,0,0,2.133.414,2.812,2.812,0,0,1,.8-.224,1.279,1.279,0,0,1,1.017.671c.221.358.335.783.525,1.165a1.464,1.464,0,0,0,.912.839,1.6,1.6,0,0,1,.581.134.823.823,0,0,1,.25.347c.349.754.626,1.643,1.371,2.012a2.05,2.05,0,0,0,.874.19,1.827,1.827,0,0,0,.894-.161,1.713,1.713,0,0,0,.657-.655,4.086,4.086,0,0,0,.409-2.614,7.192,7.192,0,0,0-1.169-3.144,6.563,6.563,0,0,0-6-2.77,8.369,8.369,0,0,0-1.2.224,6.536,6.536,0,0,0-3.681,2.283,7.745,7.745,0,0,1-.687.845C897.361,331.819,897.755,331.786,898.148,331.777Z"
        data-name="Path 809" id="Path_809" opacity="0.1" transform="translate(-639.551 -59.932)" />
    <path d="M873.567,398.2s.262,2.089-.633,2.609S873.567,398.2,873.567,398.2Z" data-name="Path 811"
        id="Path_811" opacity="0.1" transform="translate(-620.671 -114.065)" />
    <path d="M961.57,462.218s2.124-3.13,2.424-2.236S961.57,462.218,961.57,462.218Z"
        data-name="Path 812" id="Path_812" opacity="0.1" transform="translate(-689.705 -161.908)" />
    <path d="M962.24,468.954s2.1-2.571,2.3-1.565S962.24,468.954,962.24,468.954Z"
        data-name="Path 813" id="Path_813" opacity="0.1" transform="translate(-690.226 -167.602)" />
    <path
        d="M890.869,458.443a3.4,3.4,0,0,1-2.106-.693h-.183a3.31,3.31,0,0,1-2.3.865,3.265,3.265,0,0,1-2.386-.957h-.244a3.513,3.513,0,0,1-4.535-.083l-.874-.016s1.024,2.728.411,4.43l14.943.266a21.285,21.285,0,0,1,.107-4.389v-.02l-.821-.016A3.439,3.439,0,0,1,890.869,458.443Z"
        data-name="Path 814" id="Path_814" opacity="0.1" transform="translate(-625.009 -160.152)" />
    <path
        d="M890.869,460.443a3.4,3.4,0,0,1-2.106-.693h-.183a3.31,3.31,0,0,1-2.3.865,3.265,3.265,0,0,1-2.386-.957h-.244a3.513,3.513,0,0,1-4.535-.083l-.874-.016s1.024,2.728.411,4.43l14.943.266a21.285,21.285,0,0,1,.107-4.389v-.02l-.821-.016A3.439,3.439,0,0,1,890.869,460.443Z"
        data-name="Path 815" id="Path_815" opacity="0.1" transform="translate(-625.009 -161.705)" />
    <path
        d="M890.869,459.443a3.4,3.4,0,0,1-2.106-.693h-.183a3.309,3.309,0,0,1-2.3.865,3.265,3.265,0,0,1-2.386-.957h-.244a3.513,3.513,0,0,1-4.535-.083l-.874-.016s1.024,2.728.411,4.43l14.943.266a21.285,21.285,0,0,1,.107-4.389v-.02l-.821-.016A3.439,3.439,0,0,1,890.869,459.443Z"
        data-name="Path 816" fill="#3f3d56" id="Path_816"
        transform="translate(-625.009 -160.928)" />
    <path d="M931.75,395.83s3.146.2,3.166.648S931.75,395.83,931.75,395.83Z" data-name="Path 817"
        id="Path_817" opacity="0.1" transform="translate(-666.554 -112.225)" />
    <path d="M886.576,387.3s-3.146.2-3.166.648S886.576,387.3,886.576,387.3Z" data-name="Path 818"
        id="Path_818" opacity="0.1" transform="translate(-629.022 -105.603)" />
    <path
        d="M938.1,427.98c-.031-.022-.063-.04-.094-.06.8.724.671,2.308-.318,3.613s-2.489,1.849-3.4,1.263c.029.025.054.051.085.076.894.684,2.46.148,3.493-1.2S939,428.667,938.1,427.98Z"
        data-name="Path 819" id="Path_819" opacity="0.1" transform="translate(-668.525 -137.14)" />
    <path
        d="M871.509,430.752c-.8-1.436-.693-3.021.208-3.622-.034.016-.069.029-.1.047-.988.55-1.118,2.2-.3,3.683s2.294,2.236,3.282,1.695a.858.858,0,0,0,.094-.063C873.7,432.939,872.305,432.188,871.509,430.752Z"
        data-name="Path 820" id="Path_820" opacity="0.1" transform="translate(-619.215 -136.526)" />
    <path d="M875.254,387.319h0l-.288.447-.736-.391.387-.595A1.621,1.621,0,0,1,875.254,387.319Z"
        data-name="Path 821" id="Path_821" opacity="0.1" transform="translate(-621.896 -105.199)" />
    <path
        d="M855.381,428.256s.655-3.081-.224-4.061-.6-6.113.745-6,3.354,4.172,3.019,5.031-1.6,5.255-1.6,5.255Z"
        data-name="Path 822" fill="#fbbebe" id="Path_822"
        transform="translate(-606.695 -129.587)" />
    <path
        d="M909.3,345.5a1.713,1.713,0,0,1-.657.655,1.827,1.827,0,0,1-.894.161,2.051,2.051,0,0,1-.874-.19c-.745-.371-1.022-1.261-1.371-2.012a.823.823,0,0,0-.228-.353,1.6,1.6,0,0,0-.575-.141,1.475,1.475,0,0,1-.912-.839c-.192-.38-.306-.8-.526-1.165a1.231,1.231,0,0,0-1.017-.671,2.748,2.748,0,0,0-.8.235,2.254,2.254,0,0,1-2.133-.416,2.176,2.176,0,0,0-.631-.474,1.384,1.384,0,0,0-.5-.051c-.257,0-.512.025-.769.045a5.609,5.609,0,0,1-.409.479c.391-.034.785-.067,1.178-.076a1.384,1.384,0,0,1,.5.051,2.176,2.176,0,0,1,.631.474,2.254,2.254,0,0,0,2.133.416,2.747,2.747,0,0,1,.8-.235,1.279,1.279,0,0,1,1.017.671c.221.358.335.783.526,1.165a1.464,1.464,0,0,0,.912.839,1.6,1.6,0,0,1,.575.141.823.823,0,0,1,.25.347c.349.754.626,1.643,1.371,2.012a2.05,2.05,0,0,0,.874.19,1.828,1.828,0,0,0,.894-.161,1.713,1.713,0,0,0,.657-.655,3.71,3.71,0,0,0,.447-2.071,3.417,3.417,0,0,1-.47,1.63Z"
        data-name="Path 823" id="Path_823" opacity="0.1" transform="translate(-639.573 -69.058)" />
    <path
        d="M516.063,530.226c-9.756-1.469-27.4-3.26-44.533-.584,6.4-4.727,14.248-8.112,22.137-8.112C501.777,521.53,509.724,525.195,516.063,530.226Z"
        data-name="Path 825" fill="#f6f8fb" id="Path_825" transform="translate(-309.24 -209.818)" />
    <path d="M335.546,281.31s-20.78,13.284-20.61,34.064S335.546,281.31,335.546,281.31Z"
        data-name="Path 826" id="Path_826" opacity="0.05" transform="translate(-187.661 -23.312)" />
    <path
        d="M819.065,113.435s-18.828-1.134-16.607,12.059a3.207,3.207,0,0,0,1.673,3.39s.033-.977,1.93-.646a8.721,8.721,0,0,0,2.046.1,4.248,4.248,0,0,0,2.5-1.033h0s5.293-2.185,7.352-10.836c0,0,1.523-1.887,1.462-2.37l-3.177,1.355a5.678,5.678,0,0,1,.224,4.2s-.1-4.112-.713-4.025c-.123.02-1.65.794-1.65.794s1.867,3.994.447,6.894c0,0,.534-4.919-1.042-6.605l-2.236,1.306s2.182,4.123.7,7.489c0,0,.38-5.161-1.172-7.171l-2.028,1.581s2.05,4.065.8,6.856c0,0-.163-6.008-1.239-6.462a12.4,12.4,0,0,0-2.044,2.207s1.4,2.949.534,4.506c0,0-.534-4-.973-4.025a13.322,13.322,0,0,0-1.952,4.472,9.667,9.667,0,0,1,1.523-4.725,5.3,5.3,0,0,0-2.7,1.4s.275-1.876,3.13-2.039a12.226,12.226,0,0,1,1.852-2.133,11.6,11.6,0,0,0-4.579.528s1.521-1.769,5.1-.966l2.012-1.632s-3.752-.514-5.344.054c0,0,1.831-1.565,5.883-.425l2.18-1.3a19.99,19.99,0,0,0-5.107-.447s2.012-1.084,5.744.092l1.565-.7s-2.346-.461-3.032-.532-.722-.264-.722-.264a8.128,8.128,0,0,1,4.412.512S819.121,113.643,819.065,113.435Z"
        data-name="Path 827" fill="#25b6c7" id="Path_827" transform="translate(-566.03 107.044)" />
    <path
        d="M764.664,87.251s-8.5-.514-7.5,5.447a1.454,1.454,0,0,0,.756,1.532s.013-.447.872-.291a4.038,4.038,0,0,0,.923.045,1.943,1.943,0,0,0,1.131-.467h0s2.39-.988,3.32-4.9c0,0,.689-.852.671-1.071l-1.436.613a2.568,2.568,0,0,1,.105,1.9s-.047-1.858-.322-1.813c-.056,0-.747.358-.747.358a4.239,4.239,0,0,1,.208,3.115s.242-2.223-.47-2.985l-1.011.59a4.467,4.467,0,0,1,.318,3.385s.17-2.332-.53-3.24l-.917.713s.926,1.836.362,3.1c0,0-.074-2.715-.561-2.92a5.608,5.608,0,0,0-.923,1s.635,1.342.242,2.037c0,0-.242-1.809-.447-1.816a6,6,0,0,0-.881,2.012,4.356,4.356,0,0,1,.686-2.135,2.4,2.4,0,0,0-1.221.633s.123-.847,1.418-.921a5.578,5.578,0,0,1,.836-.964,5.243,5.243,0,0,0-2.068.239,2.337,2.337,0,0,1,2.305-.447l.894-.736a7.765,7.765,0,0,0-2.415.022,2.936,2.936,0,0,1,2.659-.19l.984-.59a8.948,8.948,0,0,0-2.308-.2,3.539,3.539,0,0,1,2.6.042l.7-.318s-1.06-.208-1.368-.239-.329-.119-.329-.119a3.665,3.665,0,0,1,1.99.224A9,9,0,0,0,764.664,87.251Z"
        data-name="Path 828" fill="#25b6c7" id="Path_828" transform="translate(-530.939 127.363)" />
    <ellipse cx="6.022" cy="1.017" data-name="Ellipse 61" fill="#6c63ff" id="Ellipse_61"
        opacity="0.1" rx="6.022" ry="1.017" transform="translate(301.957 366.198)" />
    <ellipse cx="6.022" cy="1.017" data-name="Ellipse 62" fill="#6c63ff" id="Ellipse_62"
        opacity="0.1" rx="6.022" ry="1.017" transform="translate(72.468 383.122)" />
    <ellipse cx="6.022" cy="1.017" data-name="Ellipse 63" fill="#6c63ff" id="Ellipse_63"
        opacity="0.1" rx="6.022" ry="1.017" transform="translate(107.424 384.399)" />
    <ellipse cx="8.991" cy="1.521" data-name="Ellipse 64" fill="#3ed3cd" id="Ellipse_64" rx="8.991"
        ry="1.521" transform="translate(285.809 376.597)" />
    <path
        d="M1051.89,793.01a2.623,2.623,0,0,0,.859-1.295,1.154,1.154,0,0,0-.6-1.317c-.55-.21-1.138.172-1.583.557a2.122,2.122,0,0,1-1.541.742,2.341,2.341,0,0,0,.724-2.194.92.92,0,0,0-.2-.447c-.306-.326-.859-.188-1.225.069a4.564,4.564,0,0,0-1.494,3.819,7.188,7.188,0,0,1-.02-1.565,1.617,1.617,0,0,0-.59-1.393,1.789,1.789,0,0,0-.894-.21,1.861,1.861,0,0,0-1.462.414,1.438,1.438,0,0,0,.058,1.789,5.8,5.8,0,0,0,1.512,1.212,3.357,3.357,0,0,1,1.082,1.031,1.09,1.09,0,0,1,.08.186h3.276A9.116,9.116,0,0,0,1051.89,793.01Z"
        data-name="Path 829" fill="#3ed3cd" id="Path_829"
        transform="translate(-753.374 -417.377)" />
    <path
        d="M97.58,723.55s1.228,1.605-.568,4.025-3.276,4.472-2.683,5.984c0,0,2.708-4.5,4.919-4.568S100,726.258,97.58,723.55Z"
        data-name="Path 830" fill="#3ed3cd" id="Path_830" transform="translate(-16.28 -366.666)" />
    <path
        d="M97.832,723.55a2.013,2.013,0,0,1,.25.5c2.151,2.527,3.3,4.886,1.23,4.944-1.927.056-4.248,3.5-4.792,4.369a2.079,2.079,0,0,0,.067.2s2.708-4.5,4.919-4.568S100.255,726.258,97.832,723.55Z"
        data-name="Path 831" id="Path_831" opacity="0.1" transform="translate(-16.531 -366.666)" />
    <path
        d="M118.554,731.428c0,.566-.065,1.024-.143,1.024s-.141-.447-.141-1.024.078-.3.159-.3S118.554,730.863,118.554,731.428Z"
        data-name="Path 832" fill="#ffd037" id="Path_832" transform="translate(-34.971 -372.498)" />
    <path
        d="M119.637,734.378c-.5.271-.928.434-.966.365s.335-.342.832-.613.3-.074.338,0S120.142,734.107,119.637,734.378Z"
        data-name="Path 833" fill="#ffd037" id="Path_833" transform="translate(-35.28 -374.772)" />
    <path
        d="M70.729,723.55s-1.228,1.605.566,4.025,3.276,4.472,2.683,5.984c0,0-2.71-4.5-4.919-4.568S68.3,726.258,70.729,723.55Z"
        data-name="Path 834" fill="#3ed3cd" id="Path_834" transform="translate(4.082 -366.666)" />
    <path
        d="M70.717,723.55a1.93,1.93,0,0,0-.25.5c-2.151,2.527-3.3,4.886-1.23,4.944,1.925.056,4.248,3.5,4.79,4.369a2.072,2.072,0,0,1-.065.2s-2.71-4.5-4.919-4.568S68.291,726.258,70.717,723.55Z"
        data-name="Path 835" id="Path_835" opacity="0.1" transform="translate(4.094 -366.666)" />
    <path
        d="M70.1,731.428c0,.566.063,1.024.141,1.024s.141-.447.141-1.024-.078-.3-.157-.3S70.1,730.863,70.1,731.428Z"
        data-name="Path 836" fill="#ffd037" id="Path_836" transform="translate(2.428 -372.498)" />
    <path
        d="M65.546,734.378c.5.271.93.434.968.365s-.335-.342-.832-.613-.3-.074-.338,0S65.049,734.107,65.546,734.378Z"
        data-name="Path 837" fill="#ffd037" id="Path_837" transform="translate(6.197 -374.772)" />
    <path
        d="M71.85,760.944s3.435-.105,4.472-.843,5.284-1.617,5.541-.447,5.161,5.881,1.283,5.912-9.009-.606-10.042-1.234S71.85,760.944,71.85,760.944Z"
        data-name="Path 838" fill="#a8a8a8" id="Path_838" transform="translate(1.069 -394.255)" />
    <path
        d="M83.211,771.606c-3.877.031-9.009-.606-10.042-1.234-.787-.479-1.1-2.2-1.205-2.992H71.85s.224,2.771,1.25,3.4,6.165,1.266,10.042,1.234c1.118,0,1.5-.409,1.485-1C84.47,771.376,84.045,771.6,83.211,771.606Z"
        data-name="Path 839" id="Path_839" opacity="0.2" transform="translate(1.069 -400.695)" />
    <path
        d="M880.034,699.116h-.085c-.651.025-4.349,0-4.349,0a2.012,2.012,0,0,1-.152-.179,3.05,3.05,0,0,1-.481-2.952,21.007,21.007,0,0,0,.745-5.181,2.4,2.4,0,0,0,.038-1.342,2.422,2.422,0,0,1-.076-1.23,3.185,3.185,0,0,0-.224-.856,2.554,2.554,0,0,1,.038-1.268,9.486,9.486,0,0,0-.373-2.348c-.335-.968-2.8-12.484-2.2-13.864,0,0,5.217-.894,7.193-.224l-.262,8.944s-.932,2.683-.15,3.392.038,2.907.038,2.907-.112.409.559,1.789,0,2.012,0,2.012v2.645a5.657,5.657,0,0,0,.074,3.242C880.964,696.059,880.3,699.069,880.034,699.116Z"
        data-name="Path 842" fill="#3f3d56" id="Path_842"
        transform="translate(-610.803 -324.643)" />
  </g>
</svg>
