<svg data-name="Group 247" height="15.39" id="Group_247" viewBox="0 0 12.266 15.39" width="12.266"
    xmlns="http://www.w3.org/2000/svg">
    <path
        d="M270.438,188.785a1.667,1.667,0,0,1-1.679-1.727,1.816,1.816,0,0,1,.538-1.238,2.828,2.828,0,0,1,1.85-.766,1.347,1.347,0,0,1,.98.362c.729.729.24,2.186-.4,2.83A1.808,1.808,0,0,1,270.438,188.785Zm.709-2.9a2.022,2.022,0,0,0-1.264.523.99.99,0,0,0-.3.674.838.838,0,0,0,.85.876.985.985,0,0,0,.7-.3c.453-.453.679-1.382.4-1.657A.572.572,0,0,0,271.147,185.884Z"
        data-name="Path 1049" fill="#fff" id="Path_1049" transform="translate(-262.242 -179.493)" />
    <path
        d="M210.709,267.506a.414.414,0,0,1-.293-.121l-2.9-2.9a.415.415,0,1,1,.586-.586l2.9,2.9a.415.415,0,0,1-.293.708Z"
        data-name="Path 1050" fill="#fff" id="Path_1050" transform="translate(-202.724 -255.85)" />
    <path
        d="M121.194,179.6a1.091,1.091,0,0,1-.777-.322l-1.155-1.155a.415.415,0,0,1,.586-.586L121,178.689a.269.269,0,0,0,.381,0l.923-.923a.269.269,0,0,0,0-.381l-1.155-1.155a.415.415,0,0,1,.586-.586l1.155,1.155a1.1,1.1,0,0,1,0,1.553l-.923.923A1.091,1.091,0,0,1,121.194,179.6Z"
        data-name="Path 1051" fill="#fff" id="Path_1051" transform="translate(-117.121 -170.246)" />
    <path
        d="M152.667,209.464a.413.413,0,0,1-.293-.121l-1.449-1.449a.415.415,0,0,1,.586-.586l1.449,1.449a.415.415,0,0,1-.293.708Z"
        data-name="Path 1052" fill="#fff" id="Path_1052" transform="translate(-147.832 -200.958)" />
    <path
        d="M148.991,5.146a.415.415,0,0,1-.415-.415V2.508a.356.356,0,0,0-.1-.253L147.151.934a.355.355,0,0,0-.253-.1h-1.8a.355.355,0,0,0-.253.1l-1.321,1.321a.356.356,0,0,0-.1.253V4.732a.415.415,0,1,1-.829,0V2.508a1.18,1.18,0,0,1,.348-.839L144.256.348A1.179,1.179,0,0,1,145.1,0h1.8a1.179,1.179,0,0,1,.839.348l1.321,1.321a1.179,1.179,0,0,1,.348.839V4.732A.415.415,0,0,1,148.991,5.146Z"
        data-name="Path 1053" fill="#fff" id="Path_1053" transform="translate(-139.864 0)" />
    <path
        d="M62.841,118.234H53.335a1.38,1.38,0,0,1-1.378-1.448l.445-9.442a1.379,1.379,0,0,1,1.378-1.313H62.4a1.379,1.379,0,0,1,1.378,1.312l.257,5.457a.415.415,0,1,1-.828.039l-.257-5.456a.55.55,0,0,0-.55-.523H53.78a.551.551,0,0,0-.55.524l-.445,9.442a.551.551,0,0,0,.55.579h9.506a.551.551,0,0,0,.55-.578l-.06-1.273a.415.415,0,1,1,.828-.039l.06,1.272a1.38,1.38,0,0,1-1.378,1.447Z"
        data-name="Path 1054" fill="#fff" id="Path_1054" transform="translate(-51.955 -102.844)" />
</svg>
