<svg height="20.982" viewBox="0 0 24.012 20.982" width="24.012" xmlns="http://www.w3.org/2000/svg">
    <g id="share" transform="translate(0 -0.5)">
        <path
            d="M195.789.654a.529.529,0,0,0-.9.375V3.851a7.223,7.223,0,0,0-4.506,1.495,8.018,8.018,0,0,0-2.783,4.661,8.211,8.211,0,0,0-.094,2.686v0c0,.008,0,.016,0,.024l.112.646a.529.529,0,0,0,.975.181l.337-.561a7.43,7.43,0,0,1,3.833-3.39,5.555,5.555,0,0,1,2.122-.311v2.923a.529.529,0,0,0,.9.373l5.589-5.618a.529.529,0,0,0,0-.748Zm.156,10.272V8.808a.529.529,0,0,0-.445-.522,6.47,6.47,0,0,0-3.085.311,8.081,8.081,0,0,0-3.922,3.123,7.534,7.534,0,0,1,.143-1.509,6.88,6.88,0,0,1,2.427-4.057l.033-.029A6.472,6.472,0,0,1,195.411,4.9h0a.53.53,0,0,0,.529-.529V2.3l4.312,4.291Zm0,0"
            data-name="Path 1067" fill="#25b6c7" id="Path_1067" transform="translate(-177.522 0)" />
        <path
            d="M22.074,71.454a.529.529,0,0,0-.529.529v2.235A1.588,1.588,0,0,1,19.958,75.8H2.645a1.588,1.588,0,0,1-1.587-1.587v-12.6A1.588,1.588,0,0,1,2.645,60.03H6.3a.529.529,0,1,0,0-1.058H2.645A2.647,2.647,0,0,0,0,61.617v12.6a2.647,2.647,0,0,0,2.645,2.645H19.958A2.647,2.647,0,0,0,22.6,74.218V71.983A.529.529,0,0,0,22.074,71.454Zm0,0"
            data-name="Path 1068" fill="#25b6c7" id="Path_1068" transform="translate(0 -55.38)" />
    </g>
</svg>
