<svg height="113.963" viewBox="0 0 140 113.963" width="140" xmlns="http://www.w3.org/2000/svg">
    <g data-name="Group 246" id="Group_246" transform="translate(-107 -78.806)">
        <g data-name="Group 7" id="Group_7" transform="translate(139.815 78.806)">
            <g data-name="Group 4" id="Group_4" transform="translate(0 0)">
                <path
                    d="M209.974,13.319C208.731,4.711,197.283-.058,173.553,0c-15.529.037-17.44,7.106-14.342,43.749a7.707,7.707,0,0,0,.557,2.319c2.078,4.842,13.674,1.985,24.287-1.447C197.8,40.185,211.959,26.993,209.974,13.319ZM166.633,37.532c-.612-4.713-.538-10.594-.148-17.941.334-6.308,4.379-8.126,6.345-9.036,6.754-3.21,19.5-3.024,23.118,3.247,3.228,5.585-1.354,13.563-4.768,17.4C184.611,38.589,167.56,44.675,166.633,37.532Z"
                    data-name="Path 1" fill="#fff" id="Path_1"
                    transform="translate(-117.698 0.003)" />
                <path
                    d="M6.4,0H29.073a0,0,0,0,1,0,0V.711a6.4,6.4,0,0,1-6.4,6.4H.711A.711.711,0,0,1,0,6.4v0A6.4,6.4,0,0,1,6.4,0Z"
                    data-name="Rectangle 1" fill="#fff" id="Rectangle_1"
                    transform="translate(5.928 12.937) rotate(-10)" />
                <path
                    d="M6.4,0H17.841a0,0,0,0,1,0,0V.711a6.4,6.4,0,0,1-6.4,6.4H.711A.711.711,0,0,1,0,6.4v0A6.4,6.4,0,0,1,6.4,0Z"
                    data-name="Rectangle 2" fill="#fff" id="Rectangle_2"
                    transform="translate(17.042 23.292) rotate(-10)" />
                <path
                    d="M7.809,0H35.02a0,0,0,0,1,0,0V0a8.59,8.59,0,0,1-8.59,8.59H.781A.781.781,0,0,1,0,7.809v0A7.809,7.809,0,0,1,7.809,0Z"
                    data-name="Rectangle 3" fill="#fff" id="Rectangle_3"
                    transform="translate(0 38.499) rotate(-10)" />
            </g>
            <ellipse cx="2.424" cy="2.424" data-name="Ellipse 1" fill="#fff" id="Ellipse_1"
                rx="2.424" ry="2.424" transform="translate(68.823 15.875)" />
            <ellipse cx="2.424" cy="2.424" data-name="Ellipse 2" fill="#fff" id="Ellipse_2"
                rx="2.424" ry="2.424" transform="translate(54.278 15.875)" />
            <path
                d="M131.308,521.15a3.806,3.806,0,0,1-1.7-.367,14.87,14.87,0,0,1-4.185-2.671l1.479-1.347-.009-.01a14.294,14.294,0,0,0,3.6,2.232c.886.435,2.618-.011,4.752-1.225a26.479,26.479,0,0,0,3.338-2.287l1.277,1.54a28.074,28.074,0,0,1-3.6,2.472A10.517,10.517,0,0,1,131.308,521.15Z"
                data-name="Path 6" fill="#fff" id="Path_6"
                transform="translate(-70.396 -487.953)" />
        </g>
        <g data-name="Group 8" id="Group_8" transform="translate(107 127.663)">
            <text fill="#fff" font-family="SegoeUI, Segoe UI" font-size="33" id="DaddyEat"
                transform="translate(0 43)">
                <tspan x="0" y="0">DaddyEat</tspan>
            </text>
            <path
                d="M5.684,0V-1.5H5.654A2.939,2.939,0,0,1,4.611-.275a2.676,2.676,0,0,1-1.52.458A2.334,2.334,0,0,1,1.4-.417,2.017,2.017,0,0,1,.776-1.934q0-1.963,2.6-2.373l2.307-.344q0-2.417-1.816-2.417a3.7,3.7,0,0,0-2.41,1v-.813a3.673,3.673,0,0,1,1.132-.564,4.318,4.318,0,0,1,1.344-.234,2.263,2.263,0,0,1,1.791.718,3.062,3.062,0,0,1,.634,2.087V0ZM3.618-3.735a3.577,3.577,0,0,0-1.655.546,1.472,1.472,0,0,0-.476,1.227,1.469,1.469,0,0,0,.443,1.1,1.693,1.693,0,0,0,1.234.432,2.316,2.316,0,0,0,1.8-.8A2.985,2.985,0,0,0,5.684-3.3v-.732Zm9.148,2.4h-.029V3.45h-.674V-7.5h.674v1.545h.029A2.964,2.964,0,0,1,13.92-7.233a3.15,3.15,0,0,1,1.652-.45A2.717,2.717,0,0,1,17.8-6.7a4.118,4.118,0,0,1,.8,2.677,4.759,4.759,0,0,1-.919,3.043A2.945,2.945,0,0,1,15.257.183,2.645,2.645,0,0,1,12.766-1.333Zm-.029-2.791v.945a2.838,2.838,0,0,0,.71,1.937,2.365,2.365,0,0,0,1.868.809,2.211,2.211,0,0,0,1.868-.985A4.3,4.3,0,0,0,17.9-4.006a3.487,3.487,0,0,0-.659-2.234,2.133,2.133,0,0,0-1.758-.828,2.471,2.471,0,0,0-2.029.879A3.166,3.166,0,0,0,12.737-4.124Zm11.88,2.791h-.029V3.45h-.674V-7.5h.674v1.545h.029a2.964,2.964,0,0,1,1.154-1.278,3.15,3.15,0,0,1,1.652-.45,2.717,2.717,0,0,1,2.23.985,4.118,4.118,0,0,1,.8,2.677,4.759,4.759,0,0,1-.919,3.043A2.945,2.945,0,0,1,27.108.183,2.645,2.645,0,0,1,24.617-1.333Zm-.029-2.791v.945a2.838,2.838,0,0,0,.71,1.937,2.365,2.365,0,0,0,1.868.809,2.211,2.211,0,0,0,1.868-.985,4.3,4.3,0,0,0,.718-2.589,3.487,3.487,0,0,0-.659-2.234,2.133,2.133,0,0,0-1.758-.828,2.471,2.471,0,0,0-2.029.879A3.166,3.166,0,0,0,24.588-4.124ZM46.862-6.8a1.321,1.321,0,0,0-.791-.242,1.75,1.75,0,0,0-1.487.916,4.731,4.731,0,0,0-.6,2.6V0h-.659V-7.5h.659v1.663h.029a2.73,2.73,0,0,1,.813-1.333,1.924,1.924,0,0,1,1.289-.476,2,2,0,0,1,.747.132Zm4.724,3.076A3.709,3.709,0,0,0,52.3-1.3a2.4,2.4,0,0,0,1.959.872,3.986,3.986,0,0,0,2.461-.93v.718a4.384,4.384,0,0,1-2.6.828,2.941,2.941,0,0,1-2.344-1.04,4.372,4.372,0,0,1-.894-2.937,4.183,4.183,0,0,1,.934-2.765,3.008,3.008,0,0,1,2.428-1.124,2.535,2.535,0,0,1,2.146.981,4.327,4.327,0,0,1,.747,2.681v.3Zm4.849-.615a3.318,3.318,0,0,0-.623-2.014,1.938,1.938,0,0,0-1.6-.718,2.342,2.342,0,0,0-1.747.707,3.392,3.392,0,0,0-.853,2.025ZM62.06-.33v-.813a2.822,2.822,0,0,0,.923.52,2.9,2.9,0,0,0,.938.19q1.765,0,1.765-1.443a1.105,1.105,0,0,0-.388-.85,4.681,4.681,0,0,0-1.26-.725,4.277,4.277,0,0,1-1.512-.97,1.8,1.8,0,0,1-.436-1.219,1.809,1.809,0,0,1,.7-1.479,2.66,2.66,0,0,1,1.725-.564,3.27,3.27,0,0,1,1.655.4v.762a3.133,3.133,0,0,0-1.729-.542,1.785,1.785,0,0,0-1.194.385,1.248,1.248,0,0,0-.454,1,1.287,1.287,0,0,0,.286.868,3.83,3.83,0,0,0,1.26.765,5.518,5.518,0,0,1,1.611.978,1.641,1.641,0,0,1,.439,1.2A1.87,1.87,0,0,1,65.718-.4a2.726,2.726,0,0,1-1.849.582A3.056,3.056,0,0,1,62.06-.33ZM74.687-.1A2.326,2.326,0,0,1,73.7.146q-1.663,0-1.663-1.992V-6.885H70.688V-7.5h1.348V-9.448q.161-.059.337-.117t.337-.11V-7.5h1.978v.615H72.71v4.951a1.993,1.993,0,0,0,.245,1.124.946.946,0,0,0,.831.348,1.86,1.86,0,0,0,.9-.271Zm9.419.1V-1.5h-.029A2.939,2.939,0,0,1,83.033-.275a2.676,2.676,0,0,1-1.52.458,2.334,2.334,0,0,1-1.692-.6A2.017,2.017,0,0,1,79.2-1.934q0-1.963,2.6-2.373l2.307-.344q0-2.417-1.816-2.417a3.7,3.7,0,0,0-2.41,1v-.813a3.673,3.673,0,0,1,1.132-.564,4.318,4.318,0,0,1,1.344-.234,2.263,2.263,0,0,1,1.791.718,3.062,3.062,0,0,1,.634,2.087V0ZM82.041-3.735a3.577,3.577,0,0,0-1.655.546,1.472,1.472,0,0,0-.476,1.227,1.469,1.469,0,0,0,.443,1.1,1.693,1.693,0,0,0,1.234.432,2.316,2.316,0,0,0,1.8-.8A2.985,2.985,0,0,0,84.106-3.3v-.732ZM95.437,0V-1.362h-.029A2.558,2.558,0,0,1,92.991.183q-2.659,0-2.659-3.347V-7.5h.681v4.167a3.813,3.813,0,0,0,.5,2.212,1.822,1.822,0,0,0,1.578.688,2.111,2.111,0,0,0,1.7-.769,3.077,3.077,0,0,0,.648-2.051V-7.5h.674V0ZM105.5-6.8a1.321,1.321,0,0,0-.791-.242,1.75,1.75,0,0,0-1.487.916,4.731,4.731,0,0,0-.6,2.6V0h-.659V-7.5h.659v1.663h.029a2.73,2.73,0,0,1,.813-1.333,1.924,1.924,0,0,1,1.289-.476,2,2,0,0,1,.747.132ZM114.847,0V-1.5h-.029a2.939,2.939,0,0,1-1.044,1.227,2.676,2.676,0,0,1-1.52.458,2.334,2.334,0,0,1-1.692-.6,2.017,2.017,0,0,1-.623-1.516q0-1.963,2.6-2.373l2.307-.344q0-2.417-1.816-2.417a3.7,3.7,0,0,0-2.41,1v-.813a3.673,3.673,0,0,1,1.132-.564,4.318,4.318,0,0,1,1.344-.234,2.263,2.263,0,0,1,1.791.718,3.062,3.062,0,0,1,.634,2.087V0Zm-2.065-3.735a3.577,3.577,0,0,0-1.655.546,1.472,1.472,0,0,0-.476,1.227,1.469,1.469,0,0,0,.443,1.1,1.693,1.693,0,0,0,1.234.432,2.316,2.316,0,0,0,1.8-.8,2.985,2.985,0,0,0,.718-2.069v-.732ZM126.324,0V-4.365q0-2.7-1.948-2.7a2.259,2.259,0,0,0-1.78.795,2.879,2.879,0,0,0-.7,1.967V0h-.674V-7.5h.674v1.362h.029a2.714,2.714,0,0,1,2.563-1.545,2.238,2.238,0,0,1,1.86.809A3.632,3.632,0,0,1,127-4.563V0Zm9.346-.1a2.326,2.326,0,0,1-.989.249q-1.663,0-1.663-1.992V-6.885h-1.348V-7.5h1.348V-9.448q.161-.059.337-.117t.337-.11V-7.5h1.978v.615h-1.978v4.951a1.993,1.993,0,0,0,.245,1.124.946.946,0,0,0,.831.348,1.86,1.86,0,0,0,.9-.271Z"
                data-name="Path 1482" fill="#fff" id="Path_1482" transform="translate(2 61.656)" />
        </g>
    </g>
</svg>
