<svg height="150.794" viewBox="0 0 165 150.794" width="165" xmlns="http://www.w3.org/2000/svg">
  <defs>
    <linearGradient gradientUnits="objectBoundingBox" id="linear-gradient" x2="1" y1="0.5" y2="0.5">
      <stop offset="0" stop-color="#1faac4" />
      <stop offset="1" stop-color="#54e4d2" />
    </linearGradient>
    <linearGradient gradientUnits="objectBoundingBox" id="linear-gradient-2" x2="1" y1="0.5"
        y2="0.5">
      <stop offset="0" stop-color="#36c3ca" stop-opacity="0.2" />
      <stop offset="0.627" stop-color="#54e4d2" stop-opacity="0.302" />
      <stop offset="1" stop-color="#1faac4" />
    </linearGradient>
    <linearGradient gradientUnits="objectBoundingBox" id="linear-gradient-3" x1="-0.033" x2="1.025"
        y1="0.755" y2="0.427">
      <stop offset="0" stop-color="#eee" stop-opacity="0.671" />
      <stop offset="1" stop-color="#d8cfcf" stop-opacity="0.671" />
    </linearGradient>
    <linearGradient gradientUnits="objectBoundingBox" id="linear-gradient-4" x1="-0.253" x2="1.257"
        y1="0.664" y2="0.312">
      <stop offset="0" stop-color="#d1d1d1" stop-opacity="0.212" />
      <stop offset="1" stop-color="#cbcbcb" stop-opacity="0.671" />
    </linearGradient>
    <linearGradient gradientUnits="objectBoundingBox" id="linear-gradient-5" x1="-0.042" x2="1.006"
        y1="0.97" y2="0.864">
      <stop offset="0" stop-color="#d1d1d1" stop-opacity="0.169" />
      <stop offset="1" stop-color="#d5d5d5" stop-opacity="0.671" />
    </linearGradient>
  </defs>
  <g data-name="Group 304" id="Group_304" transform="translate(-94.327 -144.794)">
    <g data-name="Group 7" id="Group_7" transform="translate(133.414 144.794)">
      <g data-name="Group 4" id="Group_4" transform="translate(0 0)">
        <path
            d="M218.5,15.5c-1.447-10.02-14.77-15.57-42.39-15.5-18.074.043-20.3,8.271-16.692,50.92a8.97,8.97,0,0,0,.648,2.7c2.419,5.636,15.915,2.311,28.267-1.684C204.332,46.771,220.809,31.418,218.5,15.5ZM168.054,43.683c-.713-5.485-.626-12.33-.173-20.882.389-7.342,5.1-9.458,7.385-10.516,7.86-3.736,22.7-3.52,26.907,3.779,3.757,6.5-1.576,15.785-5.55,20.256C188.979,44.914,169.134,52,168.054,43.683Z"
            data-name="Path 1" fill="url(#linear-gradient)" id="Path_1"
            transform="translate(-111.099 9.177)" />
        <path
            d="M230.662,25.7c-3.154-15.292-20.938-24.614-35.35-21.467-16.125,3.529-22.6,21.438-24.2,25.878-.816,2.235-8.837,24.467,1.36,34.995,9.735,10.028,28.769,1.941,37.8-4.117C213.2,58.994,234.551,44.614,230.662,25.7Zm-17.185,26.32c-9.626,11.7-34.616,21.35-35.975,10.028-.9-7.469-.789-16.792-.218-28.437.489-10,6.417-12.88,9.3-14.321,9.9-5.087,28.579-4.793,33.881,5.146C225.224,33.292,218.48,45.937,213.477,52.024Z"
            data-name="Path 2" fill="url(#linear-gradient-2)" id="Path_2"
            transform="translate(-123.517 -3.628)" />
        <path
            d="M7.446,0H33.838a0,0,0,0,1,0,0V.827a7.446,7.446,0,0,1-7.446,7.446H.827A.827.827,0,0,1,0,7.446v0A7.446,7.446,0,0,1,7.446,0Z"
            data-name="Rectangle 1" fill="url(#linear-gradient-3)" id="Rectangle_1"
            transform="translate(6.899 24.232) rotate(-10)" />
        <path
            d="M7.446,0H20.764a0,0,0,0,1,0,0V.827a7.446,7.446,0,0,1-7.446,7.446H.827A.827.827,0,0,1,0,7.446v0A7.446,7.446,0,0,1,7.446,0Z"
            data-name="Rectangle 2" fill="url(#linear-gradient-4)" id="Rectangle_2"
            transform="translate(19.835 36.284) rotate(-10)" />
        <path
            d="M9.089,0H40.76a0,0,0,0,1,0,0V0a10,10,0,0,1-10,10H.909A.909.909,0,0,1,0,9.089v0A9.089,9.089,0,0,1,9.089,0Z"
            data-name="Rectangle 3" fill="url(#linear-gradient-5)" id="Rectangle_3"
            transform="translate(0 53.984) rotate(-10)" />
      </g>
      <circle cx="2.821" cy="2.821" data-name="Ellipse 1" fill="#fff" id="Ellipse_1" r="2.821"
          transform="translate(80.102 27.651)" />
      <path
          d="M2.821,1A1.821,1.821,0,1,0,4.643,2.821,1.823,1.823,0,0,0,2.821,1m0-1A2.821,2.821,0,1,1,0,2.821,2.821,2.821,0,0,1,2.821,0Z"
          data-name="Ellipse 1 - Outline" fill="#575757" id="Ellipse_1_-_Outline"
          transform="translate(80.102 27.651)" />
      <circle cx="2.821" cy="2.821" data-name="Ellipse 2" fill="#fff" id="Ellipse_2" r="2.821"
          transform="translate(63.174 27.651)" />
      <path
          d="M2.821,1A1.821,1.821,0,1,0,4.643,2.821,1.823,1.823,0,0,0,2.821,1m0-1A2.821,2.821,0,1,1,0,2.821,2.821,2.821,0,0,1,2.821,0Z"
          data-name="Ellipse 2 - Outline" fill="#575757" id="Ellipse_2_-_Outline"
          transform="translate(63.174 27.651)" />
      <path
          d="M132.163,521.294a3.8,3.8,0,0,1-1.7-.363,16.912,16.912,0,0,1-4.673-2.96l.739-.673a16.763,16.763,0,0,0,4.375,2.736c1.273.625,3.409.12,6.178-1.46a31.438,31.438,0,0,0,3.954-2.713l.638.77a31.913,31.913,0,0,1-4.1,2.812A11.633,11.633,0,0,1,132.163,521.294Z"
          data-name="Path 6" fill="#707070" id="Path_6" transform="translate(-61.257 -474.141)" />
    </g>
    <g data-name="Group 8" id="Group_8" transform="translate(94.327 216.652)">
      <text fill="#404040" font-family="SegoeUI, Segoe UI" font-size="39" id="DaddyEat"
          transform="translate(0 50)">
        <tspan x="0" y="0">Daddy</tspan>
        <tspan fill="#e5b826" y="0">Eat</tspan>
      </text>
      <path
          d="M6.82,0V-1.8H6.785A3.527,3.527,0,0,1,5.533-.33,3.211,3.211,0,0,1,3.709.22,2.8,2.8,0,0,1,1.679-.5,2.421,2.421,0,0,1,.932-2.32q0-2.355,3.12-2.848L6.82-5.581q0-2.9-2.18-2.9a4.44,4.44,0,0,0-2.892,1.2v-.976a4.408,4.408,0,0,1,1.358-.677A5.182,5.182,0,0,1,4.72-9.22a2.715,2.715,0,0,1,2.149.861,3.674,3.674,0,0,1,.76,2.5V0ZM4.342-4.482a4.293,4.293,0,0,0-1.986.655,1.767,1.767,0,0,0-.571,1.472,1.763,1.763,0,0,0,.532,1.318A2.032,2.032,0,0,0,3.8-.519a2.779,2.779,0,0,0,2.162-.962A3.582,3.582,0,0,0,6.82-3.964v-.879ZM15.32-1.6h-.035V4.14h-.809V-9h.809v1.854h.035A3.557,3.557,0,0,1,16.7-8.679a3.78,3.78,0,0,1,1.982-.541,3.26,3.26,0,0,1,2.676,1.182,4.942,4.942,0,0,1,.962,3.212,5.71,5.71,0,0,1-1.1,3.652A3.534,3.534,0,0,1,18.308.22,3.174,3.174,0,0,1,15.32-1.6Zm-.035-3.349v1.134a3.405,3.405,0,0,0,.853,2.325,2.838,2.838,0,0,0,2.241.971A2.654,2.654,0,0,0,20.619-1.7a5.155,5.155,0,0,0,.861-3.107,4.184,4.184,0,0,0-.791-2.681,2.56,2.56,0,0,0-2.109-.993,2.966,2.966,0,0,0-2.435,1.055A3.8,3.8,0,0,0,15.285-4.948ZM29.541-1.6h-.035V4.14H28.7V-9h.809v1.854h.035a3.557,3.557,0,0,1,1.384-1.534,3.78,3.78,0,0,1,1.982-.541,3.26,3.26,0,0,1,2.676,1.182,4.942,4.942,0,0,1,.962,3.212,5.71,5.71,0,0,1-1.1,3.652A3.534,3.534,0,0,1,32.529.22,3.174,3.174,0,0,1,29.541-1.6Zm-.035-3.349v1.134a3.405,3.405,0,0,0,.853,2.325A2.838,2.838,0,0,0,32.6-.519,2.654,2.654,0,0,0,34.841-1.7,5.155,5.155,0,0,0,35.7-4.808a4.184,4.184,0,0,0-.791-2.681A2.56,2.56,0,0,0,32.8-8.481a2.966,2.966,0,0,0-2.435,1.055A3.8,3.8,0,0,0,29.506-4.948ZM56.234-8.156a1.586,1.586,0,0,0-.949-.29,2.1,2.1,0,0,0-1.784,1.1,5.677,5.677,0,0,0-.721,3.12V0h-.791V-9h.791v2h.035a3.276,3.276,0,0,1,.976-1.6,2.309,2.309,0,0,1,1.547-.571,2.4,2.4,0,0,1,.9.158ZM61.9-4.465a4.451,4.451,0,0,0,.857,2.9A2.875,2.875,0,0,0,65.111-.519a4.784,4.784,0,0,0,2.953-1.116v.861a5.26,5.26,0,0,1-3.12.993,3.529,3.529,0,0,1-2.812-1.248,5.246,5.246,0,0,1-1.072-3.524A5.019,5.019,0,0,1,62.18-7.871,3.609,3.609,0,0,1,65.094-9.22a3.042,3.042,0,0,1,2.575,1.178,5.192,5.192,0,0,1,.9,3.217v.36ZM67.721-5.2a3.982,3.982,0,0,0-.747-2.417,2.326,2.326,0,0,0-1.916-.861,2.811,2.811,0,0,0-2.1.848A4.071,4.071,0,0,0,61.938-5.2ZM74.472-.4v-.976a3.387,3.387,0,0,0,1.107.624A3.48,3.48,0,0,0,76.7-.519q2.118,0,2.118-1.731a1.327,1.327,0,0,0-.466-1.02,5.618,5.618,0,0,0-1.512-.87A5.132,5.132,0,0,1,75.03-5.3a2.154,2.154,0,0,1-.523-1.463,2.171,2.171,0,0,1,.839-1.775,3.192,3.192,0,0,1,2.07-.677,3.924,3.924,0,0,1,1.986.475v.914a3.759,3.759,0,0,0-2.074-.65A2.142,2.142,0,0,0,75.9-8.02a1.5,1.5,0,0,0-.545,1.2,1.544,1.544,0,0,0,.343,1.042,4.6,4.6,0,0,0,1.512.918,6.622,6.622,0,0,1,1.934,1.173,1.97,1.97,0,0,1,.527,1.437,2.244,2.244,0,0,1-.8,1.771,3.272,3.272,0,0,1-2.219.7A3.667,3.667,0,0,1,74.472-.4Zm15.153.272a2.791,2.791,0,0,1-1.187.3q-2,0-2-2.391V-8.262H84.826V-9h1.617v-2.338q.193-.07.4-.141t.4-.132V-9h2.373v.738H87.251V-2.32a2.391,2.391,0,0,0,.294,1.349,1.135,1.135,0,0,0,1,.417,2.232,2.232,0,0,0,1.081-.325Zm11.3.123V-1.8h-.035A3.527,3.527,0,0,1,99.64-.33,3.211,3.211,0,0,1,97.816.22,2.8,2.8,0,0,1,95.786-.5a2.421,2.421,0,0,1-.747-1.819q0-2.355,3.12-2.848l2.769-.413q0-2.9-2.18-2.9a4.44,4.44,0,0,0-2.892,1.2v-.976a4.408,4.408,0,0,1,1.358-.677,5.182,5.182,0,0,1,1.613-.281,2.715,2.715,0,0,1,2.149.861,3.674,3.674,0,0,1,.76,2.5V0ZM98.449-4.482a4.293,4.293,0,0,0-1.986.655,1.767,1.767,0,0,0-.571,1.472,1.763,1.763,0,0,0,.532,1.318A2.032,2.032,0,0,0,97.9-.519a2.779,2.779,0,0,0,2.162-.962,3.582,3.582,0,0,0,.861-2.483v-.879ZM114.525,0V-1.635h-.035a3.069,3.069,0,0,1-2.9,1.854Q108.4.22,108.4-3.8V-9h.817v5a4.576,4.576,0,0,0,.6,2.654,2.186,2.186,0,0,0,1.894.826,2.533,2.533,0,0,0,2.035-.923,3.693,3.693,0,0,0,.778-2.461V-9h.809V0ZM126.6-8.156a1.586,1.586,0,0,0-.949-.29,2.1,2.1,0,0,0-1.784,1.1,5.677,5.677,0,0,0-.721,3.12V0h-.791V-9h.791v2h.035a3.276,3.276,0,0,1,.976-1.6,2.309,2.309,0,0,1,1.547-.571,2.4,2.4,0,0,1,.9.158ZM137.816,0V-1.8h-.035A3.527,3.527,0,0,1,136.529-.33a3.211,3.211,0,0,1-1.824.549,2.8,2.8,0,0,1-2.03-.721,2.421,2.421,0,0,1-.747-1.819q0-2.355,3.12-2.848l2.769-.413q0-2.9-2.18-2.9a4.44,4.44,0,0,0-2.892,1.2v-.976a4.408,4.408,0,0,1,1.358-.677,5.182,5.182,0,0,1,1.613-.281,2.715,2.715,0,0,1,2.149.861,3.674,3.674,0,0,1,.76,2.5V0Zm-2.479-4.482a4.293,4.293,0,0,0-1.986.655,1.767,1.767,0,0,0-.571,1.472,1.763,1.763,0,0,0,.532,1.318,2.032,2.032,0,0,0,1.481.519,2.779,2.779,0,0,0,2.162-.962,3.582,3.582,0,0,0,.861-2.483v-.879ZM151.589,0V-5.238q0-3.243-2.338-3.243a2.711,2.711,0,0,0-2.136.954,3.454,3.454,0,0,0-.835,2.36V0h-.809V-9h.809v1.635h.035a3.257,3.257,0,0,1,3.076-1.854,2.686,2.686,0,0,1,2.232.971,4.358,4.358,0,0,1,.773,2.773V0ZM162.8-.123a2.791,2.791,0,0,1-1.187.3q-2,0-2-2.391V-8.262h-1.617V-9h1.617v-2.338q.193-.07.4-.141t.4-.132V-9H162.8v.738h-2.373V-2.32a2.391,2.391,0,0,0,.294,1.349,1.135,1.135,0,0,0,1,.417A2.232,2.232,0,0,0,162.8-.879Z"
          data-name="Path 1481" fill="#b7b7b7" id="Path_1481" transform="translate(1.818 74.797)" />
    </g>
  </g>
</svg>
